<svg id="Capa_1" data-name="Capa 1" xmlns="http://www.w3.org/2000/svg" viewBox="0 0 250 250"><defs><style>.cls-1{fill:#e53446;}.cls-2{fill:#f2aac8;}.cls-3{fill:#1a171b;}</style></defs><circle class="cls-1" cx="125" cy="125" r="124.8"/><polygon class="cls-2" points="243.25 145.85 184.68 132.3 153.15 125 184.68 117.7 243.25 104.15 183.57 111.45 151.45 115.37 178.58 97.73 228.98 64.97 175.4 92.23 146.56 106.91 166.02 81.05 202.18 33.02 161.16 76.97 139.07 100.63 148.52 69.67 166.07 12.17 142.55 67.5 129.89 97.28 128.18 64.97 125 4.93 121.82 64.97 120.11 97.28 107.45 67.5 83.93 12.17 101.48 69.67 110.93 100.63 88.84 76.97 47.82 33.02 83.98 81.05 103.44 106.91 74.6 92.23 21.02 64.97 71.42 97.73 98.55 115.37 66.43 111.45 6.75 104.15 65.33 117.7 96.85 125 65.33 132.3 6.75 145.85 66.43 138.55 98.55 134.63 71.42 152.27 21.02 185.03 74.6 157.77 103.44 143.09 83.98 168.95 47.82 216.98 88.84 173.03 110.93 149.38 101.48 180.33 83.93 237.83 107.45 182.5 120.11 152.72 121.82 185.03 125 245.07 128.18 185.03 129.89 152.72 142.55 182.5 166.07 237.83 148.52 180.33 139.07 149.38 161.16 173.03 202.18 216.98 166.02 168.95 146.56 143.09 175.4 157.77 228.98 185.03 178.58 152.27 151.45 134.63 183.57 138.55 243.25 145.85"/><path class="cls-3" d="M48.09,133.43a17.23,17.23,0,0,1,4.52-2.26q2.55-.85,6.62-1.92a78,78,0,0,0,11-3.65,18.07,18.07,0,0,0,7.27-5.91q3-4.06,3.05-10.92,0-7.76-4.67-12T62.09,92.51q-8.66,0-13.51,3.46a11.25,11.25,0,0,0-4.86,9.72q0,5,3,7.11a11.64,11.64,0,0,0,7,2,25.75,25.75,0,0,0,7.68-1.28,6.07,6.07,0,0,1-2.22-.83,3.94,3.94,0,0,1-1.39-1.43,3.46,3.46,0,0,1-.45-1.66,3.54,3.54,0,0,1,1.43-2.82,6.12,6.12,0,0,1,4-1.17,5.32,5.32,0,0,1,3.35.91A3,3,0,0,1,67.29,109a3.51,3.51,0,0,1-1,2.52,7.93,7.93,0,0,1-2.49,1.7q-1.5.68-4.29,1.65a53.27,53.27,0,0,0-7.83,3.35,15.06,15.06,0,0,0-5.34,5.16q-2.27,3.47-2.26,9.19v13.85H79.18V131.36H61a24.85,24.85,0,0,0-8.66,1.4,22,22,0,0,0-6.92,4.17A7.21,7.21,0,0,1,48.09,133.43Z"/><path class="cls-3" d="M85.06,97.25V117a23,23,0,0,0,4.29-2.18,15.52,15.52,0,0,0,2.82-2.45q1.17-1.32,3.13-4.1c1.7-2.41,3.38-4.65,5-6.7l-.9,1.35a110,110,0,0,0-7,12.61,42.41,42.41,0,0,0-3.16,11.15,115.94,115.94,0,0,0-.95,16.67v3.09h15.82V93.71H93.41Z"/><polygon class="cls-3" points="107.49 157.49 111.56 157.49 126.62 93.72 122.55 93.72 107.49 157.49"/><path class="cls-3" d="M133.62,133.43a17.38,17.38,0,0,1,4.52-2.26q2.55-.85,6.62-1.92a78.21,78.21,0,0,0,11-3.65,18.11,18.11,0,0,0,7.26-5.91q3.06-4.06,3-10.92,0-7.76-4.67-12t-13.77-4.25q-8.67,0-13.52,3.46a11.25,11.25,0,0,0-4.86,9.72q0,5,3,7.11a11.62,11.62,0,0,0,7,2,25.75,25.75,0,0,0,7.68-1.28,5.93,5.93,0,0,1-2.22-.83,4,4,0,0,1-1.4-1.43,3.46,3.46,0,0,1-.45-1.66,3.54,3.54,0,0,1,1.43-2.82,6.16,6.16,0,0,1,4-1.17,5.32,5.32,0,0,1,3.35.91,3,3,0,0,1,1.17,2.48,3.51,3.51,0,0,1-1,2.52,8,8,0,0,1-2.48,1.7q-1.52.68-4.29,1.65a53,53,0,0,0-7.84,3.35,15.14,15.14,0,0,0-5.34,5.16q-2.26,3.47-2.26,9.19v13.85h35.09V131.36H146.5a24.81,24.81,0,0,0-8.66,1.4,22.11,22.11,0,0,0-6.93,4.17A7.21,7.21,0,0,1,133.62,133.43Z"/><path class="cls-3" d="M178,132.76a22.06,22.06,0,0,0-6.92,4.17,7.21,7.21,0,0,1,2.71-3.5,17.23,17.23,0,0,1,4.52-2.26q2.55-.85,6.62-1.92a78,78,0,0,0,11-3.65,18.07,18.07,0,0,0,7.27-5.91q3-4.06,3.05-10.92,0-7.76-4.67-12t-13.78-4.25q-8.66,0-13.51,3.46a11.25,11.25,0,0,0-4.86,9.72q0,5,3,7.11a11.65,11.65,0,0,0,7,2,25.75,25.75,0,0,0,7.68-1.28,6,6,0,0,1-2.23-.83,4,4,0,0,1-1.39-1.43,3.46,3.46,0,0,1-.45-1.66,3.54,3.54,0,0,1,1.43-2.82,6.12,6.12,0,0,1,4-1.17,5.32,5.32,0,0,1,3.35.91A3,3,0,0,1,193,109a3.51,3.51,0,0,1-1,2.52,7.93,7.93,0,0,1-2.49,1.7q-1.5.68-4.29,1.65a53.27,53.27,0,0,0-7.83,3.35,15.06,15.06,0,0,0-5.34,5.16q-2.26,3.47-2.26,9.19v13.85h35.08V131.36H186.7A24.85,24.85,0,0,0,178,132.76Z"/></svg>