<svg id="Capa_1" data-name="Capa 1" xmlns="http://www.w3.org/2000/svg" viewBox="0 0 250 249"><defs><style>.cls-1{fill:#fecd1a;}.cls-2{fill:#1a171b;}</style></defs><circle class="cls-1" cx="125" cy="125" r="124.8"/><path class="cls-2" d="M123.4,200.19a49,49,0,0,1-48.92-48.92,3.2,3.2,0,1,1,6.4,0,42.52,42.52,0,0,0,85,0,3.2,3.2,0,1,1,6.4,0A49,49,0,0,1,123.4,200.19Z"/><path class="cls-2" d="M120.08,77.91c-.31-.58-.65-1.15-1-1.71l-.19-.31a25.73,25.73,0,0,0-5-6.21c-.28-.25-.56-.5-.83-.76l-1.42-1.27a17.13,17.13,0,0,0-1.51-1.19,23.53,23.53,0,0,0-3.81-2.13,10.3,10.3,0,0,0-6.27-.66c-.57.12-1.13.29-1.68.45l-.59.18a2.6,2.6,0,0,0-.53.22,1.43,1.43,0,0,0-.82,1.69q0,.2.09.36v0l-.22.49c-.18.43-.36.84-.53,1.27a37.13,37.13,0,0,0-1.58,4.87c-.41,1.62-.79,3.24-1.17,4.87l0,.16c-.42,1.81-.72,3.42-.92,4.94l-.13.93-.24,1.81,0,.15c-.14,1.21-.28,2.41-.39,3.62s-.21,2.51-.31,4.05a30.32,30.32,0,0,0,0,3.31l.12,3.34,0,.53h0l-.07,0a4.79,4.79,0,0,0-1.73-.22l-.92,0H88a7.81,7.81,0,0,0-1.86.27,12.29,12.29,0,0,0-3.75,1.75,7.22,7.22,0,0,0-2.52,3c-.25.57-.47,1.16-.67,1.71a8.82,8.82,0,0,0-.35,4.41c.09.54.17,1.08.26,1.62l.06.42a6.69,6.69,0,0,0,1.06,2.86,11.33,11.33,0,0,0,3.31,3.16,6.72,6.72,0,0,0,2.54.92,15.94,15.94,0,0,0,2.54.17h.78a4.85,4.85,0,0,0,2.12-.53,7,7,0,0,0,2.35-1.8c.15-.18.31-.36.47-.53l.49-.57.83-1c.32-.4.65-.79,1-1.19a6.15,6.15,0,0,0,1.36-3c0-.18,0-.36.08-.61a13.52,13.52,0,0,0,0-3.25,8.1,8.1,0,0,0-.58-2.35A7.15,7.15,0,0,0,95,102.84l-.17-.14h0a1.15,1.15,0,0,1,0-.19c0-.11.05-.23.07-.35a3,3,0,0,0,.07-.32l.23-1.24q.24-1.34.51-2.64c.24-1.14.44-2.36.63-3.85l.4-3.16c.17-1.32.33-2.63.49-3.94,0-.32.07-.65.11-1s.06-.61.1-.91l.05-.4.42-3.45c.14-1,.3-2.1.45-3.15.08-.51.15-1,.23-1.54l.21-1.35c0-.3.08-.61.13-.91.07-.52.14-1,.23-1.56l.1-.63c.21-1.21.43-2.46.55-3.73l.17,0a5.67,5.67,0,0,1,2.4,1.35c.61.59,1.16,1.13,1.69,1.7.83.9,1.77,1.81,3,3,.75.67,1.47,1.36,2.19,2.06a13.21,13.21,0,0,1,1.87,2.27l.08.11c.46.72,1,1.46,1.37,2.21.65,1.15,1.38,2.26,2.09,3.34.26.4.52.79.77,1.19A7.33,7.33,0,0,0,116.65,87a3.25,3.25,0,0,0,1.1.73,2.64,2.64,0,0,0,3.2-1,3.76,3.76,0,0,0,.43-1,5.88,5.88,0,0,0,.21-1.35A12.17,12.17,0,0,0,120.08,77.91Z"/><path class="cls-2" d="M187.27,77.91q-.48-.87-1-1.71l-.18-.31a25.77,25.77,0,0,0-5-6.21l-.83-.76c-.46-.42-.93-.85-1.41-1.27a17.13,17.13,0,0,0-1.52-1.19,23.53,23.53,0,0,0-3.81-2.13,10.27,10.27,0,0,0-6.26-.66c-.58.12-1.14.29-1.68.45l-.59.18a2.92,2.92,0,0,0-.54.22,1.42,1.42,0,0,0-.81,1.69,3.15,3.15,0,0,0,.09.36v0l-.21.49c-.19.43-.37.84-.54,1.27a40.38,40.38,0,0,0-1.58,4.87c-.4,1.62-.78,3.24-1.17,4.87l0,.16c-.42,1.81-.73,3.42-.93,4.94l-.12.93c-.09.6-.17,1.2-.24,1.81l0,.15c-.14,1.21-.29,2.41-.4,3.62s-.21,2.51-.3,4.05a32.8,32.8,0,0,0,0,3.31c0,1.11.09,2.23.13,3.34l0,.53h0l-.07,0a4.79,4.79,0,0,0-1.73-.22l-.93,0h-.36a7.81,7.81,0,0,0-1.86.27,12.34,12.34,0,0,0-3.76,1.75,7.2,7.2,0,0,0-2.51,3c-.26.57-.48,1.16-.67,1.71a8.71,8.71,0,0,0-.35,4.41c.09.54.17,1.08.25,1.62l.07.42a6.69,6.69,0,0,0,1.06,2.86,11.2,11.2,0,0,0,3.31,3.16,6.61,6.61,0,0,0,2.53.92,16.06,16.06,0,0,0,2.55.17h.78a4.85,4.85,0,0,0,2.12-.53,6.82,6.82,0,0,0,2.34-1.8c.16-.18.31-.36.47-.53l.5-.57c.27-.34.55-.68.83-1l1-1.19a6.15,6.15,0,0,0,1.36-3c0-.18.06-.36.09-.61a13,13,0,0,0,0-3.25,8.43,8.43,0,0,0-.57-2.35,7.29,7.29,0,0,0-2.53-3.31,1.77,1.77,0,0,1-.17-.14h0a1.11,1.11,0,0,1,0-.19c0-.11,0-.23.07-.35s0-.21.07-.32l.23-1.24c.16-.89.32-1.77.51-2.64.24-1.14.44-2.36.63-3.85L164,91c.16-1.32.33-2.63.49-3.94,0-.32.07-.65.1-1s.07-.61.11-.91l0-.4c.14-1.15.28-2.3.43-3.45s.29-2.1.45-3.15c.07-.51.15-1,.23-1.54l.21-1.35.12-.91c.07-.52.14-1,.23-1.56l.11-.63c.21-1.21.42-2.46.54-3.73l.18,0a5.63,5.63,0,0,1,2.39,1.35c.62.59,1.17,1.13,1.69,1.7.84.9,1.78,1.81,3,3,.74.67,1.47,1.36,2.19,2.06a14.21,14.21,0,0,1,1.87,2.27l.07.11c.47.72,1,1.46,1.38,2.21.65,1.15,1.38,2.26,2.09,3.34l.77,1.19A7.28,7.28,0,0,0,183.83,87a3.19,3.19,0,0,0,1.11.73,2.63,2.63,0,0,0,3.19-1,3.46,3.46,0,0,0,.44-1,5.91,5.91,0,0,0,.2-1.35A12.16,12.16,0,0,0,187.27,77.91Z"/></svg>