<svg id="Capa_1" data-name="Capa 1" xmlns="http://www.w3.org/2000/svg" viewBox="0 0 302 262"><defs><style>.cls-1{fill:#374a97;}.cls-2{fill:#e53446;}.cls-3{fill:#fff;}</style></defs><path class="cls-1" d="M301,239.64l-.51-2.81c-.37-2.05-.73-4-1.11-6q-1-5.52-2.11-11c-.73-3.84-1.47-7.68-2.19-11.52q-2.6-13.63-5.14-27.29a18.39,18.39,0,0,0-18.31-15.2H255.14a18.52,18.52,0,0,0-12.42,4.65c-.86-.47-1.75-.92-2.68-1.33a40.62,40.62,0,0,0-16.19-3.3c-3.3,0-6.61,0-9.91,0h-5.65c-3,0-6.06,0-9.09,0h-.12A19,19,0,0,0,190,168a37.71,37.71,0,0,0-16.14-3.54,42.26,42.26,0,0,0-9.5,1.11,36.12,36.12,0,0,0-7.1,2.44,19,19,0,0,0-9.14-2.26h-.57c-1.18,0-2.35,0-3.53,0h-5.16a21.23,21.23,0,0,0-6.3.89,18.77,18.77,0,0,0-5.77-.9H110a18.82,18.82,0,0,0-8.89,2.17,39.32,39.32,0,0,0-15.76-3.61l-1.53-.05-1.51.22c-.42.07-.85.12-1.27.17a47,47,0,0,0-5.64.94,36.69,36.69,0,0,0-12,5.3l-.15-.11a36.57,36.57,0,0,0-14.46-5.59,52.1,52.1,0,0,0-9.16-.8h0a60.6,60.6,0,0,0-9.72.81,35.85,35.85,0,0,0-17.53,7.87A32,32,0,0,0,1.14,194.93,37.85,37.85,0,0,0,4,214.39l-.11.19C-1.35,224-1.21,235,4.3,244.74c4.18,7.43,11,12.5,20.36,15.05A58,58,0,0,0,40,261.92a51.25,51.25,0,0,0,14.81-2.18,35.21,35.21,0,0,0,9-4.16,37.23,37.23,0,0,0,20.62,6.2h.44a38.25,38.25,0,0,0,16.36-3.51,19.09,19.09,0,0,0,9.16,2.27h.53c1.39,0,2.77-.05,4.15-.05s2.89,0,4.34.05h.45a19.51,19.51,0,0,0,6.29-1,19.69,19.69,0,0,0,6.29,1h.13c2.67,0,5.32,0,8,0,2.46,0,4.91,0,7.36,0h.23a19.05,19.05,0,0,0,9.2-2.28,37.77,37.77,0,0,0,9.94,3,42.91,42.91,0,0,0,6.63.53,37.33,37.33,0,0,0,16-3.54,18.94,18.94,0,0,0,9.14,2.28h.17c2.57,0,5.12,0,7.67,0s5,0,7.42,0h.23a19.92,19.92,0,0,0,4.76-.56,19.82,19.82,0,0,0,4.66.55h17.46q.68,0,1.2,0c.31,0,.62,0,.95,0h4.4c2,0,3.93,0,5.9,0H254a18.69,18.69,0,0,0,5.92-1,19.64,19.64,0,0,0,6.14,1h.12l8,0h13.38a14.4,14.4,0,0,0,14.16-17Z"/><path class="cls-1" d="M209.39,44.34c-.59-8.91-2.4-16.14-5.72-22.77C196.8,7.85,184.62.22,169.37.08h-.23A39.29,39.29,0,0,0,154.74,3c-.46.19-.9.42-1.36.63a18.62,18.62,0,0,0-9-2.24l-8.39,0-8.08,0h-.13a18.4,18.4,0,0,0-18.62,18.89c0,3.06,0,6.13,0,9.12V31a18.63,18.63,0,0,0-17,16.81A67.07,67.07,0,0,0,93.36,70a36.75,36.75,0,0,0,8.07,16.28A32,32,0,0,0,125.5,97.11h.81a34,34,0,0,0,21.2-6.86,37.07,37.07,0,0,0,21.42,6.84h.57A36.79,36.79,0,0,0,194,88.23c7.64-6.65,12.4-15.76,14.55-27.88A66.69,66.69,0,0,0,209.39,44.34Z"/><path class="cls-2" d="M79.27,144.73a50.2,50.2,0,0,1,0-69.65,46.73,46.73,0,0,1,67.79,0,43.66,43.66,0,0,1,3.6,4.06,49.89,49.89,0,0,1,3.51-4,46.42,46.42,0,0,1,33.92-14.59A46.9,46.9,0,0,1,222,75.11a49.29,49.29,0,0,1,14,34.81,49.8,49.8,0,0,1-14,34.81l-71.38,73.8Z"/><path class="cls-1" d="M188.12,66a41.66,41.66,0,0,1,30,12.91,44.7,44.7,0,0,1,0,62l-67.43,69.72L83.23,140.9a44.68,44.68,0,0,1,0-62,42.15,42.15,0,0,1,67.43,10.33,45.7,45.7,0,0,1,7.49-10.33,41.22,41.22,0,0,1,30-12.91m0-11a51.88,51.88,0,0,0-37.46,15.84,52.22,52.22,0,0,0-75.34.43,55.68,55.68,0,0,0,0,77.29l67.4,69.69,7.91,8.17,7.9-8.17L226,148.55a55.69,55.69,0,0,0,0-77.3A52.39,52.39,0,0,0,188.12,55Z"/><path class="cls-3" d="M128,93.56a25.91,25.91,0,0,0-18.17,7.25,23.79,23.79,0,0,0,0,34.81l39.3,37.64a2.26,2.26,0,0,0,3.15,0l39.31-37.64a24.08,24.08,0,0,0,7.57-17.41,23.83,23.83,0,0,0-7.57-17.4,26.22,26.22,0,0,0-18.17-7.25,25.93,25.93,0,0,0-18.17,7.25,25.51,25.51,0,0,0-2.73,3.07,2.25,2.25,0,0,1-3.58,0,22.4,22.4,0,0,0-2.78-3.06A25.9,25.9,0,0,0,128,93.56Z"/><path class="cls-3" d="M126.67,48.94q0,7.52-1,10.73c-.66,2.13-1.59,3.2-2.78,3.2a2.11,2.11,0,0,1-1.84-1.32A12.83,12.83,0,0,1,120,57.19a68.06,68.06,0,0,1-.39-8.25H109.4A58.81,58.81,0,0,0,109.83,65a20.74,20.74,0,0,0,5.3,11.12q4,4.09,10.94,4.1,10.68,0,15-8.38t4.32-22.91V19H126.67Z"/><path class="cls-3" d="M190.36,33a25.2,25.2,0,0,0-7.65-11.2,20.88,20.88,0,0,0-25,0A25.22,25.22,0,0,0,150.09,33a46.69,46.69,0,0,0-2.56,15.95,46.64,46.64,0,0,0,2.56,15.94,25.11,25.11,0,0,0,7.66,11.2,20.84,20.84,0,0,0,25,0,25.09,25.09,0,0,0,7.65-11.2,46.39,46.39,0,0,0,2.57-15.94A46.45,46.45,0,0,0,190.36,33ZM173.69,57.1a12.35,12.35,0,0,1-1.37,4.45,2.44,2.44,0,0,1-2,1.32,2.54,2.54,0,0,1-2.09-1.32,11.67,11.67,0,0,1-1.41-4.45,52.35,52.35,0,0,1-.52-8.16,52.4,52.4,0,0,1,.52-8.17,11.61,11.61,0,0,1,1.41-4.44A2.53,2.53,0,0,1,170.27,35a2.43,2.43,0,0,1,2,1.33,12.28,12.28,0,0,1,1.37,4.44,52.58,52.58,0,0,1,.51,8.17A52.53,52.53,0,0,1,173.69,57.1Z"/><path class="cls-3" d="M51.87,210.46a66.71,66.71,0,0,0-9.7-4.36l-1-.34c-.32-.11-.61-.23-.9-.34q-3.07-1.2-4.44-1.8a5.94,5.94,0,0,1-2.19-1.54,3.38,3.38,0,0,1-.81-2.3,3.54,3.54,0,0,1,.51-1.93,3.31,3.31,0,0,1,1.5-1.24,6,6,0,0,1,2.35-.43,4.85,4.85,0,0,1,3.34,1.07A3.59,3.59,0,0,1,41.74,200a4.11,4.11,0,0,1-.38,1.75,3.42,3.42,0,0,1-1.2,1.37,3.32,3.32,0,0,1-1.92.56h-.17a17.52,17.52,0,0,0,7.26,2,11.85,11.85,0,0,0,8-2q3.51-2.39,3.51-8.63a11,11,0,0,0-5-9.49q-5-3.51-14.23-3.51A30.49,30.49,0,0,0,26.35,184a14.76,14.76,0,0,0-7.18,5.77,17.77,17.77,0,0,0-2.48,9.71,17.59,17.59,0,0,0,2.06,8.93A16.94,16.94,0,0,0,23.66,214a65.3,65.3,0,0,0,7.74,4.49l.26.08a42.83,42.83,0,0,0,5.64,2.31,21.9,21.9,0,0,1,5.09,2.23,3.58,3.58,0,0,1,1.49,3.16,4,4,0,0,1-1.45,3.25,6,6,0,0,1-3.94,1.19,7.62,7.62,0,0,1-4.57-1.32,4.33,4.33,0,0,1-1.84-3.72,4.6,4.6,0,0,1,1.07-3A5.77,5.77,0,0,1,36.87,221a28.84,28.84,0,0,0-8.89-1.8,13.63,13.63,0,0,0-8.47,2.14q-3.59,2.4-3.59,8.38A12.44,12.44,0,0,0,18.79,238a17.06,17.06,0,0,0,7.86,5.05A35.8,35.8,0,0,0,38,244.75a31.18,31.18,0,0,0,11.46-1.93,15.59,15.59,0,0,0,7.61-6.2q2.73-4.27,2.73-11.11a17.85,17.85,0,0,0-2.18-9.4A15.91,15.91,0,0,0,51.87,210.46Z"/><path class="cls-3" d="M96.25,186.31a19.08,19.08,0,0,0-12.44-4.15,19.21,19.21,0,0,0-12.53,4.15,25.15,25.15,0,0,0-7.65,11.2,50.75,50.75,0,0,0,0,31.89,25.15,25.15,0,0,0,7.65,11.2,19.16,19.16,0,0,0,12.53,4.15,19,19,0,0,0,12.44-4.15,25.15,25.15,0,0,0,7.65-11.2,50.94,50.94,0,0,0,0-31.89A25.15,25.15,0,0,0,96.25,186.31Zm-9,35.31a12.28,12.28,0,0,1-1.37,4.44,2.43,2.43,0,0,1-2,1.33,2.54,2.54,0,0,1-2.1-1.33,11.61,11.61,0,0,1-1.41-4.44,65.62,65.62,0,0,1,0-16.33,11.74,11.74,0,0,1,1.41-4.45,2.55,2.55,0,0,1,2.1-1.32,2.44,2.44,0,0,1,2,1.32,12.42,12.42,0,0,1,1.37,4.45,65.62,65.62,0,0,1,0,16.33Z"/><polygon class="cls-3" points="137.07 215.9 127.15 183.53 108.6 183.53 108.6 243.38 120.57 243.38 120.57 208.18 130.92 243.38 149.04 243.38 149.04 183.53 137.07 183.53 137.07 215.9"/><path class="cls-3" d="M186.36,186.31a20.84,20.84,0,0,0-25,0,25.24,25.24,0,0,0-7.66,11.2,50.94,50.94,0,0,0,0,31.89,25.24,25.24,0,0,0,7.66,11.2,20.84,20.84,0,0,0,25,0A25.15,25.15,0,0,0,194,229.4a50.75,50.75,0,0,0,0-31.89A25.15,25.15,0,0,0,186.36,186.31Zm-9,35.31a12.28,12.28,0,0,1-1.37,4.44,2.43,2.43,0,0,1-2.05,1.33,2.53,2.53,0,0,1-2.09-1.33,11.61,11.61,0,0,1-1.41-4.44,64.36,64.36,0,0,1,0-16.33,11.74,11.74,0,0,1,1.41-4.45,2.54,2.54,0,0,1,2.09-1.32,2.44,2.44,0,0,1,2.05,1.32,12.42,12.42,0,0,1,1.37,4.45,65.62,65.62,0,0,1,0,16.33Z"/><path class="cls-3" d="M238,221c-1.19-3.79-2.75-6.34-4.65-7.65s-5.06-2-9.45-2v-.34q8.88,0,13.21-3.68t4.31-10.51c0-4.85-1.7-8.28-5.13-10.31s-7.72-3-12.91-3H198.71v59.85h18V211.54a1.77,1.77,0,0,1,1.07.63,6.66,6.66,0,0,1,.9,2.1c.28,1,.59,2.46.94,4.4l4.36,24.71h19.58l-.17-.69Q239.84,226.71,238,221Zm-14.32-14.11a6.31,6.31,0,0,1-2.73,3,9.16,9.16,0,0,1-4.32,1V194.61l.6.12a19.69,19.69,0,0,1,3.85,1,5.62,5.62,0,0,1,2.48,2.13,7.88,7.88,0,0,1,1,4.36A10.91,10.91,0,0,1,223.72,206.91Z"/><path class="cls-3" d="M267.46,243.38h18.8L275,183.53H256.77l-11.54,59.85h12l2.11-14.62h5.89Zm-7.8-17,2.49-17.27,2.68,17.27Z"/></svg>