<svg id="Capa_1" data-name="Capa 1" xmlns="http://www.w3.org/2000/svg" viewBox="0 0 264 264"><defs><style>.cls-1{fill:#e53446;}.cls-2{fill:#fff;}</style></defs><polygon class="cls-1" points="244.27 154.33 252.4 144.93 263.61 132 252.4 119.06 244.27 109.67 248.19 97.87 253.59 81.64 238.29 73.97 227.17 68.41 226.28 56.01 225.06 38.94 207.99 37.72 195.59 36.83 190.03 25.71 182.36 10.41 166.13 15.81 154.33 19.73 144.94 11.6 132 0.4 119.07 11.6 109.67 19.73 97.87 15.81 81.64 10.41 73.97 25.71 68.41 36.83 56.01 37.72 38.94 38.94 37.72 56.01 36.83 68.41 25.71 73.97 10.41 81.64 15.81 97.87 19.73 109.67 11.6 119.06 0.4 132 11.6 144.93 19.73 154.33 15.81 166.13 10.41 182.36 25.71 190.03 36.83 195.59 37.72 207.99 38.94 225.06 56.01 226.28 68.41 227.17 73.97 238.29 81.64 253.59 97.87 248.19 109.67 244.27 119.07 252.4 132 263.61 144.94 252.4 154.33 244.27 166.13 248.19 182.36 253.59 190.03 238.29 195.59 227.17 207.99 226.28 225.06 225.06 226.28 207.99 227.17 195.59 238.29 190.03 253.59 182.36 248.19 166.13 244.27 154.33"/><path class="cls-2" d="M118.92,156.5c.33.26.53.44.74.59a16.1,16.1,0,0,1,5.59,7.34,18.59,18.59,0,0,1,1.27,5.2,31.16,31.16,0,0,1,0,7.35c-.07.46-.13.92-.2,1.38a13.45,13.45,0,0,1-3,6.63c-1.41,1.68-2.78,3.39-4.18,5.07-.72.87-1.49,1.7-2.22,2.56a15.34,15.34,0,0,1-5.17,4,10.93,10.93,0,0,1-4.6,1.15,43.21,43.21,0,0,1-7.54-.37,14.77,14.77,0,0,1-5.58-2,25.06,25.06,0,0,1-7.44-7.1A15,15,0,0,1,84.26,182c-.24-1.57-.47-3.15-.73-4.72a19.45,19.45,0,0,1,.77-9.81c.47-1.31,1-2.62,1.53-3.89a15.87,15.87,0,0,1,5.55-6.64A27.14,27.14,0,0,1,99.83,153a17.4,17.4,0,0,1,4.12-.62l3-.07a10.46,10.46,0,0,1,3.73.47c.25.09.51.13.74.19.13-.12.27-.18.31-.29a1.41,1.41,0,0,0,.09-.58c-.11-3-.21-6-.34-8.95-.1-2.52-.13-5,0-7.56.19-3.11.41-6.22.7-9.33.27-2.91.62-5.8,1-8.7.26-2.11.56-4.21.84-6.32.51-3.81,1.25-7.59,2.12-11.34s1.81-7.75,2.78-11.61a90.83,90.83,0,0,1,3.63-11.16c.56-1.42,1.19-2.81,1.82-4.28-.08-.32-.2-.7-.27-1.09a2.58,2.58,0,0,1,1.49-3.12,6.29,6.29,0,0,1,1.11-.45c1.72-.5,3.42-1.08,5.18-1.43a22.86,22.86,0,0,1,14,1.48,53.41,53.41,0,0,1,8.68,4.84A41,41,0,0,1,158,75.76c1.75,1.52,3.44,3.12,5.17,4.67A59.21,59.21,0,0,1,174.66,94.6c.91,1.54,1.83,3.08,2.7,4.65A27.38,27.38,0,0,1,180.74,114a12.76,12.76,0,0,1-.45,2.94,7.16,7.16,0,0,1-.9,2,5.34,5.34,0,0,1-6.5,2,7.18,7.18,0,0,1-2.32-1.52,16.89,16.89,0,0,1-2.52-3.07c-2.23-3.46-4.56-6.85-6.6-10.43-1-1.85-2.21-3.62-3.37-5.4a31.25,31.25,0,0,0-4.43-5.37c-1.67-1.61-3.35-3.22-5.07-4.78-2.42-2.18-4.78-4.41-7-6.8-1.26-1.36-2.6-2.66-3.93-4a13.76,13.76,0,0,0-5.85-3.28,6.71,6.71,0,0,0-.78-.15.7.7,0,0,0-.47.32c0,.12-.09.25-.11.38-.29,3.37-.91,6.7-1.48,10-.32,1.9-.54,3.81-.82,5.71-.33,2.24-.69,4.46-1,6.69-.35,2.43-.71,4.86-1,7.3q-.57,4.44-1.09,8.88c-.18,1.45-.31,2.91-.49,4.35q-.55,4.55-1.13,9.09c-.3,2.43-.61,4.87-.92,7.3-.38,3-.83,5.92-1.45,8.84s-1.14,6-1.71,9c-.1.52-.23,1-.33,1.56,0,.26,0,.52-.06.89"/></svg>