<svg id="Capa_1" data-name="Capa 1" xmlns="http://www.w3.org/2000/svg" viewBox="0 0 301 301"><path d="M281.92,146.9c-17.08,62.94-62.34,107.9-122.28,132.17,71.63-18.28,106.7-56.94,122.28-132.17m-140.56-125C69.73,40.21,34.66,78.87,19.08,154.1,36.16,91.16,81.42,46.2,141.36,21.93M288.81,93.86C264.54,198.45,197.1,265.29,100,288.66c81.82-8.09,168.13-67.73,188.81-194.8M201,12.34C119.18,20.43,32.87,80.07,12.19,207.14,36.46,102.55,103.9,35.72,201,12.34m86.31,58.14c-31.47,112.09-102.79,184-211,216.68,116-24.57,187.62-96.8,211-216.68M224.68,13.84c-116,24.57-187.62,96.8-211,216.68,31.47-112.09,102.79-184,211-216.68m35.06,33-214,213.39a1346.26,1346.26,0,0,0,214-213.39m-4.49-6a1347.09,1347.09,0,0,0-214,213.39Zm29.37,20.68c-42,107.89-113.59,179.82-223,222.38,117.18-34.47,188.81-106.4,223-222.38M239.36,17.13C122.18,51.6,50.55,123.53,16.38,239.51c42-107.89,113.59-179.82,223-222.38M267.23,48c-64.73,82.12-136.66,154.05-220,220,91.41-57.84,163.34-129.77,220-220M253.75,33c-91.41,57.84-163.34,129.77-220,220,64.73-82.12,136.66-154,220-220M273.83,50.7c-58.15,92.61-129.77,164.54-224.18,223C152.15,223,223.78,151.4,273.83,50.7M251.35,27.32C148.85,78,77.22,149.6,27.17,250.3c58.15-92.61,129.77-164.54,224.18-223m28.47,27.57C229.17,156.5,157.54,228.12,54.15,279.37,165.64,236.21,237.26,164.29,279.82,54.89m-33-33.26C135.36,64.79,63.74,136.71,21.18,246.11,71.83,144.51,143.46,72.88,246.85,21.63M.5,295C.5,175.67,12.19,102.85,55.65,59.09,99.7,14.74,174,1,292.71.65h7.79V6c0,120.18-13.49,194.51-58.14,239.47C197.1,291.36,121.28,300.35,5.59,300.35H.5Z"/></svg>