<svg version="1.1" id="Capa_1" xmlns="http://www.w3.org/2000/svg" xmlns:xlink="http://www.w3.org/1999/xlink" x="0px" y="0px"
	 viewBox="0 0 301 301" style="enable-background:new 0 0 301 301;" xml:space="preserve">
<path d="M0.5,301h3.9c42.9-43.3,103.8-111.4,143.7-111.4c33.6,0,43.5,21.1,89.4,111.4h5.1c-15.9-28-33-59.6-33-87.6
	c0-27.1,18.3-46.7,52.5-46.7c12,0,26.4,0.3,38.4,1.2v-2.7c-53.7-3.9-84.6-16.9-84.6-58.7c0-24.4,10.5-58.4,29.4-106.6h-5.1
	c-22.5,64.7-42.9,116.5-90,116.5C103.4,116.5,74,68.3,25.1,0H20c53.1,74.9,90.9,123.4,90.9,158.6c0,34-37.2,65-110.4,140.9V301z"/>
</svg>
