<svg id="Capa_1" data-name="Capa 1" xmlns="http://www.w3.org/2000/svg" viewBox="0 0 301 301"><path d="M150.5,300.5c9.9-114.6,26.1-151.2,150-150v-7.2c-60.9,0-97.5,6.6-119.4,30.3,19.5-28.8,55.2-38.7,119.4-38.7v-7.5c-59.4,0-96,7.8-118.2,32.7,20.1-30,55.5-41.4,118.2-41.4v-7.5c-58.5,0-94.8,9.3-117,35.4,20.1-31.2,55.5-44.1,117-44.1V95.3c-57.6,0-93.6,10.5-115.8,37.5,20.4-32.4,55.5-45.9,115.8-45.9V79.4c-56.7,0-92.7,11.7-114.9,39.9C206,85.7,241.1,71,300.5,71V63.5c-55.8,0-91.5,12.6-113.7,42,20.4-34.8,55.5-50.4,113.7-50.4V47.9c-54.9,0-90.3,13.2-112.8,43.5,21-35.4,55.5-51.9,112.8-51.9V32.3c-54,0-89.1,13.8-111.6,44.7,20.7-36.3,55.2-53.1,111.6-53.1V16.4c-53.1,0-88.2,15-110.7,46.5C210.8,26,245,8,300.5,8V.5c-126.9,0-150,92.1-150,300m-150,0c126.9,0,150-92.1,150-300-9.9,114.6-26.1,151.2-150,150v7.2c60.9,0,97.5-6.6,119.4-30.3C100.4,156.2,64.7,166.1.5,166.1v7.5c59.4,0,96-7.8,118.2-32.7C98.6,170.9,63.2,182.3.5,182.3v7.5c58.5,0,94.8-9.3,117-35.4C97.4,185.6,62,198.5.5,198.5v7.2c57.6,0,93.6-10.5,115.8-37.5C95.9,200.6,60.8,214.1.5,214.1v7.5c56.7,0,92.7-11.7,114.9-39.9C95,215.3,59.9,230,.5,230v7.5c55.8,0,91.5-12.6,113.7-42C93.8,230.3,58.7,245.9.5,245.9v7.2c54.9,0,90.3-13.2,112.8-43.5C92.3,245,57.8,261.5.5,261.5v7.2c54,0,89.1-13.8,111.6-44.7C91.4,260.3,56.9,277.1.5,277.1v7.5c53.1,0,88.2-15,110.7-46.5C90.2,275,56,293,.5,293Z"/></svg>