<svg id="Capa_1" data-name="Capa 1" xmlns="http://www.w3.org/2000/svg" viewBox="0 0 301 301"><polygon points="0.5 0.5 0.5 300.5 12.5 300.5 12.5 198.5 19.1 300.2 31.1 299.6 24.8 198.5 37.4 299 49.4 297.2 36.8 197.3 55.7 296.3 67.7 293.9 48.2 194.3 73.7 293 85.4 289.7 59.9 190.7 91.7 287.9 103.1 284.3 71 187.1 109.4 281.9 120.5 277.7 82.4 181.4 126.5 275 137.3 269.9 93.8 177.2 143 266.9 153.5 261.2 104 171.5 158.9 257.9 169.4 251.3 116 167.6 174.5 248 184.4 240.8 123.5 157.1 189.2 236.6 198.8 229.1 133.4 150.2 203.6 224.9 212.3 216.8 141.8 141.8 216.8 212 224.9 203 151.1 134 229.4 198.8 236.9 189.2 158.9 124.7 240.8 184.4 248 174.5 166.1 115.1 251.6 169.4 258.2 158.9 172.7 104.6 261.5 153.5 266.9 142.7 176 92.6 269.9 137 275.3 126.2 180.5 81.8 277.7 120.2 282.2 109.1 183.5 70.1 284.3 102.8 288.2 91.4 187.4 59 290 85.1 293 73.4 191 47.3 294.2 67.4 296.3 55.4 193.4 35.6 297.5 49.1 299 37.1 194.6 24.2 299.6 30.8 300.2 18.8 194.3 12.2 300.5 12.2 300.5 0.5 0.5 0.5"/></svg>