<svg xmlns="http://www.w3.org/2000/svg" viewBox="0 0 252 593"><defs><style>.cls-1{fill:#5b38a6;}</style></defs><g id="Capa_1" data-name="Capa 1"><path class="cls-1" d="M36.17,33.55,71.42,62.93a.4.4,0,0,1,.13.18l19.91,59.74a.36.36,0,0,0,.2.22l76.61,39.8a.4.4,0,0,1,.21.4l-3,28.65a.43.43,0,0,0,0,.16l13.95,46.82a.45.45,0,0,1,0,.2l-20,85.82a.43.43,0,0,0,0,.16l10,50.84a.58.58,0,0,0,.05.14l46.87,72.81a.37.37,0,0,1,.06.29l-7.94,41.67a.39.39,0,0,1-.17.26L163.58,520a.68.68,0,0,0-.12.12l-25,37.93h-103V33.85A.4.4,0,0,1,36.17,33.55Z"/></g></svg>