<svg version="1.1" id="Capa_1" xmlns="http://www.w3.org/2000/svg" xmlns:xlink="http://www.w3.org/1999/xlink" x="0px" y="0px"
	 viewBox="0 0 181 524.7" style="enable-background:new 0 0 181 524.7;" xml:space="preserve" aria-hidden="true">
<style type="text/css">
	.st0{fill:#5B38A6;}
</style>
<g id="Capa_1_1_">
	<path class="st0" d="M0.7,0.2L36,29.5c0.1,0,0.1,0.1,0.1,0.2L56,89.5c0,0.1,0.1,0.2,0.2,0.2l76.6,39.8c0.1,0.1,0.2,0.2,0.2,0.4
		l-3,28.6c0,0.1,0,0.1,0,0.2l13.9,46.8c0,0.1,0,0.1,0,0.2l-20,85.8c0,0.1,0,0.1,0,0.2l10,50.8c0,0,0,0.1,0.1,0.1l46.9,72.8
		c0.1,0.1,0.1,0.2,0.1,0.3l-7.9,41.7c0,0.1-0.1,0.2-0.2,0.3l-44.7,28.9c0,0-0.1,0.1-0.1,0.1l-25,37.9H0V0.5C0,0.2,0.1,0,0.3,0
		C0.5,0,0.6,0,0.7,0.2z"/>
</g>
</svg>
