<svg xmlns="http://www.w3.org/2000/svg" viewBox="0 0 1262 691"><defs><style>.cls-1{fill:#99d9f2;}</style></defs><g id="Capa_1" data-name="Capa 1"><path class="cls-1" d="M1218.49,40.16a2.23,2.23,0,0,0-2.36-2.25l-138.49,6.76a4.62,4.62,0,0,0-3.46,2.21l-45.53,86.35a5.35,5.35,0,0,1-3.44,2.46l-68.53,11.07A6.93,6.93,0,0,0,952.9,149L894.18,225a12.28,12.28,0,0,0-1.94,4.18l-17,78.23a5.34,5.34,0,0,1-2.64,3.31L775.09,356a4.74,4.74,0,0,1-4.12-.3l-58.8-38.78a13.08,13.08,0,0,0-4.31-1.66l-110.8-17a7.71,7.71,0,0,0-4.37.84l-66,39a20.42,20.42,0,0,1-4.31,1.82L359.22,383.55h-105L145.16,372a4.1,4.1,0,0,0-3.59,1.77L59.71,507.07a5.09,5.09,0,0,0-.29,4.18l34.71,80a4.47,4.47,0,0,1-.48,4.06s-41,54.71-44.42,59.42a.2.2,0,0,0,.17.32H1218.29a.2.2,0,0,0,.2-.21Z"/></g></svg>