<svg version="1.1" id="Capa_1" xmlns="http://www.w3.org/2000/svg" xmlns:xlink="http://www.w3.org/1999/xlink" x="0px" y="0px"
	 viewBox="0 0 1169.3 617.1" style="enable-background:new 0 0 1169.3 617.1;" xml:space="preserve" aria-hidden="true">
<style type="text/css">
	.st0{fill:#99D9F2;}
</style>
<g id="Capa_1_1_">
	<path class="st0" d="M1169.3,2.3c0-1.2-1-2.2-2.2-2.3c-0.1,0-0.1,0-0.2,0l-138.5,6.8c-1.4,0.2-2.7,1-3.5,2.2l-45.5,86.4
		c-0.8,1.3-2,2.1-3.4,2.5l-68.5,11.1c-1.5,0.3-2.8,1.1-3.8,2.2l-58.7,76c-0.9,1.3-1.6,2.7-1.9,4.2l-17,78.2
		c-0.4,1.4-1.3,2.6-2.6,3.3l-97.5,45.3c-1.3,0.5-2.9,0.4-4.1-0.3L663,279c-1.3-0.8-2.8-1.4-4.3-1.7l-110.8-17
		c-1.5-0.2-3,0.1-4.4,0.8l-66,39c-1.4,0.8-2.8,1.4-4.3,1.8L310,345.6H205L96,334.1c-1.4-0.1-2.8,0.6-3.6,1.8L10.5,469.2
		c-0.7,1.3-0.8,2.8-0.3,4.2l34.7,80c0.5,1.4,0.3,2.9-0.5,4.1c0,0-41,54.7-44.4,59.4c-0.1,0.1,0,0.2,0,0.3c0,0,0.1,0,0.1,0h1168.9
		c0.1,0,0.2-0.1,0.2-0.2c0,0,0,0,0,0V2.3z"/>
</g>
</svg>
