<svg version="1.1" id="Layer_1" xmlns="http://www.w3.org/2000/svg" xmlns:xlink="http://www.w3.org/1999/xlink" x="0px" y="0px"
	 viewBox="0 0 649.8 579" style="enable-background:new 0 0 649.8 579;" xml:space="preserve" aria-hidden="true">
<style type="text/css">
	.st0{fill:#6A86C3;}
</style>
<g id="Capa_1">
	<path class="st0" d="M644.2,507.4L615,390.6c-0.5-1.4-1.4-2.7-2.6-3.6l-99.2-65.7l-66.3-27.3c-1.4-0.7-2.6-1.7-3.4-3l-13.7-24.7
		L409,197.7l-11-51.3c-0.4-1.4-1.3-2.7-2.6-3.5l-79.6-44.7c-1.3-0.8-2.3-2-2.9-3.4l-22.2-61c-0.6-1.4-1.7-2.4-3.1-2.9L185,0.4
		c-1.5-0.4-3.1-0.5-4.6-0.4L27.3,18.8c-1.4,0.3-2.6,1.2-3.2,2.5L0,85.4V579h649.8L644.2,507.4z"/>
</g>
</svg>
