<?xml version="1.0" encoding="utf-8"?>
<!-- Generator: Adobe Illustrator 24.3.0, SVG Export Plug-In . SVG Version: 6.00 Build 0)  -->
<svg version="1.1" id="Layer_1" xmlns="http://www.w3.org/2000/svg" xmlns:xlink="http://www.w3.org/1999/xlink" x="0px" y="0px"
	 viewBox="0 0 445 540.2" style="enable-background:new 0 0 445 540.2;" xml:space="preserve">
<g id="Capa_1">
	<path d="M114.4,0L0.3,27.7c-0.2,0-0.3,0.2-0.3,0.4v511.7c0,0.2,0.2,0.4,0.4,0.4c0.1,0,0.2-0.1,0.3-0.1l135.2-163.4
		c0.1-0.1,0.2-0.2,0.3-0.1L252.4,387c0.1,0,0.2,0,0.2,0l159.2-86.3c0.1,0,0.2-0.1,0.2-0.2l33-133.6c0-0.1,0-0.3-0.1-0.4L319.1,30.6
		c-0.1-0.1-0.1-0.1-0.2-0.1L114.6,0C114.5,0,114.5,0,114.4,0z"/>
</g>
</svg>
