<svg id="Layer_1" data-name="Layer 1" xmlns="http://www.w3.org/2000/svg" width="83.82mm" height="83.82mm" viewBox="0 0 237.6 237.6"><path fill="currentColor" d="M118.8,21.41c31.72,0,35.48.12,48,.69,11.58.53,17.87,2.46,22.05,4.09a36.62,36.62,0,0,1,13.66,8.89,36.62,36.62,0,0,1,8.89,13.66C213,52.92,215,59.21,215.5,70.79c.57,12.53.69,16.29.69,48s-.12,35.48-.69,48c-.53,11.58-2.46,17.87-4.09,22.05a39.38,39.38,0,0,1-22.55,22.55c-4.18,1.63-10.47,3.56-22.05,4.09-12.53.57-16.29.69-48,.69s-35.48-.12-48-.69C59.21,215,52.92,213,48.74,211.41a36.62,36.62,0,0,1-13.66-8.89,36.62,36.62,0,0,1-8.89-13.66c-1.63-4.18-3.56-10.47-4.09-22.05-.57-12.53-.69-16.29-.69-48s.12-35.48.69-48c.53-11.58,2.46-17.87,4.09-22.05a36.62,36.62,0,0,1,8.89-13.66,36.62,36.62,0,0,1,13.66-8.89c4.18-1.63,10.47-3.56,22.05-4.09,12.53-.57,16.29-.69,48-.69M118.8,0c-32.26,0-36.31.14-49,.71S48.54,3.3,41,6.24a58,58,0,0,0-21,13.7A58,58,0,0,0,6.24,41C3.3,48.54,1.29,57.17.71,69.82S0,86.54,0,118.8s.14,36.31.71,49,2.59,21.28,5.53,28.84a58,58,0,0,0,13.7,21,58,58,0,0,0,21,13.7c7.56,2.94,16.19,4.95,28.84,5.53s16.72.71,49,.71,36.31-.14,49-.71,21.28-2.59,28.84-5.53a60.73,60.73,0,0,0,34.74-34.74c2.94-7.56,4.95-16.19,5.53-28.84s.71-16.72.71-49-.14-36.31-.71-49S234.3,48.54,231.36,41a58,58,0,0,0-13.7-21,58,58,0,0,0-21-13.7C189.06,3.3,180.43,1.29,167.78.71S151.06,0,118.8,0Z"/><path fill="currentColor" d="M118.8,57.79a61,61,0,1,0,61,61A61,61,0,0,0,118.8,57.79Zm0,100.61a39.6,39.6,0,1,1,39.6-39.6A39.6,39.6,0,0,1,118.8,158.4Z"/><circle fill="currentColor" cx="182.22" cy="55.38" r="14.26"/></svg>