<svg width="65" height="65" viewBox="0 0 65 65" fill="none" xmlns="http://www.w3.org/2000/svg">
<path d="M60.2159 38.0353L62.2324 35.7026L65 32.5L62.2324 29.2974L60.2159 27.0043L61.2044 24.0785L62.5487 20.0456L58.753 18.1873L56.0249 16.8035L55.7877 13.7196L55.4714 9.52859L51.2804 9.21229L48.1965 9.0146L46.8127 6.24696L44.9544 2.49088L40.9215 3.79562L38.0353 4.78406L35.7026 2.76764L32.5 0L29.2974 2.76764L27.0043 4.78406L24.0785 3.79562L20.0456 2.49088L18.1873 6.24696L16.8035 9.0146L13.7196 9.21229L9.52859 9.52859L9.21229 13.7196L9.0146 16.8035L6.24696 18.1873L2.49088 20.0456L3.79562 24.0785L4.78406 27.0043L2.76764 29.2974L0 32.5L2.76764 35.7026L4.78406 38.0353L3.79562 40.9215L2.49088 44.9544L6.24696 46.8127L9.0146 48.1965L9.21229 51.2804L9.52859 55.4714L13.7196 55.7877L16.8035 56.0249L18.1873 58.753L20.0456 62.5487L24.0785 61.2044L27.0043 60.2159L29.2974 62.2324L32.5 65L35.7026 62.2324L38.0353 60.2159L40.9215 61.2044L44.9544 62.5487L46.8127 58.753L48.1965 56.0249L51.2804 55.7877L55.4714 55.4714L55.7877 51.2804L56.0249 48.1965L58.753 46.8127L62.5487 44.9544L61.2044 40.9215L60.2159 38.0353Z" fill="currentColor"/>
</svg>
