<svg id="Layer_1" data-name="Layer 1" xmlns="http://www.w3.org/2000/svg" width="83.82mm" height="83.82mm" viewBox="0 0 237.6 237.6"><path fill="currentColor" d="M118.8,0A118.8,118.8,0,1,0,237.6,118.8,118.8,118.8,0,0,0,118.8,0Zm54.48,171.35a7.4,7.4,0,0,1-10.18,2.47c-27.9-17.06-63-20.91-104.36-11.46a7.4,7.4,0,1,1-3.3-14.43c45.25-10.35,84.07-5.9,115.39,13.24A7.4,7.4,0,0,1,173.28,171.35ZM187.82,139a9.26,9.26,0,0,1-12.74,3.05c-31.93-19.62-80.61-25.31-118.38-13.84a9.26,9.26,0,1,1-5.38-17.72c43.14-13.1,96.78-6.76,133.45,15.78A9.25,9.25,0,0,1,187.82,139Zm1.25-33.68c-38.29-22.74-101.46-24.83-138-13.74a11.11,11.11,0,1,1-6.45-21.26C86.57,57.58,156.33,60,200.42,86.21a11.11,11.11,0,0,1-11.35,19.11Z"/></svg>