<svg id="Layer_1" data-name="Layer 1" xmlns="http://www.w3.org/2000/svg" width="83.82mm" height="68.12mm" viewBox="0 0 237.6 193.09"><path fill="currentColor" d="M237.6,22.86a97.41,97.41,0,0,1-28,7.67A48.85,48.85,0,0,0,231,3.56a97.35,97.35,0,0,1-31,11.83A48.8,48.8,0,0,0,117,59.85,138.38,138.38,0,0,1,16.54,8.92,48.79,48.79,0,0,0,31.63,74,48.52,48.52,0,0,1,9.55,67.91c0,.2,0,.4,0,.61a48.78,48.78,0,0,0,39.11,47.8,48.75,48.75,0,0,1-22,.83A48.82,48.82,0,0,0,72.17,151a97.84,97.84,0,0,1-60.54,20.86A99.11,99.11,0,0,1,0,171.19a138,138,0,0,0,74.72,21.9c89.67,0,138.7-74.28,138.7-138.69q0-3.18-.14-6.31A99.05,99.05,0,0,0,237.6,22.86Z"/></svg>