<svg id="Layer_1" data-name="Layer 1" xmlns="http://www.w3.org/2000/svg" width="83.82mm" height="58.95mm" viewBox="0 0 237.6 167.11"><g id="Lozenge"><path fill="currentColor" d="M235.23,36.05s-2.32-16.37-9.45-23.58C216.75,3,206.62,3,202,2.4,168.73,0,118.85,0,118.85,0h-.1S68.87,0,35.62,2.4C31,3,20.86,3,11.82,12.47,4.69,19.68,2.38,36.05,2.38,36.05A358.86,358.86,0,0,0,0,74.51v18A358.86,358.86,0,0,0,2.38,131s2.31,16.37,9.44,23.58c9,9.46,20.91,9.17,26.2,10.16,19,1.82,80.78,2.38,80.78,2.38s49.93-.07,83.18-2.47c4.64-.56,14.77-.61,23.8-10.07,7.13-7.21,9.45-23.58,9.45-23.58a360.35,360.35,0,0,0,2.37-38.46v-18A360.35,360.35,0,0,0,235.23,36.05Zm-141,78.33V47.62l64.2,33.49Z"/></g></svg>