<?xml version="1.0" encoding="utf-8"?>
<!-- Generator: Adobe Illustrator 24.1.2, SVG Export Plug-In . SVG Version: 6.00 Build 0)  -->
<svg version="1.1" id="Capa_1" xmlns="http://www.w3.org/2000/svg" xmlns:xlink="http://www.w3.org/1999/xlink" x="0px" y="0px"
	 viewBox="0 0 267.1 97.7" style="enable-background:new 0 0 267.1 97.7;" xml:space="preserve">
<style type="text/css">
	.st0{fill:#211915;}
</style>
<g>
	<g>
		<path class="st0" d="M52,78.7c-0.1,0.9-0.4,1.6-1,2.1c-0.6,0.5-1.3,0.7-2.3,0.7c-0.7,0-1.2-0.2-1.7-0.5s-0.9-0.8-1.2-1.3
			c-0.3-0.6-0.4-1.2-0.4-2V77c0-0.8,0.1-1.5,0.4-2.1c0.3-0.6,0.7-1,1.2-1.4c0.5-0.3,1.1-0.5,1.8-0.5c0.9,0,1.6,0.2,2.2,0.7
			s0.9,1.2,1,2.1h-1.4c-0.1-0.6-0.2-1-0.5-1.3c-0.3-0.3-0.7-0.4-1.2-0.4c-0.6,0-1.1,0.2-1.4,0.7c-0.3,0.5-0.5,1.1-0.5,2v0.7
			c0,0.9,0.2,1.6,0.5,2c0.3,0.5,0.8,0.7,1.4,0.7c0.6,0,1-0.1,1.3-0.4s0.5-0.7,0.5-1.3H52z"/>
		<path class="st0" d="M53,78.3c0-0.6,0.1-1.1,0.4-1.6c0.2-0.5,0.6-0.9,1-1.1c0.4-0.3,0.9-0.4,1.5-0.4c0.8,0,1.5,0.3,2,0.8
			c0.5,0.5,0.8,1.2,0.8,2.1l0,0.3c0,0.6-0.1,1.1-0.3,1.6c-0.2,0.5-0.6,0.8-1,1.1c-0.4,0.3-0.9,0.4-1.5,0.4c-0.9,0-1.6-0.3-2.1-0.9
			C53.3,80.1,53,79.3,53,78.3L53,78.3z M54.4,78.4c0,0.6,0.1,1.1,0.4,1.5c0.3,0.4,0.6,0.5,1.1,0.5c0.5,0,0.8-0.2,1.1-0.5
			s0.4-0.9,0.4-1.6c0-0.6-0.1-1.1-0.4-1.5c-0.3-0.4-0.6-0.5-1.1-0.5c-0.4,0-0.8,0.2-1.1,0.5C54.5,77.2,54.4,77.7,54.4,78.4z"/>
		<path class="st0" d="M61.3,75.3l0,0.7c0.5-0.5,1-0.8,1.8-0.8c1.3,0,1.9,0.7,1.9,2.2v4h-1.4v-4c0-0.4-0.1-0.7-0.3-0.9
			c-0.2-0.2-0.4-0.3-0.8-0.3c-0.6,0-1,0.3-1.2,0.8v4.4H60v-6.1H61.3z"/>
		<path class="st0" d="M70,79.8c0-0.2-0.1-0.4-0.3-0.6c-0.2-0.1-0.5-0.2-1-0.3c-0.5-0.1-0.9-0.2-1.2-0.4c-0.7-0.3-1-0.8-1-1.4
			c0-0.5,0.2-1,0.7-1.3s1-0.5,1.7-0.5c0.7,0,1.3,0.2,1.8,0.5s0.7,0.8,0.7,1.4h-1.4c0-0.3-0.1-0.5-0.3-0.7c-0.2-0.2-0.5-0.3-0.8-0.3
			c-0.3,0-0.5,0.1-0.7,0.2s-0.3,0.3-0.3,0.6c0,0.2,0.1,0.4,0.3,0.5c0.2,0.1,0.5,0.2,1.1,0.4c0.5,0.1,1,0.3,1.3,0.4s0.5,0.4,0.7,0.6
			c0.1,0.2,0.2,0.5,0.2,0.8c0,0.6-0.2,1-0.7,1.3s-1.1,0.5-1.8,0.5c-0.5,0-0.9-0.1-1.3-0.3c-0.4-0.2-0.7-0.4-0.9-0.7
			c-0.2-0.3-0.3-0.7-0.3-1h1.3c0,0.3,0.1,0.6,0.4,0.8s0.5,0.3,0.9,0.3c0.4,0,0.6-0.1,0.8-0.2S70,80,70,79.8z"/>
		<path class="st0" d="M75.3,81.5c-0.9,0-1.6-0.3-2.1-0.8c-0.5-0.5-0.8-1.3-0.8-2.2v-0.2c0-0.6,0.1-1.2,0.4-1.6
			c0.2-0.5,0.6-0.9,1-1.1c0.4-0.3,0.9-0.4,1.4-0.4c0.8,0,1.5,0.3,1.9,0.8s0.7,1.3,0.7,2.3v0.6h-4c0,0.5,0.2,0.9,0.5,1.2
			c0.3,0.3,0.7,0.4,1.1,0.4c0.6,0,1.1-0.3,1.5-0.8l0.7,0.7c-0.2,0.4-0.6,0.7-1,0.9S75.8,81.5,75.3,81.5z M75.1,76.3
			c-0.4,0-0.7,0.1-0.9,0.4c-0.2,0.3-0.4,0.6-0.4,1.1h2.6v-0.1c0-0.5-0.2-0.8-0.4-1C75.8,76.4,75.5,76.3,75.1,76.3z"/>
		<path class="st0" d="M80.4,81.4H79v-8.7h1.4V81.4z"/>
		<path class="st0" d="M83.4,81.4h-1.4v-8.7h1.4V81.4z"/>
		<path class="st0" d="M87.7,81.5c-0.9,0-1.6-0.3-2.1-0.8c-0.5-0.5-0.8-1.3-0.8-2.2v-0.2c0-0.6,0.1-1.2,0.4-1.6
			c0.2-0.5,0.6-0.9,1-1.1c0.4-0.3,0.9-0.4,1.4-0.4c0.8,0,1.5,0.3,1.9,0.8s0.7,1.3,0.7,2.3v0.6h-4c0,0.5,0.2,0.9,0.5,1.2
			c0.3,0.3,0.7,0.4,1.1,0.4c0.6,0,1.1-0.3,1.5-0.8l0.7,0.7c-0.2,0.4-0.6,0.7-1,0.9S88.2,81.5,87.7,81.5z M87.6,76.3
			c-0.4,0-0.7,0.1-0.9,0.4c-0.2,0.3-0.4,0.6-0.4,1.1h2.6v-0.1c0-0.5-0.2-0.8-0.4-1C88.2,76.4,87.9,76.3,87.6,76.3z"/>
		<path class="st0" d="M94.5,76.6c-0.2,0-0.4,0-0.6,0c-0.6,0-1.1,0.2-1.3,0.7v4.2h-1.4v-6.1h1.3l0,0.7c0.3-0.5,0.8-0.8,1.4-0.8
			c0.2,0,0.4,0,0.5,0.1L94.5,76.6z"/>
		<path class="st0" d="M95.5,73.7c0-0.2,0.1-0.4,0.2-0.5S96,73,96.3,73s0.4,0.1,0.6,0.2s0.2,0.3,0.2,0.5c0,0.2-0.1,0.4-0.2,0.5
			s-0.3,0.2-0.6,0.2s-0.4-0.1-0.6-0.2S95.5,73.9,95.5,73.7z M97,81.4h-1.4v-6.1H97V81.4z"/>
		<path class="st0" d="M102.2,81.4c-0.1-0.1-0.1-0.3-0.2-0.6c-0.4,0.5-1,0.7-1.6,0.7c-0.6,0-1.1-0.2-1.5-0.5
			c-0.4-0.4-0.6-0.8-0.6-1.3c0-0.7,0.2-1.2,0.7-1.5s1.2-0.5,2.1-0.5h0.8v-0.4c0-0.3-0.1-0.6-0.3-0.8s-0.4-0.3-0.8-0.3
			c-0.3,0-0.6,0.1-0.8,0.2c-0.2,0.2-0.3,0.4-0.3,0.6h-1.4c0-0.3,0.1-0.7,0.3-0.9c0.2-0.3,0.5-0.5,0.9-0.7s0.8-0.2,1.3-0.2
			c0.7,0,1.3,0.2,1.7,0.5c0.4,0.4,0.6,0.9,0.7,1.5V80c0,0.6,0.1,1,0.2,1.3v0.1H102.2z M100.7,80.4c0.3,0,0.5-0.1,0.8-0.2
			c0.2-0.1,0.4-0.3,0.5-0.5v-1.2h-0.7c-0.5,0-0.9,0.1-1.1,0.3c-0.3,0.2-0.4,0.4-0.4,0.8c0,0.3,0.1,0.5,0.3,0.6
			C100.2,80.4,100.4,80.4,100.7,80.4z"/>
		<path class="st0" d="M107.7,78.3c0-0.9,0.2-1.7,0.7-2.3c0.4-0.6,1-0.9,1.8-0.9c0.6,0,1.2,0.2,1.6,0.7v-3.1h1.4v8.7h-1.2l-0.1-0.6
			c-0.4,0.5-1,0.7-1.6,0.7c-0.7,0-1.3-0.3-1.7-0.9S107.7,79.3,107.7,78.3z M109,78.4c0,0.6,0.1,1.1,0.4,1.5c0.2,0.3,0.6,0.5,1,0.5
			c0.6,0,1-0.3,1.2-0.8v-2.6c-0.3-0.5-0.7-0.7-1.2-0.7c-0.4,0-0.8,0.2-1,0.5C109.1,77.2,109,77.7,109,78.4z"/>
		<path class="st0" d="M114.8,75.6l-0.7-0.4c0.3-0.5,0.5-1,0.5-1.6v-0.9h1.2v0.8c0,0.4-0.1,0.8-0.3,1.2S115.1,75.4,114.8,75.6z"/>
		<path class="st0" d="M122.1,77.7h-3.4v2.5h4v1.1h-5.4v-8.2h5.4v1.2h-3.9v2.3h3.4V77.7z"/>
		<path class="st0" d="M123.5,78.3c0-0.9,0.2-1.7,0.7-2.3c0.4-0.6,1-0.9,1.8-0.9c0.6,0,1.2,0.2,1.6,0.7v-3.1h1.4v8.7h-1.2l-0.1-0.6
			c-0.4,0.5-1,0.7-1.6,0.7c-0.7,0-1.3-0.3-1.7-0.9C123.8,80.1,123.5,79.3,123.5,78.3z M124.9,78.4c0,0.6,0.1,1.1,0.4,1.5
			c0.2,0.3,0.6,0.5,1,0.5c0.6,0,1-0.3,1.2-0.8v-2.6c-0.3-0.5-0.7-0.7-1.2-0.7c-0.4,0-0.8,0.2-1,0.5C125,77.2,124.9,77.7,124.9,78.4z
			"/>
		<path class="st0" d="M134.2,80.8c-0.4,0.5-1,0.7-1.7,0.7c-0.7,0-1.2-0.2-1.5-0.6s-0.5-1-0.5-1.7v-4h1.4v4c0,0.8,0.3,1.2,1,1.2
			c0.7,0,1.1-0.2,1.4-0.7v-4.4h1.4v6.1h-1.3L134.2,80.8z"/>
		<path class="st0" d="M139.5,80.4c0.3,0,0.6-0.1,0.9-0.3s0.3-0.4,0.4-0.7h1.3c0,0.4-0.1,0.7-0.4,1.1c-0.2,0.3-0.5,0.6-0.9,0.8
			c-0.4,0.2-0.8,0.3-1.2,0.3c-0.9,0-1.5-0.3-2-0.8c-0.5-0.6-0.8-1.3-0.8-2.3v-0.1c0-0.9,0.2-1.7,0.7-2.2c0.5-0.6,1.2-0.8,2-0.8
			c0.7,0,1.3,0.2,1.8,0.6c0.5,0.4,0.7,1,0.7,1.7h-1.3c0-0.4-0.1-0.6-0.4-0.9c-0.2-0.2-0.5-0.3-0.9-0.3c-0.4,0-0.8,0.2-1,0.5
			c-0.2,0.3-0.4,0.8-0.4,1.5v0.2c0,0.7,0.1,1.2,0.4,1.5C138.7,80.3,139,80.4,139.5,80.4z"/>
		<path class="st0" d="M146.8,81.4c-0.1-0.1-0.1-0.3-0.2-0.6c-0.4,0.5-1,0.7-1.6,0.7c-0.6,0-1.1-0.2-1.5-0.5
			c-0.4-0.4-0.6-0.8-0.6-1.3c0-0.7,0.2-1.2,0.7-1.5s1.2-0.5,2.1-0.5h0.8v-0.4c0-0.3-0.1-0.6-0.3-0.8s-0.4-0.3-0.8-0.3
			c-0.3,0-0.6,0.1-0.8,0.2c-0.2,0.2-0.3,0.4-0.3,0.6h-1.4c0-0.3,0.1-0.7,0.3-0.9c0.2-0.3,0.5-0.5,0.9-0.7s0.8-0.2,1.3-0.2
			c0.7,0,1.3,0.2,1.7,0.5c0.4,0.4,0.6,0.9,0.7,1.5V80c0,0.6,0.1,1,0.2,1.3v0.1H146.8z M145.3,80.4c0.3,0,0.5-0.1,0.8-0.2
			c0.2-0.1,0.4-0.3,0.5-0.5v-1.2h-0.7c-0.5,0-0.9,0.1-1.1,0.3c-0.3,0.2-0.4,0.4-0.4,0.8c0,0.3,0.1,0.5,0.3,0.6
			C144.8,80.4,145,80.4,145.3,80.4z"/>
		<path class="st0" d="M152,80.4c0.3,0,0.6-0.1,0.9-0.3s0.3-0.4,0.4-0.7h1.3c0,0.4-0.1,0.7-0.4,1.1c-0.2,0.3-0.5,0.6-0.9,0.8
			c-0.4,0.2-0.8,0.3-1.2,0.3c-0.9,0-1.5-0.3-2-0.8c-0.5-0.6-0.8-1.3-0.8-2.3v-0.1c0-0.9,0.2-1.7,0.7-2.2c0.5-0.6,1.2-0.8,2-0.8
			c0.7,0,1.3,0.2,1.8,0.6c0.5,0.4,0.7,1,0.7,1.7h-1.3c0-0.4-0.1-0.6-0.4-0.9c-0.2-0.2-0.5-0.3-0.9-0.3c-0.4,0-0.8,0.2-1,0.5
			c-0.2,0.3-0.4,0.8-0.4,1.5v0.2c0,0.7,0.1,1.2,0.4,1.5C151.2,80.3,151.6,80.4,152,80.4z"/>
		<path class="st0" d="M155.7,73.7c0-0.2,0.1-0.4,0.2-0.5s0.3-0.2,0.6-0.2s0.4,0.1,0.6,0.2c0.1,0.1,0.2,0.3,0.2,0.5
			c0,0.2-0.1,0.4-0.2,0.5c-0.1,0.1-0.3,0.2-0.6,0.2s-0.4-0.1-0.6-0.2S155.7,73.9,155.7,73.7z M157.1,81.4h-1.4v-6.1h1.4V81.4z"/>
		<path class="st0" d="M158.5,78.3c0-0.6,0.1-1.1,0.4-1.6c0.2-0.5,0.6-0.9,1-1.1c0.4-0.3,0.9-0.4,1.5-0.4c0.8,0,1.5,0.3,2,0.8
			c0.5,0.5,0.8,1.2,0.8,2.1l0,0.3c0,0.6-0.1,1.1-0.3,1.6c-0.2,0.5-0.6,0.8-1,1.1c-0.4,0.3-0.9,0.4-1.5,0.4c-0.9,0-1.6-0.3-2.1-0.9
			C158.7,80.1,158.5,79.3,158.5,78.3L158.5,78.3z M159.8,78.4c0,0.6,0.1,1.1,0.4,1.5c0.3,0.4,0.6,0.5,1.1,0.5c0.5,0,0.8-0.2,1.1-0.5
			c0.3-0.4,0.4-0.9,0.4-1.6c0-0.6-0.1-1.1-0.4-1.5s-0.6-0.5-1.1-0.5c-0.4,0-0.8,0.2-1.1,0.5C160,77.2,159.8,77.7,159.8,78.4z
			 M161.7,72.7h1.6l-1.6,1.7l-1.1,0L161.7,72.7z"/>
		<path class="st0" d="M165.6,83.3l-0.7-0.4c0.2-0.3,0.4-0.6,0.5-0.9c0.1-0.3,0.1-0.5,0.1-0.8v-1.1h1.2l0,1c0,0.4-0.1,0.8-0.3,1.2
			C166.2,82.7,165.9,83,165.6,83.3z"/>
		<path class="st0" d="M52,92.7c-0.1,0.9-0.4,1.6-1,2.1c-0.6,0.5-1.3,0.7-2.3,0.7c-0.7,0-1.2-0.2-1.7-0.5s-0.9-0.8-1.2-1.3
			c-0.3-0.6-0.4-1.2-0.4-2v-0.8c0-0.8,0.1-1.5,0.4-2.1c0.3-0.6,0.7-1,1.2-1.4c0.5-0.3,1.1-0.5,1.8-0.5c0.9,0,1.6,0.2,2.2,0.7
			s0.9,1.2,1,2.1h-1.4c-0.1-0.6-0.2-1-0.5-1.3c-0.3-0.3-0.7-0.4-1.2-0.4c-0.6,0-1.1,0.2-1.4,0.7c-0.3,0.5-0.5,1.1-0.5,2v0.7
			c0,0.9,0.2,1.6,0.5,2c0.3,0.5,0.8,0.7,1.4,0.7c0.6,0,1-0.1,1.3-0.4s0.5-0.7,0.5-1.3H52z"/>
		<path class="st0" d="M57,94.7c-0.4,0.5-1,0.7-1.7,0.7c-0.7,0-1.2-0.2-1.5-0.6c-0.3-0.4-0.5-1-0.5-1.7v-4h1.4v4
			c0,0.8,0.3,1.2,1,1.2c0.7,0,1.1-0.2,1.4-0.7v-4.4h1.4v6.1H57L57,94.7z"/>
		<path class="st0" d="M61.3,95.3h-1.4v-8.7h1.4V95.3z"/>
		<path class="st0" d="M64.6,87.7v1.5h1.1v1h-1.1v3.4c0,0.2,0,0.4,0.1,0.5c0.1,0.1,0.3,0.2,0.5,0.2c0.2,0,0.3,0,0.5-0.1v1.1
			c-0.3,0.1-0.6,0.1-0.9,0.1c-1.1,0-1.6-0.6-1.6-1.8v-3.5h-1v-1h1v-1.5H64.6z"/>
		<path class="st0" d="M70.5,94.7c-0.4,0.5-1,0.7-1.7,0.7c-0.7,0-1.2-0.2-1.5-0.6s-0.5-1-0.5-1.7v-4h1.4v4c0,0.8,0.3,1.2,1,1.2
			c0.7,0,1.1-0.2,1.4-0.7v-4.4h1.4v6.1h-1.3L70.5,94.7z"/>
		<path class="st0" d="M76.6,90.5c-0.2,0-0.4,0-0.6,0c-0.6,0-1.1,0.2-1.3,0.7v4.2h-1.4v-6.1h1.3l0,0.7c0.3-0.5,0.8-0.8,1.4-0.8
			c0.2,0,0.4,0,0.5,0.1L76.6,90.5z"/>
		<path class="st0" d="M81.2,95.3c-0.1-0.1-0.1-0.3-0.2-0.6c-0.4,0.5-1,0.7-1.6,0.7c-0.6,0-1.1-0.2-1.5-0.5
			c-0.4-0.4-0.6-0.8-0.6-1.3c0-0.7,0.2-1.2,0.7-1.5s1.2-0.5,2.1-0.5H81v-0.4c0-0.3-0.1-0.6-0.3-0.8s-0.4-0.3-0.8-0.3
			c-0.3,0-0.6,0.1-0.8,0.2c-0.2,0.2-0.3,0.4-0.3,0.6h-1.4c0-0.3,0.1-0.7,0.3-0.9c0.2-0.3,0.5-0.5,0.9-0.7s0.8-0.2,1.3-0.2
			c0.7,0,1.3,0.2,1.7,0.5c0.4,0.4,0.6,0.9,0.7,1.5v2.8c0,0.6,0.1,1,0.2,1.3v0.1H81.2z M79.7,94.4c0.3,0,0.5-0.1,0.8-0.2
			c0.2-0.1,0.4-0.3,0.5-0.5v-1.2h-0.7c-0.5,0-0.9,0.1-1.1,0.3c-0.3,0.2-0.4,0.4-0.4,0.8c0,0.3,0.1,0.5,0.3,0.6
			C79.2,94.3,79.4,94.4,79.7,94.4z"/>
		<path class="st0" d="M86.9,87.6c0-0.2,0.1-0.4,0.2-0.5s0.3-0.2,0.6-0.2s0.4,0.1,0.6,0.2s0.2,0.3,0.2,0.5c0,0.2-0.1,0.4-0.2,0.5
			s-0.3,0.2-0.6,0.2s-0.4-0.1-0.6-0.2S86.9,87.8,86.9,87.6z M88.3,95.3H87v-6.1h1.4V95.3z"/>
		<path class="st0" d="M97.9,91.7h-3.4v2.5h4v1.1H93v-8.2h5.4v1.2h-3.9v2.3h3.4V91.7z"/>
		<path class="st0" d="M103,93.7c0-0.2-0.1-0.4-0.3-0.6c-0.2-0.1-0.5-0.2-1-0.3c-0.5-0.1-0.9-0.2-1.2-0.4c-0.7-0.3-1-0.8-1-1.4
			c0-0.5,0.2-1,0.7-1.3s1-0.5,1.7-0.5c0.7,0,1.3,0.2,1.8,0.5s0.7,0.8,0.7,1.4h-1.4c0-0.3-0.1-0.5-0.3-0.7c-0.2-0.2-0.5-0.3-0.8-0.3
			c-0.3,0-0.5,0.1-0.7,0.2s-0.3,0.3-0.3,0.6c0,0.2,0.1,0.4,0.3,0.5c0.2,0.1,0.5,0.2,1.1,0.4c0.5,0.1,1,0.3,1.3,0.4s0.5,0.4,0.7,0.6
			c0.1,0.2,0.2,0.5,0.2,0.8c0,0.6-0.2,1-0.7,1.3s-1.1,0.5-1.8,0.5c-0.5,0-0.9-0.1-1.3-0.3c-0.4-0.2-0.7-0.4-0.9-0.7
			c-0.2-0.3-0.3-0.7-0.3-1h1.3c0,0.3,0.1,0.6,0.4,0.8s0.5,0.3,0.9,0.3c0.4,0,0.6-0.1,0.8-0.2S103,93.9,103,93.7z"/>
		<path class="st0" d="M111,92.3c0,0.9-0.2,1.7-0.6,2.3s-1,0.8-1.7,0.8c-0.7,0-1.2-0.2-1.6-0.7v2.9h-1.4v-8.5h1.3l0.1,0.6
			c0.4-0.5,1-0.7,1.6-0.7c0.7,0,1.3,0.3,1.8,0.8S111,91.3,111,92.3L111,92.3z M109.6,92.2c0-0.6-0.1-1.1-0.4-1.5
			c-0.2-0.4-0.6-0.5-1-0.5c-0.6,0-1,0.2-1.2,0.7v2.7c0.2,0.5,0.7,0.7,1.2,0.7c0.4,0,0.8-0.2,1-0.5C109.5,93.5,109.6,92.9,109.6,92.2
			z"/>
		<path class="st0" d="M112,92.2c0-0.6,0.1-1.1,0.4-1.6c0.2-0.5,0.6-0.9,1-1.1c0.4-0.3,0.9-0.4,1.5-0.4c0.8,0,1.5,0.3,2,0.8
			c0.5,0.5,0.8,1.2,0.8,2.1l0,0.3c0,0.6-0.1,1.1-0.3,1.6c-0.2,0.5-0.6,0.8-1,1.1c-0.4,0.3-0.9,0.4-1.5,0.4c-0.9,0-1.6-0.3-2.1-0.9
			C112.3,94,112,93.3,112,92.2L112,92.2z M113.4,92.3c0,0.6,0.1,1.1,0.4,1.5c0.3,0.4,0.6,0.5,1.1,0.5c0.5,0,0.8-0.2,1.1-0.5
			s0.4-0.9,0.4-1.6c0-0.6-0.1-1.1-0.4-1.5c-0.3-0.4-0.6-0.5-1.1-0.5c-0.4,0-0.8,0.2-1.1,0.5C113.5,91.1,113.4,91.6,113.4,92.3z"/>
		<path class="st0" d="M122.2,90.5c-0.2,0-0.4,0-0.6,0c-0.6,0-1.1,0.2-1.3,0.7v4.2H119v-6.1h1.3l0,0.7c0.3-0.5,0.8-0.8,1.4-0.8
			c0.2,0,0.4,0,0.5,0.1L122.2,90.5z"/>
		<path class="st0" d="M124.8,87.7v1.5h1.1v1h-1.1v3.4c0,0.2,0,0.4,0.1,0.5c0.1,0.1,0.3,0.2,0.5,0.2c0.2,0,0.3,0,0.5-0.1v1.1
			c-0.3,0.1-0.6,0.1-0.9,0.1c-1.1,0-1.6-0.6-1.6-1.8v-3.5h-1v-1h1v-1.5H124.8z"/>
	</g>
	<g>
		<path class="st0" d="M229.9,38.7L229.9,38.7l-1,2.8h1.9L229.9,38.7z M228.3,43.3l-0.6,1.5h-2.5l3.4-8.9h2.5l3.3,8.9H232l-0.6-1.5
			H228.3z"/>
		<path class="st0" d="M246.7,36v5c0,1.1,0,2.3-0.9,3.1c-0.7,0.7-1.9,1-2.9,1c-1,0-2.2-0.3-2.9-1c-0.9-0.9-0.9-2-0.9-3.1v-5h2.3v4.7
			c0,1.2,0.1,2.4,1.6,2.4c1.5,0,1.6-1.3,1.6-2.4V36H246.7z"/>
		<polygon class="st0" points="248.1,36 250.4,36 254.7,41.4 254.7,41.4 254.7,36 257,36 257,44.9 254.7,44.9 250.5,39.4 
			250.4,39.4 250.4,44.9 248.1,44.9 		"/>
		<path class="st0" d="M243.5,54.4c0.6-1.4,2.5-3.5,3.9-3.6C247.1,52.2,245.4,53.9,243.5,54.4 M249.1,57.2c0,0.1-0.2,0.2-0.2,0.1
			C248.9,57.2,249.1,57.1,249.1,57.2 M247.5,48.3c-1.6,0.2-3.1,1.2-4.2,2.3c-1.2,1.1-2.2,2.5-2.8,4c-0.5,1.4-0.6,3,0.1,4.3
			c0.6,1.1,1.6,1.8,2.9,1.8c2.3,0,4.9-1.4,4.6-1.8c-0.1-0.1-0.5,0.1-0.4,0c0.4-0.2,1.1-0.5,1-0.7c0-0.1-0.3-0.1-0.4,0
			c0.1-0.1,0.2-0.3,0.1-0.4c0,0,0.4-0.3,0.6-0.5c0.1-0.1,0.2-0.2,0.3-0.3c0.1-0.1,0.3-0.4,0.2-0.5c-0.1-0.2-1.2,0.4-1.4,0.5
			c-1,0.5-2.1,1.2-3.1,1.5c-0.7,0.2-1.8,0.2-2.2-0.5c-0.2-0.4-0.4-1.1-0.1-1.5c0.4-0.5,0.9-0.5,1.5-0.6c2.5-0.4,4.8-2.1,5.8-4.5
			c0.3-0.7,0.5-1.5,0.2-2.3C249.7,48.4,248.5,48.1,247.5,48.3"/>
		<path class="st0" d="M261.1,61.1c0-0.1,0.2-0.1,0.3-0.2c0.2-0.1,0.3-0.2,0.4-0.4c0-0.1,0-0.4-0.1-0.5c-0.1-0.1-0.2,0-0.2,0
			c0.1-0.1,0.2-0.2,0.2-0.2c0-0.1,0.1-0.2,0-0.4c0-0.1-0.1-0.1-0.3,0.1c-0.2,0.2-0.6,0.3-0.9,0.1c-0.5-0.3-0.5-1.2-0.5-1.6
			c0.1-1,0.4-2,0.8-3c0.3-0.7,0.5-1.3,0.7-2c0.1-0.2,0.1-0.3,0-0.5c-0.1-0.1-0.2-0.2-0.2-0.1c-0.1,0.1-0.1,0.2-0.1,0.3
			c0,0.1-0.2,0.2-0.2,0.1c0-0.1,0-0.2,0.1-0.2c0-0.1,0.1-0.2,0.1-0.2c0.1-0.6-0.7-1.2-1.3-1c-0.3,0.2-0.5,0.4-0.7,0.8
			c-0.5,1-0.8,2.1-1.3,3.2c-0.4,0.8-0.8,1.7-1.5,2.3c-0.5,0.4-1.1,0.5-1.7,0c-0.8-0.7-0.5-2.5-0.1-3.6c0.2-0.7,0.5-1.5,0.8-2.2
			c0.3-0.7,0.6-1.3,0.5-2c-0.1-0.7-0.7-1.4-1.4-1.5c-0.1,0-0.1,0-0.2,0c-0.1,0-0.1,0.1-0.1,0.2c-0.2,0.5-0.4,1.1-0.6,1.6
			c-0.2-0.1-0.1-0.4,0-0.6c0.1-0.2,0.3-0.4,0.2-0.6c-0.1,0-0.1,0.1-0.2,0.1c0.1-0.2,0.2-0.4,0.2-0.6c0-0.1,0-0.1,0-0.2
			c0-0.1-0.2-0.1-0.2,0c-0.1,0-0.1,0.1-0.1,0.2c-0.6,1.2-1.1,2.5-1.4,3.9c-0.5,2.3-0.9,5.3,0.6,7.3c0.8,1,2.3,1.6,3.5,1.2
			c0.9-0.3,1.7-1,2.3-1.7c0,1.2,0.8,2.1,1.3,2.3c0.6,0.3,1.4,0.3,1.9,0c0.1-0.1,0.2-0.2,0.1-0.2c-0.1-0.1-0.2,0-0.2,0
			C261.3,61.2,261.1,61.2,261.1,61.1"/>
		<path class="st0" d="M237.9,26.6c0,2.1,1.5,3.6,3.4,3.6c1.9,0,3.4-1.5,3.4-3.6c0-1.7-1.5-3.2-3.4-3.2
			C239.4,23.4,237.9,24.9,237.9,26.6 M248,26.6c0,3.9-2.8,6.7-6.7,6.7c-3.9,0-6.7-2.8-6.7-6.7c0-3.7,3.2-6.3,6.7-6.3
			C244.8,20.4,248,22.9,248,26.6"/>
		<polygon class="st0" points="254.3,32.9 251.1,32.9 251.1,23.4 248.5,23.4 248.5,20.8 256.9,20.8 256.9,23.4 254.3,23.4 		"/>
		<path class="st0" d="M265.1,23.9c-0.6-0.5-1.3-0.8-2.1-0.8c-0.6,0-1.4,0.3-1.4,1c0,0.7,0.9,1,1.4,1.2l0.8,0.2c1.7,0.5,3,1.4,3,3.3
			c0,1.2-0.3,2.4-1.3,3.3c-0.9,0.8-2.2,1.1-3.4,1.1c-1.5,0-3-0.5-4.3-1.4l1.4-2.5c0.8,0.7,1.7,1.3,2.8,1.3c0.7,0,1.5-0.4,1.5-1.2
			c0-0.9-1.2-1.2-1.9-1.4c-2-0.6-3.3-1.1-3.3-3.4c0-2.5,1.8-4.1,4.2-4.1c1.2,0,2.7,0.4,3.8,1L265.1,23.9z"/>
		<path class="st0" d="M262.5,38.7L262.5,38.7l1,2.8h-1.9L262.5,38.7z M261.2,36l-3.4,8.9h2.4l0.6-1.5h3.2l0.6,1.5h2.5l-3.3-8.9
			H261.2z"/>
		<path class="st0" d="M241.3,50.1c0.1-0.2,0.4-0.5,0.3-0.6c-0.2-0.1-2.4,3.1-2.6,2.9c-0.1-0.1,0.2-0.5,0.5-0.6c0.1-0.1,0-0.2,0-0.3
			c0,0.1,0,0.2,0.1,0.2c0.2,0,0.2-0.3,0.1-0.5c0,0,0.1,0.1,0.1,0.1c0.1,0,0.1,0,0.1-0.1c0.2-0.3,0.4-0.5,0.5-0.8
			c0-0.1,0.1-0.1,0.1-0.2c0-0.1,0.1-0.1,0.2-0.2c0.3-0.5,0.7-0.9,1.1-1.4c0.1-0.2,0-0.2,0-0.1c-0.1,0.1-0.1,0-0.1-0.1
			c0.2-0.2,0.4-0.5,0.3-0.6c-0.1-0.1-1.2,1.2-1.1,1.3c0.1,0,0.1,0,0.1-0.1c0,0,0-0.1,0.1-0.1c0,0,0.1,0,0.1,0c0,0,0,0.1,0,0.1
			c0,0,0,0.1,0,0.1c0,0.1-0.1,0.1-0.1,0.2c-0.1,0.1-0.2,0.2-0.3,0.3c0,0-0.1,0-0.1,0.1c0,0,0,0-0.1,0c-0.1,0,0-0.1,0.1-0.2
			c0-0.1,0.1-0.1,0.1-0.2c0,0,0.1-0.1,0.1-0.1c0,0,0-0.1-0.1-0.1c0,0-0.1,0.1-0.1,0.1c-0.1,0.2-0.3,0.3-0.4,0.5
			c-0.2,0.2-0.3,0.3-0.5,0.5c-0.3,0.3-0.6,0.7-0.9,1.1c0,0-0.1,0.1-0.1,0.1c-0.5,0.5-1,1.1-1.4,1.6c-0.9,1.1-1.9,2.2-2.8,3.3
			c-0.3,0.3-0.5,0.6-0.8,0.9c-0.1,0.1-0.7,0.9-1.1,0.7c-0.8-0.5,1.1-3.2,1.2-5.2c0.1-0.8,0-1.7-0.5-2.3c-0.5-0.6-1.5-1-2.3-1
			c0.2,0.1,0.1,0.5,0.1,0.7c0,0.5-0.1,1.1-0.2,1.6c-0.2,0.9-0.4,1.7-0.7,2.5c-0.5,1.5-0.7,3.2-0.1,4.7c0.3,0.8,1,1.6,1.9,1.7
			c1.1,0.1,2-0.7,2.7-1.5c1.1-1.2,2.1-2.6,3-4c0.2-0.3,0.4-0.8,0.5-1c0-0.1,0-0.3-0.1-0.1c-0.4,0.4-1,1.3-1.1,1.2
			c-0.1-0.1,0.3-0.4,0.5-0.6c0.7-0.8,1.3-1.7,1.9-2.4C240.3,51.7,240.8,50.9,241.3,50.1"/>
		<polygon class="st0" points="231.4,32.9 228.3,32.9 228.3,23.4 225.7,23.4 225.7,20.8 234,20.8 234,23.4 231.4,23.4 		"/>
	</g>
	<path class="st0" d="M183.9,55.9l2.7-6.6l2.7,6.6H183.9z M186.2,44.6l-7,17h2.4l1.4-3.4h7.2l1.4,3.4h2.4l-7-17H186.2z M163.4,44.6
		h-0.7v17h2.3V49.7l10.7,12.1h0.7v-17h-2.3v11.9L163.4,44.6z M104.3,44.6h-0.7v17h2.3V49.7l10.7,12.1h0.7v-17H115v11.9L104.3,44.6z
		 M99.2,44.8H88.8v16.8h10.8v-2.2h-8.4v-3.7h7.2v-2.2h-7.2V47h8.1V44.8z M63,55.9l2.7-6.6l2.7,6.6H63z M65.3,44.6l-7,17h2.4l1.4-3.4
		h7.2l1.4,3.4h2.4l-7-17H65.3z M5,61.9l20.1,20.1c1.6,0,3.2-0.2,4.9-0.5L7.7,59.3L5,61.9z M19.8,81.5L2.7,64.3L0,67l8,8
		C11.4,78.4,15.5,80.5,19.8,81.5 M5.7,12.6C4.3,14.7,4,14.8,4,14.8s1.4,0.4,2.2-0.8C7.7,11.8,8,11.8,8,11.8S6.6,11.3,5.7,12.6
		 M13,5.1c0-0.4-0.3-0.8-0.8-0.8c-0.4,0-0.8,0.3-0.8,0.8c0,0.4,0.3,0.8,0.8,0.8C12.7,5.9,13,5.5,13,5.1 M22.2,33.2h1.7v-1.4h-1.7V30
		h-1.4v1.7H19v1.4h1.7v1.7h0.5v2.2h0.5v-2.2h0.5V33.2z M30.3,41.9l-7,7l-1.6-1.6c-2.7-2.7-3.5-6.1-3.8-10.3c-0.1-2-0.2-4.1-0.2-6.5
		v-4.2h7.4h0v4.2C25.1,34.9,26.7,38.4,30.3,41.9 M26.4,22.9l-0.8,2H7.9l-0.8-2c0.6,0.2,1.2,0.4,1.8,0.4c1.6,0,3.1-0.8,3.9-2.1
		c0.8,1.3,2.3,2.1,3.9,2.1c1.6,0,3.1-0.8,3.9-2.1c0.8,1.3,2.3,2.1,3.9,2.1C25.3,23.2,25.9,23.1,26.4,22.9 M24.5,16.6
		c-0.9,1.7-1,3.6-0.4,5.3c-1.2-0.2-2.2-1-2.6-2.1c0.2-0.2,0.4-0.5,0.4-0.9c0-0.7-0.5-1.2-1.2-1.2c-0.7,0-1.2,0.5-1.2,1.2
		c0,0.3,0.1,0.7,0.4,0.9c-0.5,1.3-1.7,2.1-3.1,2.1c-1.4,0-2.6-0.9-3.1-2.1c0.2-0.2,0.4-0.5,0.4-0.9c0-0.7-0.5-1.2-1.2-1.2
		c-0.7,0-1.2,0.5-1.2,1.2c0,0.3,0.2,0.7,0.4,0.9c-0.5,1.3-1.7,2.2-3.1,2.1c-0.2,0-0.3,0-0.5,0c0-0.6,0.1-2,0.6-3.5
		c1.3-3.4,5.6-5.1,7.6-6.5c0.5-0.4,1.7-1.5,1.6-2.9c0-1.7-1.4-3-3-3c-1.6,0-3.8,1.8-4.9,2.8C10.1,8.3,9.8,8,9.3,7.9
		c1-1.7,1.3-3.3,1.6-5c0.7,0.3,1.4,0.4,2.1,0.4c1.3,0,2.4-0.4,3.3-1.1c1.1,1.1,2.7,1.8,4.4,1.8c0.1,0,0.3,0,0.4,0
		c0.2,1.7,1,3.3,2.2,4.3c-0.7,0.6-1.3,1.3-1.9,2.2c-1.3,1.9-2.6,2.8-3.5,3.3c-0.8,0.4-1.4,0.5-1.6,0.6c0.1,0.5,0.2,0.9,0.2,1.4
		c0,0.9-0.2,1.7-0.5,2.5l1.3,0.5c0.4-0.9,0.6-2,0.6-3c0-0.1,0-0.2,0-0.4c1.2-0.5,3.1-1.6,4.8-4.1c1.4-2.1,3-2.9,4.3-3.2
		c-0.3,0.7-0.5,1.4-0.5,2.2c-0.1,1.3,0.1,2.5,0.6,3.6C25.9,14.5,25.1,15.4,24.5,16.6 M8.4,26.3h7.9v4.2c0,1.2,0,3.8,0.2,6.6
		c0.2,2.7,0.6,5.3,1.6,7.6l-3.8,1.9V31.7H5.8L8.4,26.3z M5.7,33.2h7.1v14.2l-4.2,2.1c0.1-2.3,0.1-5.7-0.3-8.3
		C7.8,38.2,6.5,34.9,5.7,33.2 M23.3,51l9.1-9.1l-0.6-0.6c-3.7-3.4-5.2-6.7-5.2-10.8v-4.4l2.5-6.1c0.5-0.2,0.8-0.6,0.8-1.1
		c0-0.7-0.5-1.2-1.2-1.2c-0.7,0-1.2,0.5-1.2,1.2c0,0.3,0.1,0.6,0.3,0.8c-0.4,1-1.2,1.8-2.3,2.1c-0.5-1.5-0.5-3.1,0.2-4.6
		c0.7-1.3,1.8-2.3,3.1-2.8c-0.9-1.1-1.3-2.5-1.2-4c0.1-1.5,0.8-2.8,1.8-3.8c-0.7-0.1-2.8-0.5-5,0.9c-1.2-0.9-2-2.4-2-4.1
		c0-0.4,0-0.7,0.1-1.1c-0.6,0.2-1.2,0.4-1.8,0.4c-1.9,0-3.5-1.1-4.3-2.6c-0.7,1.1-2,1.9-3.4,1.9c-1.4,0-2.7-0.7-3.4-1.9
		C9.9,3.4,8.9,7.4,6,9.5l0.8,1c0.5-0.4,0.9-0.8,1.4-1.2c0.2-0.2,0.4-0.3,0.6-0.3c0.4,0,0.7,0.3,0.7,0.7c0,0.2-0.1,0.3-0.1,0.4
		C9.1,10.6,9,11,9,11.5c0,0.5,0.1,0.9,0.3,1.3l1.2-0.6c-0.5-1.2,0.4-2.3,1.9-3.4c1.1-0.8,2.2-1.5,3-1.5C16.2,7.3,17,8.1,17,9
		c0,1-1,1.9-1.8,2.3c-2.9,1.9-5.9,3.2-7.3,6.5c-0.6,1.4-0.8,2.8-0.8,3.6c-0.8-0.5-1.2-1.3-1.3-1.7C5.9,19.4,6,19.2,6,18.9
		c0-0.7-0.5-1.2-1.2-1.2c-0.7,0-1.2,0.5-1.2,1.2c0,0.5,0.3,1,0.8,1.1l2.5,6.1l-3.1,6.4c0,0,2.4,4.8,3.1,9c0.7,4.1,0.1,10.5,0.1,10.5
		L18.8,46c0.5,0.8,1.1,1.6,1.9,2.4C22.6,50.3,23.3,51,23.3,51 M25.8,57.3l-8-8l-2.7,2.7l17.2,17.2C31.3,64.7,29.1,60.6,25.8,57.3
		 M32.4,79.2c0.3-1.6,0.5-3.2,0.5-4.9L12.7,54.3L10,56.9L32.4,79.2z M51.9,37.5c3,0,4.9-0.8,6.7-2.5v-5.8h-7.1v2.2h4.8v2.5
		c-1.1,0.9-2.6,1.3-4.4,1.3c-3.7,0-6.3-2.7-6.3-6.3c0-3.6,2.6-6.3,6-6.3c2.9,0,4.1,1.3,4.9,2.3l1.7-1.6c-1.5-1.8-3.5-2.9-6.6-2.9
		c-4.8,0-8.5,3.8-8.5,8.6C43.1,33.8,46.9,37.5,51.9,37.5 M52.5,61.8l7-17h-2.6l-4.8,12l-4.8-12h-2.5l7,17H52.5z M62.7,37.3h10.8
		v-2.2h-8.4v-3.7h7.2v-2.2h-7.2v-6.5h8.1v-2.2H62.7V37.3z M78.3,44.8h-2.4v16.8h9.8v-2.2h-7.4V44.8z M90.4,37.5h0.7v-17h-2.3v11.9
		L78.3,20.3h-0.7v17h2.3V25.4L90.4,37.5z M95.9,37.3h10.8v-2.2h-8.4v-3.7h7.2v-2.2h-7.2v-6.5h8.1v-2.2H95.9V37.3z M115,30.5h-2v-7.8
		h2c3.1,0,4.7,1.3,4.7,3.9C119.7,29.2,118.2,30.5,115,30.5 M122.2,37.3l-3.6-5.3c2.3-1,3.5-2.8,3.5-5.4c0-3.8-2.6-6.1-7-6.1h-4.4
		v16.8h2.4v-4.6h2.1c0.4,0,0.8,0,1.1-0.1l3.1,4.7H122.2z M129.1,44.6c-4.8,0-8.5,3.7-8.5,8.6c0,4.9,3.6,8.6,8.5,8.6
		c3.4,0,5.7-1.5,7.2-3.7l-1.9-1.3c-1.2,1.7-2.8,2.8-5.3,2.8c-3.6,0-6.1-2.7-6.1-6.3c0-3.6,2.6-6.3,6-6.3c2.5,0,3.9,1.1,5,2.6
		l1.9-1.3C134.6,46.1,132.4,44.6,129.1,44.6 M134.4,31.7H129l2.7-6.6L134.4,31.7z M136.7,37.3h2.4l-7-17h-0.7l-7,17h2.4l1.4-3.4h7.2
		L136.7,37.3z M142.3,44.8h-2.4v16.8h2.4V44.8z M141.9,37.3h9.8v-2.2h-7.4V20.5h-2.4V37.3z M154.8,37.3h2.4V20.5h-2.4V37.3z
		 M155.2,55.9h-5.4l2.7-6.6L155.2,55.9z M157.4,61.6h2.4l-7-17h-0.7l-7,17h2.4l1.4-3.4h7.2L157.4,61.6z M167.5,22.7h4.9v-2.2h-12.2
		v2.2h4.9v14.6h2.4V22.7z M181.5,31.7h-5.4l2.7-6.6L181.5,31.7z M186.2,37.3l-7-17h-0.7l-7,17h2.4l1.4-3.4h7.2l1.4,3.4H186.2z
		 M197.5,22.7v-2.2h-12.4v2.2h4.9v14.6h2.4V22.7H197.5z"/>
	<rect x="210.8" y="20.1" class="st0" width="1.4" height="41.1"/>
</g>
</svg>
