<svg id="Capa_1" data-name="Capa 1" xmlns="http://www.w3.org/2000/svg" viewBox="0 0 395.05 97.99"><defs><style>.cls-1{fill:#1a1413;}</style></defs><path class="cls-1" d="M335.46,47.08V35.37a.34.34,0,0,1,.11-.24.31.31,0,0,1,.25-.11h1a.3.3,0,0,1,.24.11.34.34,0,0,1,.11.24V47.08a.34.34,0,0,1-.11.25.34.34,0,0,1-.24.11h-1a.38.38,0,0,1-.36-.36" transform="translate(-25.86 -19.19)"/><path class="cls-1" d="M339.69,47.08V35.37a.34.34,0,0,1,.11-.24.32.32,0,0,1,.25-.11h1.46a.48.48,0,0,1,.22,0,.6.6,0,0,1,.15.25l3.51,8.75a.07.07,0,0,0,.08,0s0,0,0-.08V35.37a.34.34,0,0,1,.11-.24.3.3,0,0,1,.24-.11h.9a.3.3,0,0,1,.24.11.34.34,0,0,1,.11.24V47.08a.34.34,0,0,1-.11.25.32.32,0,0,1-.24.11H345.3a.41.41,0,0,1-.21,0,.71.71,0,0,1-.16-.25l-3.49-8.79a.1.1,0,0,0-.1,0s0,0,0,.09v8.68a.37.37,0,0,1-.1.25.34.34,0,0,1-.24.11h-.9a.38.38,0,0,1-.36-.36" transform="translate(-25.86 -19.19)"/><path class="cls-1" d="M349,43.88V43.6a.34.34,0,0,1,.11-.24.3.3,0,0,1,.24-.11h1a.34.34,0,0,1,.24.11.31.31,0,0,1,.11.25v.27a1.94,1.94,0,0,0,.17.8,1.69,1.69,0,0,0,.48.64,2.29,2.29,0,0,0,.73.42,2.67,2.67,0,0,0,.91.15,2.73,2.73,0,0,0,.92-.15,2.31,2.31,0,0,0,.73-.43,1.77,1.77,0,0,0,.48-.64,1.89,1.89,0,0,0,.16-.79,2,2,0,0,0-.21-1,1.78,1.78,0,0,0-.59-.6,3.08,3.08,0,0,0-.94-.38l-1.23-.31a4.41,4.41,0,0,1-1.19-.42,3.22,3.22,0,0,1-.93-.69,3.18,3.18,0,0,1-.61-1,3.51,3.51,0,0,1-.23-1.3,3.06,3.06,0,0,1,1.14-2.46,3.58,3.58,0,0,1,1.16-.65,4,4,0,0,1,1.34-.22,4.11,4.11,0,0,1,1.46.26,3.74,3.74,0,0,1,1.15.72,3.14,3.14,0,0,1,1,2.35v.24a.33.33,0,0,1-.1.24.34.34,0,0,1-.25.11h-1a.3.3,0,0,1-.24-.11.34.34,0,0,1-.11-.24v-.24a1.49,1.49,0,0,0-.17-.75,1.67,1.67,0,0,0-.47-.52,2,2,0,0,0-.63-.29,3.25,3.25,0,0,0-.69-.08,2.13,2.13,0,0,0-1.41.44,1.47,1.47,0,0,0-.54,1.2,1.54,1.54,0,0,0,.26.94,2,2,0,0,0,.65.55,3.32,3.32,0,0,0,.87.31l.9.2a5,5,0,0,1,2.37,1.26,3.26,3.26,0,0,1,.88,2.41,3.51,3.51,0,0,1-.33,1.54,3.78,3.78,0,0,1-.89,1.16,3.82,3.82,0,0,1-1.27.74,4.49,4.49,0,0,1-1.49.26,4.35,4.35,0,0,1-1.58-.29,3.88,3.88,0,0,1-1.26-.8,3.79,3.79,0,0,1-.84-1.18,3.43,3.43,0,0,1-.3-1.43" transform="translate(-25.86 -19.19)"/><path class="cls-1" d="M358,36.35v-1a.38.38,0,0,1,.11-.25.35.35,0,0,1,.25-.1h6.73a.34.34,0,0,1,.35.35v1a.35.35,0,0,1-.1.25.34.34,0,0,1-.25.11h-2.33c-.12,0-.18,0-.18.17v10.2a.34.34,0,0,1-.11.25.34.34,0,0,1-.24.11h-1a.34.34,0,0,1-.24-.11.31.31,0,0,1-.11-.25V36.88c0-.12-.06-.17-.18-.17h-2.35a.34.34,0,0,1-.25-.11.36.36,0,0,1-.11-.25" transform="translate(-25.86 -19.19)"/><path class="cls-1" d="M367.14,47.08V35.37a.33.33,0,0,1,.1-.24.34.34,0,0,1,.25-.11h1a.32.32,0,0,1,.25.11.34.34,0,0,1,.11.24V47.08a.34.34,0,0,1-.11.25.36.36,0,0,1-.25.11h-1a.38.38,0,0,1-.25-.11.33.33,0,0,1-.1-.25" transform="translate(-25.86 -19.19)"/><path class="cls-1" d="M370.49,36.35v-1a.34.34,0,0,1,.11-.25.33.33,0,0,1,.24-.1h6.73a.33.33,0,0,1,.25.1.38.38,0,0,1,.11.25v1a.39.39,0,0,1-.1.25.36.36,0,0,1-.25.11h-2.34a.16.16,0,0,0-.18.17v10.2a.33.33,0,0,1-.1.25.34.34,0,0,1-.25.11h-1a.36.36,0,0,1-.25-.11.34.34,0,0,1-.11-.25V36.88c0-.12-.06-.17-.18-.17h-2.35a.34.34,0,0,1-.24-.11.32.32,0,0,1-.11-.25" transform="translate(-25.86 -19.19)"/><path class="cls-1" d="M379.49,43.89V35.37a.36.36,0,0,1,.1-.25.35.35,0,0,1,.26-.1h1a.35.35,0,0,1,.25.1.38.38,0,0,1,.11.25v8.51a2,2,0,0,0,.19.91,1.72,1.72,0,0,0,.53.63,2.41,2.41,0,0,0,.74.35,3,3,0,0,0,.84.12,2.77,2.77,0,0,0,.92-.15,2.57,2.57,0,0,0,.74-.43,1.84,1.84,0,0,0,.65-1.43V35.37a.36.36,0,0,1,.1-.25.33.33,0,0,1,.25-.1h1a.36.36,0,0,1,.25.1.38.38,0,0,1,.11.25v8.52a3.3,3.3,0,0,1-.33,1.47,3.58,3.58,0,0,1-.87,1.17,3.9,3.9,0,0,1-1.27.77,4.15,4.15,0,0,1-1.53.28,4.36,4.36,0,0,1-1.59-.28,3.79,3.79,0,0,1-1.27-.77,3.61,3.61,0,0,1-.83-1.17,3.54,3.54,0,0,1-.3-1.47" transform="translate(-25.86 -19.19)"/><path class="cls-1" d="M389,36.35v-1a.34.34,0,0,1,.11-.25.33.33,0,0,1,.24-.1h6.73a.33.33,0,0,1,.25.1.38.38,0,0,1,.11.25v1a.39.39,0,0,1-.1.25.36.36,0,0,1-.25.11h-2.34a.16.16,0,0,0-.18.17v10.2a.33.33,0,0,1-.1.25.34.34,0,0,1-.25.11h-1a.36.36,0,0,1-.25-.11.34.34,0,0,1-.11-.25V36.88c0-.12-.06-.17-.18-.17h-2.35a.34.34,0,0,1-.24-.11.32.32,0,0,1-.11-.25" transform="translate(-25.86 -19.19)"/><path class="cls-1" d="M392.85,66.22l3.3-11.8a.31.31,0,0,1,.34-.27h1.24a.3.3,0,0,1,.33.28l3.3,11.79a.24.24,0,0,1-.05.24.33.33,0,0,1-.3.12h-1a.33.33,0,0,1-.33-.27L399,63.6a.32.32,0,0,0-.35-.26h-3a.34.34,0,0,0-.34.26l-.78,2.71a.34.34,0,0,1-.34.27h-1a.35.35,0,0,1-.3-.12.27.27,0,0,1,0-.24M395,50.84a.23.23,0,0,1,.24-.14h1.39a.37.37,0,0,1,.29.1c.07.06.13.13.18.18l1.34,1.94a.18.18,0,0,1,0,.22.25.25,0,0,1-.24.13h-.71a.58.58,0,0,1-.54-.22l-1.91-2a.21.21,0,0,1,0-.23m.89,10.66c0,.13,0,.2.14.2h2.2c.14,0,.18-.07.14-.2l-1.15-5c0-.07,0-.1-.07-.1h0s-.07,0-.08.1Z" transform="translate(-25.86 -19.19)"/><path class="cls-1" d="M334.41,54.59s0-.06,0-.09a.6.6,0,0,1,.07-.2.29.29,0,0,1,.28-.15h1.07a.31.31,0,0,1,.33.27l2.47,9.46a.1.1,0,0,0,.11.1h0c.05,0,.08,0,.11-.1l2.46-9.46a.32.32,0,0,1,.34-.27h1.09a.31.31,0,0,1,.29.14.49.49,0,0,1,.05.19.28.28,0,0,1,0,.09l-3.31,11.74a.33.33,0,0,1-.34.26h-1.39a.32.32,0,0,1-.34-.26Z" transform="translate(-25.86 -19.19)"/><path class="cls-1" d="M343,66.22l3.3-11.8a.31.31,0,0,1,.34-.27h1.24a.31.31,0,0,1,.34.27l3.3,11.8v.07a.27.27,0,0,1-.06.16.31.31,0,0,1-.3.13h-1a.34.34,0,0,1-.34-.27l-.78-2.71a.3.3,0,0,0-.33-.26H345.8a.34.34,0,0,0-.34.26l-.78,2.71a.33.33,0,0,1-.33.27h-1a.34.34,0,0,1-.31-.13.27.27,0,0,1-.06-.16s0-.05,0-.07m3-4.72a.22.22,0,0,0,0,.08q0,.12.15.12h2.2c.11,0,.16,0,.16-.12a.24.24,0,0,0,0-.08l-1.15-5c0-.07-.05-.1-.07-.1h0s-.07,0-.08.1Z" transform="translate(-25.86 -19.19)"/><path class="cls-1" d="M353.21,66.22V54.51a.38.38,0,0,1,.36-.36h1a.38.38,0,0,1,.25.11.35.35,0,0,1,.1.25v10.2a.16.16,0,0,0,.18.18h4a.33.33,0,0,1,.25.1.38.38,0,0,1,.11.25v1a.38.38,0,0,1-.11.25.33.33,0,0,1-.25.1h-5.48a.35.35,0,0,1-.25-.1.38.38,0,0,1-.11-.25" transform="translate(-25.86 -19.19)"/><path class="cls-1" d="M361.15,66.22V54.51a.32.32,0,0,1,.11-.25.34.34,0,0,1,.24-.11h5.74a.34.34,0,0,1,.24.11.32.32,0,0,1,.11.25v1a.38.38,0,0,1-.35.35H363c-.12,0-.17.06-.17.18V59.2a.16.16,0,0,0,.17.19h4a.33.33,0,0,1,.24.1.31.31,0,0,1,.11.25v1a.34.34,0,0,1-.11.25.33.33,0,0,1-.24.1h-4c-.12,0-.17.06-.17.19v3.45c0,.12.05.18.17.18h4.26a.35.35,0,0,1,.25.1.38.38,0,0,1,.11.25v1a.38.38,0,0,1-.11.25.35.35,0,0,1-.25.1H361.5a.33.33,0,0,1-.24-.1.34.34,0,0,1-.11-.25" transform="translate(-25.86 -19.19)"/><path class="cls-1" d="M369.63,66.22V54.51a.36.36,0,0,1,.11-.25.34.34,0,0,1,.24-.11h1.46a.34.34,0,0,1,.22.06.45.45,0,0,1,.15.25l3.51,8.75a.1.1,0,0,0,.09,0s0,0,0-.08V54.51a.35.35,0,0,1,.1-.25.34.34,0,0,1,.25-.11h.89a.38.38,0,0,1,.25.11.35.35,0,0,1,.1.25V66.22a.36.36,0,0,1-.1.25.33.33,0,0,1-.25.1h-1.46a.38.38,0,0,1-.22,0,.53.53,0,0,1-.15-.25l-3.5-8.78a.09.09,0,0,0-.09-.05.08.08,0,0,0-.06.09v8.69a.36.36,0,0,1-.1.25.33.33,0,0,1-.24.1H370a.33.33,0,0,1-.24-.1.38.38,0,0,1-.11-.25" transform="translate(-25.86 -19.19)"/><path class="cls-1" d="M379.32,61.79c0-.47,0-.95,0-1.44s0-1,0-1.43.06-.87.11-1.22a4.8,4.8,0,0,1,.39-1.39,3.85,3.85,0,0,1,.8-1.18,3.78,3.78,0,0,1,1.21-.81,4,4,0,0,1,1.59-.3,4.79,4.79,0,0,1,1.52.24,3.71,3.71,0,0,1,1.27.73,3.6,3.6,0,0,1,.88,1.16,3.56,3.56,0,0,1,.33,1.55V58a.38.38,0,0,1-.36.36h-1a.38.38,0,0,1-.35-.35v-.25a2,2,0,0,0-.16-.76,1.93,1.93,0,0,0-.47-.64,2.36,2.36,0,0,0-.72-.44,2.69,2.69,0,0,0-1-.17,2.38,2.38,0,0,0-1.53.52,2.1,2.1,0,0,0-.78,1.48c0,.37-.08.78-.1,1.24s0,.94,0,1.42,0,1,0,1.42.06.87.1,1.24a2.81,2.81,0,0,0,.22.75,2.08,2.08,0,0,0,.47.64,2.48,2.48,0,0,0,.7.45,2.4,2.4,0,0,0,.92.16,2.8,2.8,0,0,0,.86-.13,2.36,2.36,0,0,0,.74-.38,1.83,1.83,0,0,0,.51-.62,1.92,1.92,0,0,0,.2-.87v-.24a.36.36,0,0,1,.1-.25.35.35,0,0,1,.25-.1h1a.35.35,0,0,1,.25.1.34.34,0,0,1,.11.25V63a3.61,3.61,0,0,1-.29,1.42,3.68,3.68,0,0,1-.83,1.17,4,4,0,0,1-1.27.81,4.43,4.43,0,0,1-1.61.29,4.24,4.24,0,0,1-1.49-.25,3.71,3.71,0,0,1-1.2-.74,4,4,0,0,1-.86-1.16,4.85,4.85,0,0,1-.44-1.54c-.05-.35-.08-.76-.11-1.23" transform="translate(-25.86 -19.19)"/><path class="cls-1" d="M389.48,66.22V54.51a.36.36,0,0,1,.11-.25.34.34,0,0,1,.25-.11h1a.34.34,0,0,1,.24.11.36.36,0,0,1,.11.25V66.22a.38.38,0,0,1-.11.25.33.33,0,0,1-.24.1h-1a.33.33,0,0,1-.25-.1.38.38,0,0,1-.11-.25" transform="translate(-25.86 -19.19)"/><path class="cls-1" d="M335.46,85.36V73.65a.38.38,0,0,1,.36-.36h3.37a3.36,3.36,0,0,1,2.53,1.1,4.28,4.28,0,0,1,.79,1.18,4.81,4.81,0,0,1,.4,1.45c0,.35.08.74.1,1.17s0,.88,0,1.32,0,.88,0,1.3-.05.82-.09,1.18a5,5,0,0,1-.39,1.44,3.81,3.81,0,0,1-.79,1.19,3.63,3.63,0,0,1-1.13.8,3.52,3.52,0,0,1-1.41.29h-3.37a.31.31,0,0,1-.25-.11.34.34,0,0,1-.11-.24m1.69-1.51a.15.15,0,0,0,.17.17h1.87a1.79,1.79,0,0,0,.76-.16,2,2,0,0,0,.62-.45,2.4,2.4,0,0,0,.44-.65,2.53,2.53,0,0,0,.22-.77c0-.36.08-.74.1-1.17s0-.87,0-1.31,0-.88,0-1.31-.05-.83-.1-1.18a2.7,2.7,0,0,0-.22-.77,2.26,2.26,0,0,0-.44-.65,2,2,0,0,0-.62-.45,1.8,1.8,0,0,0-.76-.17h-1.87a.15.15,0,0,0-.17.17Z" transform="translate(-25.86 -19.19)"/><path class="cls-1" d="M345.24,85.36V73.65a.34.34,0,0,1,.11-.25.36.36,0,0,1,.25-.11h5.73a.38.38,0,0,1,.36.36v1a.38.38,0,0,1-.36.36h-4.22c-.12,0-.18.06-.18.17v3.19a.16.16,0,0,0,.18.18h4a.38.38,0,0,1,.36.36v1a.34.34,0,0,1-.11.25.31.31,0,0,1-.25.11h-4a.16.16,0,0,0-.18.18v3.46c0,.11.06.17.18.17h4.26a.38.38,0,0,1,.25.11.35.35,0,0,1,.1.25v1a.33.33,0,0,1-.1.24.34.34,0,0,1-.25.11H345.6a.32.32,0,0,1-.25-.11.34.34,0,0,1-.11-.24" transform="translate(-25.86 -19.19)"/><path class="cls-1" d="M357.87,80.93c0-.47,0-1,0-1.44s0-1,0-1.43.06-.87.11-1.22a4.8,4.8,0,0,1,.39-1.39,3.85,3.85,0,0,1,.8-1.18,3.78,3.78,0,0,1,1.21-.81,3.86,3.86,0,0,1,1.59-.31,4.53,4.53,0,0,1,1.52.25,3.55,3.55,0,0,1,1.27.73A3.49,3.49,0,0,1,366,76.84v.25a.36.36,0,0,1-.11.25.34.34,0,0,1-.25.11h-1a.34.34,0,0,1-.24-.11.31.31,0,0,1-.11-.25v-.25a1.94,1.94,0,0,0-.16-.75,1.83,1.83,0,0,0-.47-.64,2.18,2.18,0,0,0-.72-.44,2.69,2.69,0,0,0-1-.17,2.43,2.43,0,0,0-1.53.51,2.12,2.12,0,0,0-.78,1.49c-.05.36-.08.78-.1,1.24s0,.93,0,1.42,0,1,0,1.42.05.87.1,1.23a3,3,0,0,0,.22.76,2.08,2.08,0,0,0,.47.64,2.25,2.25,0,0,0,.7.44,2.22,2.22,0,0,0,.92.17,2.8,2.8,0,0,0,.86-.13,2.59,2.59,0,0,0,.74-.38,1.89,1.89,0,0,0,.71-1.49v-.24a.33.33,0,0,1,.1-.25.36.36,0,0,1,.25-.11h1a.36.36,0,0,1,.25.11.34.34,0,0,1,.11.25v.24a3.52,3.52,0,0,1-.29,1.41,3.61,3.61,0,0,1-.83,1.18,4.1,4.1,0,0,1-1.27.8,4.52,4.52,0,0,1-3.1,0,3.71,3.71,0,0,1-1.2-.74,4,4,0,0,1-.86-1.16,4.93,4.93,0,0,1-.44-1.54c-.05-.35-.08-.77-.11-1.23" transform="translate(-25.86 -19.19)"/><path class="cls-1" d="M367.87,82.16V73.65a.33.33,0,0,1,.1-.25.34.34,0,0,1,.25-.11h1a.38.38,0,0,1,.25.11.34.34,0,0,1,.11.25v8.5a2,2,0,0,0,.19.92,1.75,1.75,0,0,0,.52.62A2.15,2.15,0,0,0,371,84a2.94,2.94,0,0,0,.84.12,2.82,2.82,0,0,0,.92-.15,2.34,2.34,0,0,0,.74-.42A2.08,2.08,0,0,0,374,83a1.77,1.77,0,0,0,.17-.8v-8.5a.38.38,0,0,1,.36-.36h1a.34.34,0,0,1,.24.11.31.31,0,0,1,.11.25v8.51a3.29,3.29,0,0,1-.32,1.47,3.73,3.73,0,0,1-.87,1.18,4,4,0,0,1-1.27.77,4.4,4.4,0,0,1-1.53.27,4.58,4.58,0,0,1-1.59-.27,3.7,3.7,0,0,1-1.27-.77,3.53,3.53,0,0,1-.83-1.17,3.59,3.59,0,0,1-.3-1.48" transform="translate(-25.86 -19.19)"/><path class="cls-1" d="M378.27,85.36V73.65a.38.38,0,0,1,.36-.36h1a.34.34,0,0,1,.24.11.34.34,0,0,1,.11.25v10.2a.15.15,0,0,0,.17.17h4a.38.38,0,0,1,.25.11.35.35,0,0,1,.1.25v1a.33.33,0,0,1-.1.24.34.34,0,0,1-.25.11h-5.48a.31.31,0,0,1-.25-.11.34.34,0,0,1-.11-.24" transform="translate(-25.86 -19.19)"/><path class="cls-1" d="M384.2,74.62v-1a.34.34,0,0,1,.11-.25.34.34,0,0,1,.24-.11h6.74a.34.34,0,0,1,.24.11.34.34,0,0,1,.11.25v1a.33.33,0,0,1-.1.25.36.36,0,0,1-.25.11H389a.17.17,0,0,0-.18.17V85.36a.33.33,0,0,1-.1.24.3.3,0,0,1-.24.11h-1a.38.38,0,0,1-.36-.35V75.15c0-.11-.06-.17-.18-.17h-2.35a.34.34,0,0,1-.24-.11.34.34,0,0,1-.11-.25" transform="translate(-25.86 -19.19)"/><path class="cls-1" d="M393.2,82.16V73.65a.37.37,0,0,1,.1-.25.38.38,0,0,1,.26-.11h1a.38.38,0,0,1,.36.36v8.5a2,2,0,0,0,.19.92,1.77,1.77,0,0,0,.53.62,2.11,2.11,0,0,0,.74.35,3,3,0,0,0,.84.12,2.77,2.77,0,0,0,.92-.15,2.34,2.34,0,0,0,.74-.42,2,2,0,0,0,.48-.64,1.91,1.91,0,0,0,.17-.8v-8.5a.33.33,0,0,1,.1-.25.36.36,0,0,1,.25-.11h1a.36.36,0,0,1,.25.11.34.34,0,0,1,.11.25v8.51a3.44,3.44,0,0,1-.32,1.47,3.86,3.86,0,0,1-2.15,2,4.32,4.32,0,0,1-1.53.27,4.58,4.58,0,0,1-1.59-.27,3.79,3.79,0,0,1-1.27-.77,3.84,3.84,0,0,1-.83-1.17,3.59,3.59,0,0,1-.3-1.48" transform="translate(-25.86 -19.19)"/><path class="cls-1" d="M403.61,85.36V73.65a.33.33,0,0,1,.1-.25.38.38,0,0,1,.25-.11h3.2a3.51,3.51,0,0,1,1.44.3,3.72,3.72,0,0,1,1.19.8,3.9,3.9,0,0,1,.8,1.18,3.75,3.75,0,0,1,.29,1.45,3.51,3.51,0,0,1-.51,1.85A3.73,3.73,0,0,1,409,80.19a.93.93,0,0,0-.34.29.4.4,0,0,0,0,.39l2.1,4.31a.4.4,0,0,1,0,.37c-.05.11-.17.16-.34.16h-1a.41.41,0,0,1-.32-.1,1,1,0,0,1-.2-.25L406.89,81a.29.29,0,0,0-.12-.15.36.36,0,0,0-.22-.06h-1.08c-.12,0-.18.06-.18.17v4.44a.33.33,0,0,1-.1.24.34.34,0,0,1-.25.11h-1a.34.34,0,0,1-.25-.11.33.33,0,0,1-.1-.24m1.68-6.47c0,.11.06.17.18.17h1.69a1.92,1.92,0,0,0,.79-.16,2.15,2.15,0,0,0,.64-.44,2,2,0,0,0,.44-.65,1.89,1.89,0,0,0,.16-.79,1.86,1.86,0,0,0-.16-.79,1.92,1.92,0,0,0-.44-.65,2.15,2.15,0,0,0-.64-.44,1.92,1.92,0,0,0-.79-.16h-1.69c-.12,0-.18.06-.18.17Z" transform="translate(-25.86 -19.19)"/><path class="cls-1" d="M412.38,85.36l3.3-11.8a.31.31,0,0,1,.34-.27h1.23a.3.3,0,0,1,.34.27l3.3,11.8a.15.15,0,0,1,0,.07.29.29,0,0,1-.06.16.35.35,0,0,1-.3.12h-1a.34.34,0,0,1-.34-.27l-.78-2.71a.31.31,0,0,0-.34-.25h-2.94a.34.34,0,0,0-.34.25l-.78,2.71a.34.34,0,0,1-.34.27h-1a.35.35,0,0,1-.3-.12.29.29,0,0,1-.06-.16.15.15,0,0,1,0-.07m3-4.72s0,0,0,.07.06.13.16.13h2.2c.1,0,.16,0,.16-.13a.25.25,0,0,0,0-.07l-1.15-5c0-.07-.05-.1-.07-.1h0s-.06,0-.08.1Z" transform="translate(-25.86 -19.19)"/><path class="cls-1" d="M325.65,73.11h-1.07a.32.32,0,0,1-.31-.32V47.94a.31.31,0,0,1,.31-.32h1.07a.31.31,0,0,1,.31.32V72.79a.32.32,0,0,1-.31.32" transform="translate(-25.86 -19.19)"/><path class="cls-1" d="M321.08,81.7l-8.23-8.22-8.22-8.23a.75.75,0,0,0-.28-.18.84.84,0,0,0-.91.18,6.68,6.68,0,0,1-1.05.86,6.82,6.82,0,0,1-1.19.64h0a6.69,6.69,0,0,1-1.3.39h0a6.58,6.58,0,0,1-2.7,0h0a6.69,6.69,0,0,1-1.3-.39h0a6.48,6.48,0,0,1-1.19-.64,6.68,6.68,0,0,1-1-.86h0a7.29,7.29,0,0,1-.86-1,7.57,7.57,0,0,1-.64-1.19h0a7,7,0,0,1-.39-1.3,7,7,0,0,1,0-2.69,7,7,0,0,1,.39-1.3h0a7.67,7.67,0,0,1,.64-1.2,7.09,7.09,0,0,1,.86-1,6.68,6.68,0,0,1,1-.86A6.48,6.48,0,0,1,295.9,54h0a6.69,6.69,0,0,1,1.3-.39h0a6.58,6.58,0,0,1,2.7,0h0a6.69,6.69,0,0,1,1.3.39h0a6.82,6.82,0,0,1,1.19.64,6.68,6.68,0,0,1,1.05.86.8.8,0,0,0,.27.18.88.88,0,0,0,.64,0,.75.75,0,0,0,.28-.18l8.22-8.23L321.08,39a.86.86,0,0,0,0-1.19,32.17,32.17,0,0,0-4.83-4,31.7,31.7,0,0,0-5.51-2.95h0a31.82,31.82,0,0,0-29.89,2.95,32.17,32.17,0,0,0-4.83,4h0a32.53,32.53,0,0,0-4,4.82,31.7,31.7,0,0,0-2.95,5.51h0a32.49,32.49,0,0,0-1.81,6h0a32,32,0,0,0,0,12.43h0a32.16,32.16,0,0,0,1.81,6h0a32,32,0,0,0,11.74,14.3,31.88,31.88,0,0,0,11.49,4.75,31.91,31.91,0,0,0,12.42,0,31,31,0,0,0,6-1.81h0a31,31,0,0,0,5.51-2.94,32.28,32.28,0,0,0,4.83-4,.84.84,0,0,0,0-1.19M310.87,32.81a30.29,30.29,0,0,1,8.41,5.63l-7,7a20,20,0,0,0-2.45-1.93h0A20.34,20.34,0,0,0,307.06,42Zm-11.48-2.6h.18c.74,0,1.49.07,2.23.15l.34,0c.77.1,1.54.21,2.3.36a30.48,30.48,0,0,1,4.87,1.41l-3.81,9.2a19.49,19.49,0,0,0-3-.85h0a20.48,20.48,0,0,0-3.11-.38Zm0,11.65a20.06,20.06,0,0,1,2.78.32h0a18.82,18.82,0,0,1,3.48,1,18.6,18.6,0,0,1,3.2,1.72A18.38,18.38,0,0,1,311,46.69l-7,7a6.48,6.48,0,0,0-.67-.5,9.28,9.28,0,0,0-1.49-.8h0a9.06,9.06,0,0,0-1.61-.49h0l-.84-.12Zm-7.49,24-7,7a19.34,19.34,0,0,1-1.74-2.18,18.64,18.64,0,0,1-1.71-3.21h0A18.39,18.39,0,0,1,280.36,64h0a18.35,18.35,0,0,1-.31-2.77H290a7.55,7.55,0,0,0,.13.83,7.9,7.9,0,0,0,.49,1.61,8.5,8.5,0,0,0,.79,1.49h0c.16.24.33.46.5.68m-.5-10.23h0a8.78,8.78,0,0,0-.79,1.48,8.19,8.19,0,0,0-.49,1.62,7.55,7.55,0,0,0-.13.83h-9.94a18.35,18.35,0,0,1,.31-2.77h0a18.39,18.39,0,0,1,1.06-3.48h0a18.64,18.64,0,0,1,1.71-3.21,20.27,20.27,0,0,1,1.74-2.18l7,7c-.17.22-.34.44-.5.68m6.31-3.78-.84.12h0a9.06,9.06,0,0,0-1.61.49h0a9.28,9.28,0,0,0-1.49.8h0a6.48,6.48,0,0,0-.67.5l-7-7a18.07,18.07,0,0,1,5.39-3.46h0a18.81,18.81,0,0,1,3.48-1h0a20.06,20.06,0,0,1,2.78-.32Zm-5-21a30.63,30.63,0,0,1,5-.57v10a20.48,20.48,0,0,0-3.11.38,20.1,20.1,0,0,0-3,.84l-3.81-9.2a30.86,30.86,0,0,1,4.88-1.4m-10.87,4.5a30.44,30.44,0,0,1,4.44-2.46L290,42a20.34,20.34,0,0,0-2.73,1.54,20,20,0,0,0-2.45,1.93l-7-7a29.51,29.51,0,0,1,4-3.17m-8.33,8.33a30.83,30.83,0,0,1,3.17-4l7,7a20.11,20.11,0,0,0-1.93,2.46,19.57,19.57,0,0,0-1.53,2.72L271,48a30,30,0,0,1,2.46-4.44M269,54.48a30.3,30.3,0,0,1,1.41-4.88l9.19,3.81a21,21,0,0,0-.84,3h0a20.18,20.18,0,0,0-.37,3.1h-9.95a31.6,31.6,0,0,1,.56-5Zm0,11.77h0a31.6,31.6,0,0,1-.56-5h9.95a20.18,20.18,0,0,0,.37,3.1h0a21,21,0,0,0,.84,3l-7,2.9-2.19.91A30.3,30.3,0,0,1,269,66.25m4.51,10.88A30,30,0,0,1,271,72.69l9.2-3.81a20.16,20.16,0,0,0,1.53,2.72h0a20.11,20.11,0,0,0,1.93,2.46l-7,7a30.83,30.83,0,0,1-3.17-4m12.77,10.78a29.48,29.48,0,0,1-4.44-2.45,30.32,30.32,0,0,1-4-3.17l7-7a19.8,19.8,0,0,0,2.45,1.93h0A20.34,20.34,0,0,0,290,78.72Zm11.48,2.62a30.45,30.45,0,0,1-9.93-2l3.81-9.2a20.1,20.1,0,0,0,3,.84h0a19.27,19.27,0,0,0,3.11.37Zm0-11.66a20.06,20.06,0,0,1-2.78-.32h0a18.81,18.81,0,0,1-3.48-1,18.29,18.29,0,0,1-3.2-1.72h0A18.38,18.38,0,0,1,286.06,74l7-7a8.33,8.33,0,0,0,.67.5h0a9.28,9.28,0,0,0,1.49.8h0a9.17,9.17,0,0,0,1.62.49h0c.27,0,.55.09.83.12Zm1.68-10c.28,0,.56-.07.83-.12h0a9.17,9.17,0,0,0,1.62-.49h0a9.28,9.28,0,0,0,1.49-.8A8.33,8.33,0,0,0,304,67l7,7a18.07,18.07,0,0,1-5.39,3.46,18.81,18.81,0,0,1-3.48,1h0a20.06,20.06,0,0,1-2.78.32Zm5.05,21a30.63,30.63,0,0,1-5.05.57v-10a19.27,19.27,0,0,0,3.11-.37h0a20.1,20.1,0,0,0,3-.84l3.81,9.2a30.86,30.86,0,0,1-4.88,1.4m10.87-4.5a29.48,29.48,0,0,1-4.44,2.45l-3.81-9.19a20.34,20.34,0,0,0,2.73-1.54,19.8,19.8,0,0,0,2.45-1.93l7,7a31.18,31.18,0,0,1-4,3.17" transform="translate(-25.86 -19.19)"/><path class="cls-1" d="M209.75,75.14l2.69-6.58,2.68,6.58Zm2.31-11.37-7,17h2.44l1.38-3.41H216l1.38,3.41h2.43l-7-17Zm-22.76,0h-.75v17h2.27V68.85L201.48,81h.75V64H200v11.9Zm-59.12,0h-.75v17h2.27V68.84L142.37,81h.74V64h-2.27v11.9Zm-5.13.22H114.61V80.75h10.77v-2.2H117V74.83h7.21V72.66H117V66.19h8.08ZM88.86,75.14l2.69-6.58,2.69,6.58Zm2.32-11.37-7,17h2.43L88,77.34h7.16l1.38,3.41h2.43l-7-17ZM30.88,81.14,51,101.27a24.83,24.83,0,0,0,4.85-.47L33.54,78.48Zm14.81,19.54L28.52,83.5l-2.66,2.66,8,8a24,24,0,0,0,11.79,6.47M31.58,31.79c-1.45,2.14-1.69,2.2-1.69,2.2a2,2,0,0,0,2.23-.84C33.58,31,33.83,31,33.83,31a2,2,0,0,0-2.25.84m7.3-7.5a.77.77,0,1,0-.77.77.77.77,0,0,0,.77-.77M48,52.36h1.71V50.91H48V49.2H46.59v1.71H44.88v1.45h1.71v1.71h.5v2.21h.45V54.07H48Zm8.15,8.74-7,7-1.61-1.61c-2.74-2.75-3.49-6.11-3.76-10.33-.13-2-.19-4.07-.19-6.48V45.54H51V49.7c0,4.37,1.61,7.86,5.21,11.4m-3.89-19-.84,2H33.76l-.84-2a4.49,4.49,0,0,0,1.84.38,4.69,4.69,0,0,0,3.92-2.13,4.68,4.68,0,0,0,7.85,0,4.69,4.69,0,0,0,3.93,2.13,4.56,4.56,0,0,0,1.84-.38m-1.93-6.31a7.07,7.07,0,0,0-.43,5.3,3.34,3.34,0,0,1-2.6-2.1,1.19,1.19,0,1,0-2-.88,1.21,1.21,0,0,0,.38.88,3.34,3.34,0,0,1-6.23,0,1.19,1.19,0,1,0-2-.88,1.21,1.21,0,0,0,.38.88,3.32,3.32,0,0,1-3.11,2.14,3.43,3.43,0,0,1-.47,0,10.38,10.38,0,0,1,.65-3.46c1.33-3.4,5.63-5.09,7.61-6.49a3.87,3.87,0,0,0,1.63-2.94,3,3,0,0,0-3-3c-1.55,0-3.82,1.76-4.89,2.81a2.07,2.07,0,0,0-1.14-.9,13.36,13.36,0,0,0,1.6-5,5.4,5.4,0,0,0,5.43-.71,6.12,6.12,0,0,0,4.38,1.84h.38a6.52,6.52,0,0,0,2.23,4.33,10,10,0,0,0-1.93,2.15A9.73,9.73,0,0,1,43.7,32.9a5.3,5.3,0,0,1-1.59.56,6.83,6.83,0,0,1,.16,1.44,6.91,6.91,0,0,1-.48,2.54l1.26.48a8.36,8.36,0,0,0,.56-3c0-.12,0-.24,0-.37a10.53,10.53,0,0,0,4.82-4.1,7.14,7.14,0,0,1,4.27-3.19,7.13,7.13,0,0,0,.1,5.78,7.14,7.14,0,0,0-2.42,2.73M34.28,45.54h7.86V49.7c0,1.23,0,3.82.19,6.58A21.12,21.12,0,0,0,44,63.91l-3.83,1.92V50.91H31.63ZM31.6,52.36h7.1v14.2l-4.17,2.09a41.18,41.18,0,0,0-.32-8.29,38.46,38.46,0,0,0-2.61-8M49.15,70.17l9.11-9.1-.6-.56C54,57.07,52.43,53.84,52.43,49.7V45.26l2.5-6.07a1.19,1.19,0,1,0-1.32-.34A3.35,3.35,0,0,1,51.34,41a5.76,5.76,0,0,1,3.36-7.42,5.71,5.71,0,0,1-1.21-4,5.77,5.77,0,0,1,1.83-3.77,7.12,7.12,0,0,0-5,.87,5.19,5.19,0,0,1-2-4.12,5.7,5.7,0,0,1,.12-1.1,4.78,4.78,0,0,1-6.07-2.24,4.09,4.09,0,0,1-3.44,1.9,4,4,0,0,1-3.42-1.87c.3,3.38-.71,7.35-3.58,9.46l.78,1A12.67,12.67,0,0,0,34,28.54a.79.79,0,0,1,.6-.29.69.69,0,0,1,.67.69,1,1,0,0,1-.13.43,3,3,0,0,0-.31,1.33A2.93,2.93,0,0,0,35.1,32l1.17-.56c-.55-1.18.39-2.28,1.88-3.38a6.47,6.47,0,0,1,3-1.54,1.65,1.65,0,0,1,1.66,1.66c0,1-1,1.85-1.8,2.34-2.94,1.86-5.9,3.21-7.27,6.46a11.94,11.94,0,0,0-.81,3.57,3.6,3.6,0,0,1-1.34-1.68,1.2,1.2,0,1,0-1.32.34l2.51,6.09-3.14,6.35a40.06,40.06,0,0,1,3.13,9,48.86,48.86,0,0,1,.14,10.47l11.74-5.91a12,12,0,0,0,1.86,2.36l2.63,2.64m2.48,6.31-8.05-8L40.92,71.1,58.1,88.27a24,24,0,0,0-6.47-11.79m6.59,22a25.63,25.63,0,0,0,.47-4.85L38.56,73.46,35.9,76.12ZM77.74,56.66a9.13,9.13,0,0,0,6.71-2.45V48.38H77.36v2.2h4.8v2.54a6.88,6.88,0,0,1-4.42,1.32,6.11,6.11,0,0,1-6.3-6.35,6,6,0,0,1,6-6.34A5.79,5.79,0,0,1,82.39,44l1.69-1.58a8,8,0,0,0-6.58-2.93,8.57,8.57,0,1,0,.24,17.13M78.32,81l7-17H82.79L78,76,73.11,64H70.56l7,17Zm10.23-24.5H99.32V54.28H90.91V50.56h7.21V48.38H90.91V41.91H99v-2.2H88.55ZM104.12,64h-2.36V80.75h9.76v-2.2h-7.4Zm12.18-7.3h.75v-17h-2.27v11.9L104.11,39.5h-.74v17h2.27V44.57Zm5.43-.22H132.5V54.28h-8.41V50.56h7.21V48.38h-7.21V41.91h8.08v-2.2H121.73Zm19.16-6.8h-2V41.91h2c3.14,0,4.66,1.27,4.66,3.89s-1.52,3.87-4.66,3.87m7.21,6.8-3.61-5.29A5.48,5.48,0,0,0,148,45.8c0-3.81-2.61-6.09-7-6.09h-4.43V56.47h2.36V51.85H141c.43,0,.78,0,1.11-.06l3.14,4.68ZM155,63.8a8.57,8.57,0,1,0,7.3,13.44l-1.89-1.33a6.18,6.18,0,0,1-5.31,2.81A6.36,6.36,0,0,1,155,66a5.78,5.78,0,0,1,5,2.6l1.85-1.33A8,8,0,0,0,155,63.8m5.25-12.94h-5.38l2.69-6.57Zm2.27,5.61H165l-7-17h-.74l-7,17h2.43L154,53.06h7.16ZM168.13,64h-2.38V80.75h2.38Zm-.36-7.52h9.76V54.28h-7.4V39.71h-2.36Zm12.85,0H183V39.71h-2.39ZM181,75.14h-5.37l2.68-6.58Zm2.27,5.61h2.44l-7-17H178l-7,17h2.43l1.38-3.41h7.16Zm10.1-38.84h4.92v-2.2H186.1v2.2H191V56.47h2.36Zm13.95,9H202l2.69-6.57Zm4.7,5.61-7-17h-.74l-7,17h2.43l1.38-3.41h7.16l1.38,3.41Zm11.34-14.56v-2.2H211v2.2h4.94V56.47h2.36V41.91Z" transform="translate(-25.86 -19.19)"/><path class="cls-1" d="M74.74,98.8l.15.57h0l.14-.56,2-6.08h1.46L75.55,101h-1.3l-2.93-8.22h1.46Z" transform="translate(-25.86 -19.19)"/><path class="cls-1" d="M80.76,93.35H79.39V92.14h1.37Zm0,7.6H79.39V94.84h1.37Z" transform="translate(-25.86 -19.19)"/><path class="cls-1" d="M84.82,100a1.29,1.29,0,0,0,.85-.29.94.94,0,0,0,.34-.74h1.24l0,0a1.84,1.84,0,0,1-.7,1.48,2.59,2.59,0,0,1-1.75.62,2.53,2.53,0,0,1-2.07-.87A3.33,3.33,0,0,1,82,98v-.2a3.35,3.35,0,0,1,.72-2.2,2.86,2.86,0,0,1,3.86-.23A2,2,0,0,1,87.27,97v0H86a1.21,1.21,0,0,0-.33-.85,1.15,1.15,0,0,0-.86-.35,1.17,1.17,0,0,0-1.1.56,2.88,2.88,0,0,0-.32,1.41V98a2.87,2.87,0,0,0,.32,1.42A1.17,1.17,0,0,0,84.82,100Z" transform="translate(-25.86 -19.19)"/><path class="cls-1" d="M91,101.07a2.63,2.63,0,0,1-2.07-.85A3.08,3.08,0,0,1,88.15,98v-.23a3.26,3.26,0,0,1,.76-2.21,2.45,2.45,0,0,1,1.92-.87,2.37,2.37,0,0,1,1.89.75,2.93,2.93,0,0,1,.66,2v.8H89.57v0A1.85,1.85,0,0,0,90,99.51a1.33,1.33,0,0,0,1.08.46,3,3,0,0,0,1-.13,3,3,0,0,0,.76-.39l.44.9a2.89,2.89,0,0,1-.91.51A3.81,3.81,0,0,1,91,101.07Zm-.16-5.24a1,1,0,0,0-.84.41,2,2,0,0,0-.4,1v0H92v-.14a1.44,1.44,0,0,0-.3-1A1,1,0,0,0,90.83,95.83Z" transform="translate(-25.86 -19.19)"/><path class="cls-1" d="M99.84,98.1a3.47,3.47,0,0,1-.62,2.15,2.07,2.07,0,0,1-1.75.82,2.22,2.22,0,0,1-.92-.18,1.94,1.94,0,0,1-.69-.55v3H94.49V94.84h1.16l.13.77a2.09,2.09,0,0,1,.71-.65,2.15,2.15,0,0,1,2.72.67A4,4,0,0,1,99.84,98ZM98.48,98a2.94,2.94,0,0,0-.36-1.53,1.13,1.13,0,0,0-1.05-.6,1.39,1.39,0,0,0-.73.19,1.31,1.31,0,0,0-.48.51v2.76a1.33,1.33,0,0,0,.48.49,1.53,1.53,0,0,0,.74.17,1.18,1.18,0,0,0,1-.51,2.43,2.43,0,0,0,.35-1.36Z" transform="translate(-25.86 -19.19)"/><path class="cls-1" d="M104.08,96.08l-.58,0a1.17,1.17,0,0,0-.67.17,1.1,1.1,0,0,0-.42.48V101H101V94.84h1.25l.09.89A2,2,0,0,1,103,95a1.36,1.36,0,0,1,.84-.27l.23,0,.2,0Z" transform="translate(-25.86 -19.19)"/><path class="cls-1" d="M107.67,101.07a2.63,2.63,0,0,1-2.07-.85,3.08,3.08,0,0,1-.78-2.18v-.23a3.27,3.27,0,0,1,.77-2.21,2.45,2.45,0,0,1,1.92-.87,2.38,2.38,0,0,1,1.89.75,2.93,2.93,0,0,1,.66,2v.8h-3.81v0a1.9,1.9,0,0,0,.42,1.19,1.35,1.35,0,0,0,1.09.46,3,3,0,0,0,1-.13,3,3,0,0,0,.76-.39l.44.9a2.89,2.89,0,0,1-.91.51A3.81,3.81,0,0,1,107.67,101.07Zm-.16-5.24a1,1,0,0,0-.84.41,2,2,0,0,0-.41,1l0,0h2.42v-.14a1.44,1.44,0,0,0-.3-1A1.06,1.06,0,0,0,107.51,95.83Z" transform="translate(-25.86 -19.19)"/><path class="cls-1" d="M114.6,99.29a.63.63,0,0,0-.27-.52,2.78,2.78,0,0,0-1-.37,4.1,4.1,0,0,1-1.66-.66,1.38,1.38,0,0,1-.56-1.16,1.66,1.66,0,0,1,.65-1.31,2.58,2.58,0,0,1,1.71-.54,2.67,2.67,0,0,1,1.78.55,1.68,1.68,0,0,1,.63,1.36l0,0h-1.31a.87.87,0,0,0-.29-.65,1.1,1.1,0,0,0-.79-.27,1.15,1.15,0,0,0-.76.22.71.71,0,0,0-.26.55.63.63,0,0,0,.25.51,2.63,2.63,0,0,0,1,.33,4.35,4.35,0,0,1,1.7.67,1.39,1.39,0,0,1,.56,1.18,1.61,1.61,0,0,1-.68,1.34,2.9,2.9,0,0,1-1.79.51,2.71,2.71,0,0,1-1.88-.61,1.72,1.72,0,0,1-.66-1.4v0h1.28a.9.9,0,0,0,.38.77,1.57,1.57,0,0,0,.88.25,1.36,1.36,0,0,0,.82-.21A.64.64,0,0,0,114.6,99.29Z" transform="translate(-25.86 -19.19)"/><path class="cls-1" d="M118.64,93.35h-1.37V92.14h1.37Zm0,7.6h-1.37V94.84h1.37Z" transform="translate(-25.86 -19.19)"/><path class="cls-1" d="M119.93,98a4.06,4.06,0,0,1,.62-2.35,2,2,0,0,1,1.77-.9,2,2,0,0,1,.89.2,2.16,2.16,0,0,1,.68.57V92.14h1.37V101h-1.15l-.14-.75a2,2,0,0,1-.71.65,2,2,0,0,1-1,.22,2.08,2.08,0,0,1-1.75-.82,3.47,3.47,0,0,1-.62-2.15Zm1.37.12a2.5,2.5,0,0,0,.32,1.35,1.13,1.13,0,0,0,1,.5,1.42,1.42,0,0,0,.74-.18,1.5,1.5,0,0,0,.5-.53V96.57a1.59,1.59,0,0,0-.5-.53,1.4,1.4,0,0,0-.72-.19,1.12,1.12,0,0,0-1,.59A3.17,3.17,0,0,0,121.3,98Z" transform="translate(-25.86 -19.19)"/><path class="cls-1" d="M129.35,101.07a2.66,2.66,0,0,1-2.07-.85,3.12,3.12,0,0,1-.77-2.18v-.23a3.27,3.27,0,0,1,.77-2.21,2.44,2.44,0,0,1,1.91-.87,2.39,2.39,0,0,1,1.9.75,2.93,2.93,0,0,1,.66,2v.8h-3.81l0,0a2,2,0,0,0,.43,1.19,1.34,1.34,0,0,0,1.09.46,3,3,0,0,0,.95-.13,3.22,3.22,0,0,0,.76-.39l.44.9a3,3,0,0,1-.92.51A3.81,3.81,0,0,1,129.35,101.07Zm.42-7.11h-1.11l-1.46-1.47v0h1.52Zm-.58,1.87a1,1,0,0,0-.83.41,2,2,0,0,0-.41,1v0h2.43v-.14a1.44,1.44,0,0,0-.3-1A1.08,1.08,0,0,0,129.19,95.83Z" transform="translate(-25.86 -19.19)"/><path class="cls-1" d="M134.1,94.84l.08.88a2.27,2.27,0,0,1,.75-.73,2.07,2.07,0,0,1,1-.26,1.89,1.89,0,0,1,1.48.58,2.58,2.58,0,0,1,.54,1.8V101h-1.37V97.13a1.41,1.41,0,0,0-.29-1,1.18,1.18,0,0,0-.87-.29,1.41,1.41,0,0,0-.71.18,1.36,1.36,0,0,0-.52.49V101h-1.38V94.84Z" transform="translate(-25.86 -19.19)"/><path class="cls-1" d="M141.93,100a1.29,1.29,0,0,0,.85-.29.94.94,0,0,0,.34-.74h1.24l0,0a1.81,1.81,0,0,1-.7,1.48,2.59,2.59,0,0,1-1.75.62,2.53,2.53,0,0,1-2.07-.87,3.33,3.33,0,0,1-.72-2.2v-.2a3.35,3.35,0,0,1,.72-2.2,2.53,2.53,0,0,1,2.07-.87,2.5,2.5,0,0,1,1.79.64,2,2,0,0,1,.66,1.63v0h-1.25a1.21,1.21,0,0,0-.33-.85,1.29,1.29,0,0,0-1.95.21,2.78,2.78,0,0,0-.33,1.41V98a2.76,2.76,0,0,0,.33,1.42A1.14,1.14,0,0,0,141.93,100Z" transform="translate(-25.86 -19.19)"/><path class="cls-1" d="M146.94,93.35h-1.37V92.14h1.37Zm0,7.6h-1.37V94.84h1.37Z" transform="translate(-25.86 -19.19)"/><path class="cls-1" d="M152.15,101a3.74,3.74,0,0,1-.12-.45,3.11,3.11,0,0,1-.06-.44,2.35,2.35,0,0,1-.75.72,1.82,1.82,0,0,1-1,.29,2,2,0,0,1-1.46-.49,1.79,1.79,0,0,1-.51-1.35,1.59,1.59,0,0,1,.7-1.38,3.35,3.35,0,0,1,2-.49H152v-.54a1,1,0,0,0-.29-.75,1.09,1.09,0,0,0-.8-.27,1.14,1.14,0,0,0-.75.22.74.74,0,0,0-.28.59h-1.32v0a1.51,1.51,0,0,1,.64-1.28,2.78,2.78,0,0,1,1.79-.56,2.6,2.6,0,0,1,1.72.54,1.9,1.9,0,0,1,.66,1.56v2.72a4.21,4.21,0,0,0,0,.72,3.75,3.75,0,0,0,.16.68Zm-1.68-1a1.63,1.63,0,0,0,.93-.26,1.3,1.3,0,0,0,.56-.59v-.9h-1.09a1.36,1.36,0,0,0-.94.29.89.89,0,0,0-.34.7.74.74,0,0,0,.23.56A1,1,0,0,0,150.47,100Z" transform="translate(-25.86 -19.19)"/><path class="cls-1" d="M159.2,97.84V101h-1.38V92.73H161a3.1,3.1,0,0,1,2.13.7,2.62,2.62,0,0,1,0,3.71,3.1,3.1,0,0,1-2.13.7Zm0-1.1H161a1.48,1.48,0,0,0,1.14-.41,1.44,1.44,0,0,0,.39-1,1.48,1.48,0,0,0-.39-1,1.45,1.45,0,0,0-1.14-.42H159.2Z" transform="translate(-25.86 -19.19)"/><path class="cls-1" d="M168.16,96.08l-.58,0a1.17,1.17,0,0,0-.67.17,1.1,1.1,0,0,0-.42.48V101h-1.37V94.84h1.25l.09.89a2,2,0,0,1,.6-.73,1.36,1.36,0,0,1,.84-.27l.23,0,.2,0Z" transform="translate(-25.86 -19.19)"/><path class="cls-1" d="M170.59,93.35h-1.37V92.14h1.37Zm0,7.6h-1.37V94.84h1.37Z" transform="translate(-25.86 -19.19)"/><path class="cls-1" d="M173.38,94.84l.07.8a2.09,2.09,0,0,1,.75-.67,2.2,2.2,0,0,1,1.05-.24,1.91,1.91,0,0,1,1,.27,1.64,1.64,0,0,1,.64.81,2.25,2.25,0,0,1,.74-.79,2,2,0,0,1,1.09-.29,1.79,1.79,0,0,1,1.45.63,2.88,2.88,0,0,1,.54,1.91V101h-1.38V97.27a1.73,1.73,0,0,0-.26-1.1,1,1,0,0,0-.81-.32,1.15,1.15,0,0,0-.74.24,1.28,1.28,0,0,0-.44.64v.15s0,.08,0,.12v4h-1.38V97.27a1.76,1.76,0,0,0-.27-1.09,1,1,0,0,0-.8-.33A1.52,1.52,0,0,0,174,96a1.13,1.13,0,0,0-.46.46V101h-1.38V94.84Z" transform="translate(-25.86 -19.19)"/><path class="cls-1" d="M184.8,101.07a2.66,2.66,0,0,1-2.07-.85A3.12,3.12,0,0,1,182,98v-.23a3.27,3.27,0,0,1,.77-2.21,2.45,2.45,0,0,1,1.92-.87,2.38,2.38,0,0,1,1.89.75,2.93,2.93,0,0,1,.66,2v.8h-3.81l0,0a2,2,0,0,0,.43,1.19,1.34,1.34,0,0,0,1.09.46,3,3,0,0,0,1-.13,3.22,3.22,0,0,0,.76-.39l.44.9a2.84,2.84,0,0,1-.92.51A3.81,3.81,0,0,1,184.8,101.07Zm-.15-5.24a1,1,0,0,0-.84.41,2,2,0,0,0-.41,1v0h2.43v-.14a1.44,1.44,0,0,0-.3-1A1.07,1.07,0,0,0,184.65,95.83Z" transform="translate(-25.86 -19.19)"/><path class="cls-1" d="M191.35,96.08l-.59,0a1.17,1.17,0,0,0-.67.17,1.08,1.08,0,0,0-.41.48V101H188.3V94.84h1.26l.09.89a1.89,1.89,0,0,1,.59-.73,1.4,1.4,0,0,1,.84-.27l.24,0,.19,0Z" transform="translate(-25.86 -19.19)"/><path class="cls-1" d="M196,101c-.05-.15-.09-.3-.13-.45a3.11,3.11,0,0,1-.06-.44,2.42,2.42,0,0,1-.74.72,1.84,1.84,0,0,1-1,.29,2,2,0,0,1-1.47-.49,1.79,1.79,0,0,1-.51-1.35,1.59,1.59,0,0,1,.7-1.38,3.38,3.38,0,0,1,2-.49h1.07v-.54a1,1,0,0,0-.28-.75,1.13,1.13,0,0,0-.81-.27A1.17,1.17,0,0,0,194,96a.74.74,0,0,0-.27.59h-1.33v0a1.5,1.5,0,0,1,.65-1.28,2.73,2.73,0,0,1,1.78-.56,2.65,2.65,0,0,1,1.73.54,1.92,1.92,0,0,1,.65,1.56v2.72a5.55,5.55,0,0,0,.05.72,3.76,3.76,0,0,0,.17.68Zm-1.69-1a1.69,1.69,0,0,0,.94-.26,1.33,1.33,0,0,0,.55-.59v-.9H194.7a1.37,1.37,0,0,0-.94.29.89.89,0,0,0-.34.7.74.74,0,0,0,.23.56A1,1,0,0,0,194.3,100Z" transform="translate(-25.86 -19.19)"/><path class="cls-1" d="M202.94,93.35h-1.37V92.14h1.37Zm0,7.6h-1.37V94.84h1.37Z" transform="translate(-25.86 -19.19)"/><path class="cls-1" d="M78.13,112.11v0a2.62,2.62,0,0,1-.81,2,3.18,3.18,0,0,1-2.26.78,3,3,0,0,1-2.34-1,3.48,3.48,0,0,1-.9-2.47v-1.57a3.53,3.53,0,0,1,.89-2.47,3,3,0,0,1,2.31-1,3.3,3.3,0,0,1,2.3.77,2.55,2.55,0,0,1,.81,2.06v0H76.81A1.6,1.6,0,0,0,75,107.59a1.58,1.58,0,0,0-1.33.67,2.72,2.72,0,0,0-.5,1.67v1.57a2.72,2.72,0,0,0,.51,1.69,1.63,1.63,0,0,0,1.36.66,1.75,1.75,0,0,0,1.3-.45,1.82,1.82,0,0,0,.44-1.29Z" transform="translate(-25.86 -19.19)"/><path class="cls-1" d="M79.05,111.72a3.29,3.29,0,0,1,.75-2.23,2.84,2.84,0,0,1,4.11,0,3.29,3.29,0,0,1,.75,2.23v.12a3.32,3.32,0,0,1-.75,2.25,2.87,2.87,0,0,1-4.11,0,3.3,3.3,0,0,1-.75-2.24Zm1.38.12a2.64,2.64,0,0,0,.35,1.45,1.31,1.31,0,0,0,2.15,0,2.64,2.64,0,0,0,.37-1.45v-.12a2.65,2.65,0,0,0-.37-1.44,1.3,1.3,0,0,0-2.15,0,2.65,2.65,0,0,0-.35,1.44Z" transform="translate(-25.86 -19.19)"/><path class="cls-1" d="M87.1,108.72l.08.88a2.27,2.27,0,0,1,.75-.73,2.1,2.1,0,0,1,1-.26,1.91,1.91,0,0,1,1.49.58A2.63,2.63,0,0,1,91,111v3.84H89.61V111a1.41,1.41,0,0,0-.29-1,1.18,1.18,0,0,0-.86-.29,1.43,1.43,0,0,0-.72.18,1.52,1.52,0,0,0-.52.49v4.43H85.85v-6.11Z" transform="translate(-25.86 -19.19)"/><path class="cls-1" d="M95.84,113.17a.63.63,0,0,0-.27-.52,2.7,2.7,0,0,0-1-.37,4.1,4.1,0,0,1-1.66-.66,1.38,1.38,0,0,1-.56-1.16,1.66,1.66,0,0,1,.65-1.31,2.61,2.61,0,0,1,1.71-.54,2.67,2.67,0,0,1,1.78.55,1.62,1.62,0,0,1,.63,1.36v0H95.78a.84.84,0,0,0-.29-.65,1.34,1.34,0,0,0-1.54,0,.68.68,0,0,0-.26.55.63.63,0,0,0,.24.51,2.7,2.7,0,0,0,1,.33,4.34,4.34,0,0,1,1.71.67,1.41,1.41,0,0,1,.55,1.18,1.58,1.58,0,0,1-.68,1.34,2.9,2.9,0,0,1-1.79.51,2.73,2.73,0,0,1-1.88-.61,1.72,1.72,0,0,1-.66-1.4l0,0h1.27a.93.93,0,0,0,.39.77,1.55,1.55,0,0,0,.88.25,1.4,1.4,0,0,0,.82-.21A.63.63,0,0,0,95.84,113.17Z" transform="translate(-25.86 -19.19)"/><path class="cls-1" d="M101.05,115A2.63,2.63,0,0,1,99,114.1a3.08,3.08,0,0,1-.77-2.18v-.23a3.26,3.26,0,0,1,.76-2.21,2.45,2.45,0,0,1,1.92-.87,2.38,2.38,0,0,1,1.89.75,2.93,2.93,0,0,1,.66,2v.8H99.63v0a1.9,1.9,0,0,0,.42,1.19,1.36,1.36,0,0,0,1.09.46,3,3,0,0,0,1-.13,3,3,0,0,0,.76-.39l.44.9a2.89,2.89,0,0,1-.91.51A3.81,3.81,0,0,1,101.05,115Zm-.16-5.24a1,1,0,0,0-.84.41,2,2,0,0,0-.4,1v0h2.42V111a1.44,1.44,0,0,0-.3-1A1,1,0,0,0,100.89,109.71Z" transform="translate(-25.86 -19.19)"/><path class="cls-1" d="M106,114.83h-1.37V106H106Z" transform="translate(-25.86 -19.19)"/><path class="cls-1" d="M109,114.83h-1.37V106H109Z" transform="translate(-25.86 -19.19)"/><path class="cls-1" d="M113.17,115a2.63,2.63,0,0,1-2.07-.85,3.08,3.08,0,0,1-.77-2.18v-.23a3.26,3.26,0,0,1,.76-2.21,2.45,2.45,0,0,1,1.92-.87,2.38,2.38,0,0,1,1.89.75,2.93,2.93,0,0,1,.66,2v.8h-3.81v0a1.9,1.9,0,0,0,.42,1.19,1.36,1.36,0,0,0,1.09.46,3,3,0,0,0,1-.13,3,3,0,0,0,.76-.39l.44.9a2.89,2.89,0,0,1-.91.51A3.81,3.81,0,0,1,113.17,115Zm-.16-5.24a1,1,0,0,0-.84.41,2,2,0,0,0-.4,1v0h2.42V111a1.44,1.44,0,0,0-.3-1A1,1,0,0,0,113,109.71Z" transform="translate(-25.86 -19.19)"/><path class="cls-1" d="M119.71,110l-.59,0a1.14,1.14,0,0,0-.66.17,1.1,1.1,0,0,0-.42.48v4.24h-1.37v-6.11h1.25l.09.89a1.91,1.91,0,0,1,.6-.73,1.36,1.36,0,0,1,.84-.27l.23,0,.2.05Z" transform="translate(-25.86 -19.19)"/><path class="cls-1" d="M122.13,107.23h-1.37V106h1.37Zm0,7.6h-1.37v-6.11h1.37Z" transform="translate(-25.86 -19.19)"/><path class="cls-1" d="M127.35,114.83a3.74,3.74,0,0,1-.12-.45,2.13,2.13,0,0,1-.07-.44,2.32,2.32,0,0,1-.74.72,1.84,1.84,0,0,1-1,.29,2,2,0,0,1-1.47-.49,1.79,1.79,0,0,1-.51-1.35,1.59,1.59,0,0,1,.7-1.38,3.4,3.4,0,0,1,2-.49h1.07v-.54a1,1,0,0,0-.28-.75,1.13,1.13,0,0,0-.81-.27,1.17,1.17,0,0,0-.75.22.74.74,0,0,0-.27.59h-1.32v0a1.5,1.5,0,0,1,.65-1.28,2.76,2.76,0,0,1,1.79-.56,2.62,2.62,0,0,1,1.72.54,1.92,1.92,0,0,1,.65,1.56v2.72a5.55,5.55,0,0,0,0,.72,3.76,3.76,0,0,0,.17.68Zm-1.68-1a1.76,1.76,0,0,0,.93-.26,1.28,1.28,0,0,0,.55-.59v-.9h-1.09a1.37,1.37,0,0,0-.94.29.93.93,0,0,0-.34.7.74.74,0,0,0,.23.56A1,1,0,0,0,125.67,113.85Z" transform="translate(-25.86 -19.19)"/><path class="cls-1" d="M132.59,111.86a4,4,0,0,1,.63-2.35,2,2,0,0,1,1.76-.9,2,2,0,0,1,.89.2,2.05,2.05,0,0,1,.68.57V106h1.37v8.81h-1.15l-.14-.75a2.06,2.06,0,0,1-.7.65,2,2,0,0,1-1,.22,2.06,2.06,0,0,1-1.75-.82,3.41,3.41,0,0,1-.63-2.15ZM134,112a2.41,2.41,0,0,0,.33,1.35,1.12,1.12,0,0,0,1,.5,1.39,1.39,0,0,0,.73-.18,1.42,1.42,0,0,0,.5-.53v-2.67a1.59,1.59,0,0,0-.5-.53,1.38,1.38,0,0,0-.72-.19,1.13,1.13,0,0,0-1,.59,3.17,3.17,0,0,0-.33,1.54Z" transform="translate(-25.86 -19.19)"/><path class="cls-1" d="M142,115a2.63,2.63,0,0,1-2.07-.85,3.08,3.08,0,0,1-.78-2.18v-.23a3.27,3.27,0,0,1,.77-2.21,2.45,2.45,0,0,1,1.92-.87,2.38,2.38,0,0,1,1.89.75,2.93,2.93,0,0,1,.66,2v.8H140.6v0a1.9,1.9,0,0,0,.42,1.19,1.35,1.35,0,0,0,1.09.46,3,3,0,0,0,1-.13,3,3,0,0,0,.76-.39l.44.9a2.89,2.89,0,0,1-.91.51A3.81,3.81,0,0,1,142,115Zm-.16-5.24a1,1,0,0,0-.84.41,2,2,0,0,0-.41,1l0,0h2.42V111a1.44,1.44,0,0,0-.3-1A1.06,1.06,0,0,0,141.86,109.71Z" transform="translate(-25.86 -19.19)"/><path class="cls-1" d="M154.57,112.11v0a2.56,2.56,0,0,1-.81,2,3.17,3.17,0,0,1-2.26.78,3,3,0,0,1-2.34-1,3.48,3.48,0,0,1-.9-2.47v-1.57a3.53,3.53,0,0,1,.89-2.47,3,3,0,0,1,2.32-1,3.27,3.27,0,0,1,2.29.77,2.59,2.59,0,0,1,.82,2.06v0h-1.33a1.78,1.78,0,0,0-.45-1.29,1.76,1.76,0,0,0-1.32-.47,1.59,1.59,0,0,0-1.34.67,2.71,2.71,0,0,0-.49,1.67v1.57a2.71,2.71,0,0,0,.5,1.69,1.63,1.63,0,0,0,1.36.66,1.75,1.75,0,0,0,1.3-.45,1.82,1.82,0,0,0,.44-1.29Z" transform="translate(-25.86 -19.19)"/><path class="cls-1" d="M159.56,113.94a2.1,2.1,0,0,1-.73.75,1.89,1.89,0,0,1-1,.26,2,2,0,0,1-1.53-.62,2.89,2.89,0,0,1-.56-2v-3.66h1.37v3.67a1.84,1.84,0,0,0,.26,1.12.92.92,0,0,0,.78.32,1.77,1.77,0,0,0,.84-.17,1.32,1.32,0,0,0,.53-.52v-4.42h1.37v6.11h-1.2Z" transform="translate(-25.86 -19.19)"/><path class="cls-1" d="M163.76,114.83h-1.37V106h1.37Z" transform="translate(-25.86 -19.19)"/><path class="cls-1" d="M167,107.24v1.48h1.09v1H167v3.38a.74.74,0,0,0,.16.54.62.62,0,0,0,.44.16l.22,0,.2-.06.15,1a2.05,2.05,0,0,1-.42.15,2.73,2.73,0,0,1-.5,0,1.6,1.6,0,0,1-1.19-.44,1.93,1.93,0,0,1-.43-1.39v-3.38h-.93v-1h.93v-1.48Z" transform="translate(-25.86 -19.19)"/><path class="cls-1" d="M173.13,113.94a2.1,2.1,0,0,1-.73.75,1.89,1.89,0,0,1-1,.26,2,2,0,0,1-1.53-.62,2.89,2.89,0,0,1-.56-2v-3.66h1.37v3.67a1.84,1.84,0,0,0,.26,1.12.94.94,0,0,0,.79.32,1.73,1.73,0,0,0,.83-.17,1.32,1.32,0,0,0,.53-.52v-4.42h1.37v6.11h-1.2Z" transform="translate(-25.86 -19.19)"/><path class="cls-1" d="M178.92,110l-.59,0a1.17,1.17,0,0,0-.67.17,1,1,0,0,0-.41.48v4.24h-1.38v-6.11h1.26l.09.89a1.89,1.89,0,0,1,.59-.73,1.4,1.4,0,0,1,.84-.27l.23,0a1,1,0,0,1,.2.05Z" transform="translate(-25.86 -19.19)"/><path class="cls-1" d="M183.55,114.83l-.12-.45a3.11,3.11,0,0,1-.06-.44,2.42,2.42,0,0,1-.74.72,1.84,1.84,0,0,1-1,.29,2,2,0,0,1-1.47-.49,1.79,1.79,0,0,1-.51-1.35,1.59,1.59,0,0,1,.7-1.38,3.38,3.38,0,0,1,2-.49h1.07v-.54a1,1,0,0,0-.29-.75,1.09,1.09,0,0,0-.8-.27,1.16,1.16,0,0,0-.75.22.74.74,0,0,0-.27.59h-1.33v0a1.51,1.51,0,0,1,.64-1.28,2.78,2.78,0,0,1,1.79-.56,2.6,2.6,0,0,1,1.72.54,1.9,1.9,0,0,1,.66,1.56v2.72a5.55,5.55,0,0,0,.05.72,3.75,3.75,0,0,0,.16.68Zm-1.68-1a1.77,1.77,0,0,0,.94-.26,1.33,1.33,0,0,0,.55-.59v-.9h-1.09a1.37,1.37,0,0,0-.94.29.89.89,0,0,0-.34.7.74.74,0,0,0,.23.56A1,1,0,0,0,181.87,113.85Z" transform="translate(-25.86 -19.19)"/><path class="cls-1" d="M190.51,107.23h-1.37V106h1.37Zm0,7.6h-1.37v-6.11h1.37Z" transform="translate(-25.86 -19.19)"/><path class="cls-1" d="M200.07,111.14h-3.59v2.59h4.17v1.1H195.1v-8.22h5.51v1.1h-4.13V110h3.59Z" transform="translate(-25.86 -19.19)"/><path class="cls-1" d="M205.07,113.17a.63.63,0,0,0-.27-.52,2.77,2.77,0,0,0-1-.37,4,4,0,0,1-1.65-.66,1.36,1.36,0,0,1-.56-1.16,1.65,1.65,0,0,1,.64-1.31,2.62,2.62,0,0,1,1.72-.54,2.66,2.66,0,0,1,1.77.55,1.62,1.62,0,0,1,.63,1.36v0H205a.87.87,0,0,0-.29-.65,1.35,1.35,0,0,0-1.55,0,.71.71,0,0,0-.26.55.61.61,0,0,0,.25.51,2.56,2.56,0,0,0,1,.33,4.34,4.34,0,0,1,1.71.67,1.42,1.42,0,0,1,.56,1.18,1.61,1.61,0,0,1-.68,1.34,3,3,0,0,1-1.8.51,2.73,2.73,0,0,1-1.88-.61,1.68,1.68,0,0,1-.65-1.4v0h1.27a.93.93,0,0,0,.39.77,1.55,1.55,0,0,0,.88.25,1.38,1.38,0,0,0,.82-.21A.64.64,0,0,0,205.07,113.17Z" transform="translate(-25.86 -19.19)"/><path class="cls-1" d="M213,112a3.47,3.47,0,0,1-.62,2.15,2.07,2.07,0,0,1-1.75.82,2.22,2.22,0,0,1-.92-.18,1.94,1.94,0,0,1-.69-.55v3h-1.37v-8.46h1.16l.13.77a2.09,2.09,0,0,1,.71-.65,2.15,2.15,0,0,1,2.72.67,4,4,0,0,1,.63,2.35Zm-1.36-.12a2.94,2.94,0,0,0-.36-1.53,1.13,1.13,0,0,0-1.05-.6,1.39,1.39,0,0,0-.73.19,1.31,1.31,0,0,0-.48.51v2.76a1.33,1.33,0,0,0,.48.49,1.53,1.53,0,0,0,.74.17,1.18,1.18,0,0,0,1-.51,2.43,2.43,0,0,0,.35-1.36Z" transform="translate(-25.86 -19.19)"/><path class="cls-1" d="M214,111.72a3.28,3.28,0,0,1,.74-2.23,2.56,2.56,0,0,1,2.05-.88,2.53,2.53,0,0,1,2.06.88,3.29,3.29,0,0,1,.75,2.23v.12a3.32,3.32,0,0,1-.75,2.25,2.87,2.87,0,0,1-4.11,0,3.29,3.29,0,0,1-.74-2.24Zm1.37.12a2.64,2.64,0,0,0,.35,1.45,1.16,1.16,0,0,0,1.08.56,1.19,1.19,0,0,0,1.08-.56,2.64,2.64,0,0,0,.36-1.45v-.12a2.65,2.65,0,0,0-.36-1.44,1.2,1.2,0,0,0-1.09-.57,1.18,1.18,0,0,0-1.07.57,2.65,2.65,0,0,0-.35,1.44Z" transform="translate(-25.86 -19.19)"/><path class="cls-1" d="M223.8,110l-.59,0a1.17,1.17,0,0,0-.67.17,1.1,1.1,0,0,0-.42.48v4.24h-1.37v-6.11H222l.09.89a1.89,1.89,0,0,1,.59-.73,1.36,1.36,0,0,1,.84-.27l.23,0,.2.05Z" transform="translate(-25.86 -19.19)"/><path class="cls-1" d="M226.46,107.24v1.48h1.1v1h-1.1v3.38a.74.74,0,0,0,.17.54.6.6,0,0,0,.43.16l.22,0a1.17,1.17,0,0,0,.2-.06l.15,1a2.05,2.05,0,0,1-.42.15,2.73,2.73,0,0,1-.5,0,1.62,1.62,0,0,1-1.19-.44,2,2,0,0,1-.43-1.39v-3.38h-.93v-1h.93v-1.48Z" transform="translate(-25.86 -19.19)"/></svg>