<svg id="Capa_1" data-name="Capa 1" xmlns="http://www.w3.org/2000/svg" width="238.84mm" height="50.39mm" viewBox="0 0 677.02 142.83"><defs><style>.cls-1{fill:#201310;}</style></defs><path class="cls-1" d="M553.19,40.51v-17l.15-.35.37-.16h1.41l.36.16.16.35v17a.54.54,0,0,1-.16.36l-.36.16h-1.41l-.37-.16a.53.53,0,0,1-.15-.36"/><path class="cls-1" d="M559.32,40.51v-17l.15-.35.36-.16H562l.32.08a.82.82,0,0,1,.22.36l5.08,12.68.13.06.07-.11V23.53l.15-.35a.46.46,0,0,1,.36-.16h1.29l.36.16.15.35v17a.53.53,0,0,1-.15.36.5.5,0,0,1-.36.16h-2.12l-.31-.08a.79.79,0,0,1-.22-.36l-5.07-12.74-.14-.06-.08.13V40.51a.56.56,0,0,1-.14.36l-.36.16h-1.3l-.36-.16a.58.58,0,0,1-.15-.36"/><path class="cls-1" d="M572.87,35.87v-.41l.16-.35.35-.15h1.43l.35.15a.46.46,0,0,1,.16.36v.4a2.69,2.69,0,0,0,.25,1.16,2.46,2.46,0,0,0,.69.93,3.41,3.41,0,0,0,1.06.59,3.9,3.9,0,0,0,2.64,0,3,3,0,0,0,1.07-.61,2.69,2.69,0,0,0,.69-.92,2.75,2.75,0,0,0,.24-1.15,2.81,2.81,0,0,0-.31-1.43,2.61,2.61,0,0,0-.86-.89,4.83,4.83,0,0,0-1.36-.54l-1.78-.45a6.67,6.67,0,0,1-1.73-.6,5.16,5.16,0,0,1-1.34-1,4.44,4.44,0,0,1-.89-1.43,5,5,0,0,1-.33-1.88,4.51,4.51,0,0,1,.45-2A4.82,4.82,0,0,1,575,24.08a5.28,5.28,0,0,1,1.69-.94,6.13,6.13,0,0,1,1.95-.32,5.38,5.38,0,0,1,2.1.39,5.11,5.11,0,0,1,1.69,1,4.6,4.6,0,0,1,1.1,1.52,4.41,4.41,0,0,1,.4,1.88V28l-.15.36a.51.51,0,0,1-.37.15H582l-.36-.16-.15-.35v-.35a2.2,2.2,0,0,0-.25-1.09,2.45,2.45,0,0,0-.68-.75,2.65,2.65,0,0,0-.92-.41,3.74,3.74,0,0,0-1-.13,3.15,3.15,0,0,0-2,.63,2.16,2.16,0,0,0-.79,1.76,2.21,2.21,0,0,0,.37,1.35,2.7,2.7,0,0,0,1,.79,5,5,0,0,0,1.25.46l1.31.3a7.15,7.15,0,0,1,3.44,1.82,4.74,4.74,0,0,1,1.28,3.49,4.89,4.89,0,0,1-.49,2.22,5.32,5.32,0,0,1-1.29,1.7,5.6,5.6,0,0,1-1.84,1.07,6.61,6.61,0,0,1-2.15.37,6.18,6.18,0,0,1-2.29-.43,5.53,5.53,0,0,1-1.83-1.15,5.27,5.27,0,0,1-1.21-1.71,5,5,0,0,1-.44-2.07"/><path class="cls-1" d="M585.9,25V23.53l.16-.35.36-.16h9.75l.36.16.16.35V25l-.15.36a.47.47,0,0,1-.37.16h-3.38a.23.23,0,0,0-.26.25V40.51a.53.53,0,0,1-.15.36A.5.5,0,0,1,592,41H590.6l-.36-.16a.54.54,0,0,1-.16-.36V25.72c0-.17-.08-.25-.26-.25h-3.4l-.36-.16Z"/><path class="cls-1" d="M599.1,40.51v-17l.15-.35a.5.5,0,0,1,.36-.16H601a.48.48,0,0,1,.36.16l.15.35v17a.48.48,0,0,1-.15.36A.52.52,0,0,1,601,41h-1.42a.54.54,0,0,1-.36-.16.53.53,0,0,1-.15-.36"/><path class="cls-1" d="M604,25V23.53l.16-.35.36-.16h9.76l.35.16.16.35V25l-.16.36a.43.43,0,0,1-.35.16h-3.38a.24.24,0,0,0-.27.25V40.51a.56.56,0,0,1-.14.36.54.54,0,0,1-.36.16h-1.43l-.36-.16a.54.54,0,0,1-.16-.36V25.72c0-.17-.09-.25-.26-.25h-3.4l-.36-.16Z"/><path class="cls-1" d="M617,35.88V23.53l.15-.35a.46.46,0,0,1,.36-.16h1.42l.36.16.16.35V35.87a2.86,2.86,0,0,0,.28,1.32,2.39,2.39,0,0,0,.76.9,3.19,3.19,0,0,0,1.08.52,4.48,4.48,0,0,0,1.21.17,3.7,3.7,0,0,0,1.34-.23,3.17,3.17,0,0,0,1.06-.61,2.69,2.69,0,0,0,1-2.07V23.53l.15-.35a.46.46,0,0,1,.36-.16h1.42l.36.16.15.35V35.88a4.88,4.88,0,0,1-.46,2.13,5.34,5.34,0,0,1-1.27,1.7A5.65,5.65,0,0,1,625,40.83a6.33,6.33,0,0,1-2.22.4,6.75,6.75,0,0,1-2.31-.4,5.5,5.5,0,0,1-1.83-1.12A5.09,5.09,0,0,1,617.43,38a5.18,5.18,0,0,1-.43-2.14"/><path class="cls-1" d="M630.84,25V23.53l.16-.35.36-.16h9.75a.5.5,0,0,1,.36.16l.15.35V25l-.15.36a.45.45,0,0,1-.36.16h-3.38a.23.23,0,0,0-.26.25V40.51a.58.58,0,0,1-.15.36L637,41h-1.42a.52.52,0,0,1-.36-.16.5.5,0,0,1-.16-.36V25.72c0-.17-.09-.25-.27-.25h-3.4l-.35-.16Z"/><path class="cls-1" d="M640.75,61.4c0,.19,0,.29.21.29h3.19c.2,0,.26-.1.2-.29l-1.66-7.17-.11-.14h-.05l-.11.14ZM639.47,46a.32.32,0,0,1,.34-.22h2a.62.62,0,0,1,.43.15l.24.27,2,2.81v.31a.35.35,0,0,1-.35.2h-1a1.05,1.05,0,0,1-.51-.09l-.27-.22-2.77-2.88a.3.3,0,0,1,0-.33m-3.11,22.29,4.79-17.1a.44.44,0,0,1,.49-.39h1.79a.44.44,0,0,1,.49.39l4.79,17.1-.08.35a.53.53,0,0,1-.44.16h-1.4a.5.5,0,0,1-.49-.39l-1.1-3.93a.45.45,0,0,0-.5-.36h-4.29a.48.48,0,0,0-.49.36l-1.14,3.93a.47.47,0,0,1-.49.39h-1.41a.54.54,0,0,1-.44-.16Z"/><path class="cls-1" d="M551.67,51.39v-.13l.08-.29a.46.46,0,0,1,.42-.21h1.54a.47.47,0,0,1,.49.39l3.58,13.71.15.15H558l.15-.15,3.58-13.71a.46.46,0,0,1,.49-.39h1.56a.47.47,0,0,1,.44.2l.07.27v.13l-4.81,17a.49.49,0,0,1-.49.39h-2a.47.47,0,0,1-.49-.39Z"/><path class="cls-1" d="M568.5,61.4l0,.11c0,.12.08.18.23.18h3.19c.15,0,.23-.06.23-.18l0-.11-1.67-7.17-.1-.14h-.05l-.11.14Zm-4.37,6.85,4.79-17.1a.43.43,0,0,1,.48-.39h1.8a.43.43,0,0,1,.48.39l4.79,17.1v.1l-.08.23a.52.52,0,0,1-.44.18h-1.41a.49.49,0,0,1-.49-.39l-1.13-3.93a.44.44,0,0,0-.49-.36h-4.27a.48.48,0,0,0-.49.36l-1.13,3.93a.49.49,0,0,1-.49.39h-1.42a.52.52,0,0,1-.44-.18l-.08-.23Z"/><path class="cls-1" d="M578.92,68.25v-17l.16-.35.35-.16h1.42l.36.16.16.35V66.06a.22.22,0,0,0,.25.25h5.76a.5.5,0,0,1,.36.16.5.5,0,0,1,.16.36v1.42l-.16.35a.5.5,0,0,1-.36.16h-8l-.35-.16Z"/><path class="cls-1" d="M590.41,68.25v-17l.16-.35a.48.48,0,0,1,.36-.16h8.31l.36.16.16.35V52.7l-.16.35-.36.16h-6.12a.22.22,0,0,0-.25.25v4.62a.23.23,0,0,0,.25.26H599a.53.53,0,0,1,.52.52v1.41l-.16.36a.5.5,0,0,1-.36.16h-5.83c-.17,0-.25.09-.25.26v5a.22.22,0,0,0,.25.25h6.17l.36.16a.46.46,0,0,1,.16.36v1.42l-.16.35-.36.16h-8.36a.48.48,0,0,1-.36-.16Z"/><path class="cls-1" d="M602.71,68.25v-17l.16-.35.35-.16h2.12l.31.08a.74.74,0,0,1,.22.36L611,63.88l.13.06.07-.11V51.27l.15-.35a.46.46,0,0,1,.36-.16H613l.36.16.15.35v17l-.15.35a.46.46,0,0,1-.36.16h-2.12l-.32-.07a1,1,0,0,1-.22-.37l-5.07-12.73-.13-.06-.08.12v12.6l-.15.35-.35.16h-1.3l-.35-.16Z"/><path class="cls-1" d="M616.76,61.82c0-.67-.06-1.37-.06-2.08s0-1.4,0-2.07a16.14,16.14,0,0,1,.17-1.77,7.13,7.13,0,0,1,.55-2,5.73,5.73,0,0,1,1.17-1.7A5.65,5.65,0,0,1,620.39,51a5.82,5.82,0,0,1,2.3-.43,6.78,6.78,0,0,1,2.21.36,5.14,5.14,0,0,1,1.84,1,5.12,5.12,0,0,1,1.75,3.93v.36a.53.53,0,0,1-.15.37.49.49,0,0,1-.36.15h-1.42a.49.49,0,0,1-.36-.15.54.54,0,0,1-.16-.36V55.9a2.69,2.69,0,0,0-.23-1.08,2.58,2.58,0,0,0-.67-.93,3.15,3.15,0,0,0-1.06-.65,3.79,3.79,0,0,0-1.39-.24,3.48,3.48,0,0,0-2.21.75,3.06,3.06,0,0,0-1.13,2.15q-.11.8-.15,1.8c0,.67-.05,1.35-.05,2s0,1.39.05,2.06.08,1.27.15,1.8a3.58,3.58,0,0,0,.32,1.09,3.33,3.33,0,0,0,.67.93,3.53,3.53,0,0,0,1,.64,3.46,3.46,0,0,0,1.33.25,4.09,4.09,0,0,0,1.25-.2,3.29,3.29,0,0,0,1.07-.55,2.61,2.61,0,0,0,1-2.16v-.35l.16-.36a.48.48,0,0,1,.36-.15H628a.52.52,0,0,1,.35.15.46.46,0,0,1,.16.36v.35a5.08,5.08,0,0,1-.42,2,5.31,5.31,0,0,1-1.2,1.7A5.62,5.62,0,0,1,625,68.53a6.48,6.48,0,0,1-4.48.06,5.32,5.32,0,0,1-1.75-1.07,5.92,5.92,0,0,1-1.24-1.68,7,7,0,0,1-.63-2.23c-.08-.51-.12-1.11-.16-1.79"/><path class="cls-1" d="M631.48,68.25v-17l.16-.35.36-.16h1.41a.46.46,0,0,1,.36.16l.16.35v17l-.16.35a.46.46,0,0,1-.36.16H632l-.36-.16Z"/><path class="cls-1" d="M555.64,93.8a.22.22,0,0,0,.25.25h2.69a2.76,2.76,0,0,0,1.11-.24,2.92,2.92,0,0,0,.91-.65,3.52,3.52,0,0,0,.63-.94,4,4,0,0,0,.32-1.12c.07-.51.11-1.08.14-1.69s0-1.26,0-1.9,0-1.28,0-1.91-.07-1.19-.14-1.71a4,4,0,0,0-.32-1.1,3.28,3.28,0,0,0-.63-1,2.92,2.92,0,0,0-.91-.65,2.47,2.47,0,0,0-1.11-.25h-2.69a.22.22,0,0,0-.25.25ZM553.19,96V79l.15-.36.37-.16h4.87a5,5,0,0,1,3.68,1.59,6.47,6.47,0,0,1,1.15,1.72,6.82,6.82,0,0,1,.57,2.09q.1.77.15,1.71c0,.63,0,1.27,0,1.91s0,1.28,0,1.89-.08,1.18-.14,1.7a6.87,6.87,0,0,1-.56,2.1,5.89,5.89,0,0,1-1.15,1.72,5.33,5.33,0,0,1-1.64,1.15,4.8,4.8,0,0,1-2,.43h-4.87l-.37-.16Z"/><path class="cls-1" d="M567.36,96V79l.16-.36.36-.16h8.31l.36.16.16.36v1.42l-.16.36-.36.15h-6.13a.22.22,0,0,0-.24.25v4.62a.23.23,0,0,0,.24.27h5.84l.36.15a.5.5,0,0,1,.16.36V88l-.16.36-.36.16h-5.84c-.16,0-.24.08-.24.26v5a.22.22,0,0,0,.24.25h6.18l.36.16a.46.46,0,0,1,.16.36V96l-.16.35-.36.16h-8.36l-.36-.16Z"/><path class="cls-1" d="M585.67,89.56c0-.68-.06-1.37-.06-2.08s0-1.41.06-2.07a14.15,14.15,0,0,1,.16-1.77,6.83,6.83,0,0,1,.56-2,5.56,5.56,0,0,1,1.16-1.71,5.8,5.8,0,0,1,1.75-1.18,5.86,5.86,0,0,1,2.3-.44,6.53,6.53,0,0,1,2.21.37,5,5,0,0,1,1.84,1,5.12,5.12,0,0,1,1.75,3.93V84a.51.51,0,0,1-.15.36.46.46,0,0,1-.36.15h-1.42l-.36-.15L595,84v-.37a2.73,2.73,0,0,0-.23-1.09,2.76,2.76,0,0,0-.67-.93A3.51,3.51,0,0,0,593,81a4,4,0,0,0-1.39-.23,3.53,3.53,0,0,0-2.21.74,3.08,3.08,0,0,0-1.13,2.16c-.07.52-.12,1.12-.15,1.79s-.05,1.35-.05,2.06,0,1.39.05,2.06.08,1.26.15,1.79a4.05,4.05,0,0,0,.32,1.1,3.48,3.48,0,0,0,.67.93,3.73,3.73,0,0,0,1,.63,3.29,3.29,0,0,0,1.33.25,4.08,4.08,0,0,0,1.25-.19,3.61,3.61,0,0,0,1.07-.55,2.65,2.65,0,0,0,1-2.16V91l.16-.35a.45.45,0,0,1,.36-.16h1.42l.35.15a.5.5,0,0,1,.16.37v.35a5,5,0,0,1-.42,2,5.35,5.35,0,0,1-1.2,1.71,5.6,5.6,0,0,1-1.84,1.16,6.13,6.13,0,0,1-2.34.43,5.94,5.94,0,0,1-2.14-.36,5.13,5.13,0,0,1-1.75-1.07,5.76,5.76,0,0,1-1.25-1.68,7,7,0,0,1-.63-2.23c-.08-.51-.12-1.11-.16-1.79"/><path class="cls-1" d="M600.15,91.35V79l.15-.35a.48.48,0,0,1,.38-.17h1.4a.48.48,0,0,1,.37.17l.15.35V91.34a2.86,2.86,0,0,0,.29,1.32,2.4,2.4,0,0,0,.75.91,3.36,3.36,0,0,0,1.08.51,4.59,4.59,0,0,0,1.21.17,3.85,3.85,0,0,0,1.34-.22,3.6,3.6,0,0,0,1.07-.61,2.89,2.89,0,0,0,.7-.93,2.72,2.72,0,0,0,.24-1.15V79l.15-.35a.46.46,0,0,1,.37-.17h1.41l.36.17.16.35V91.35a4.89,4.89,0,0,1-.47,2.13,5.07,5.07,0,0,1-1.26,1.7,5.78,5.78,0,0,1-1.84,1.13,6.41,6.41,0,0,1-2.23.38,6.69,6.69,0,0,1-2.3-.38,5.47,5.47,0,0,1-1.84-1.13,5.17,5.17,0,0,1-1.64-3.83"/><path class="cls-1" d="M615.23,96V79l.16-.36.36-.16h1.41l.37.16.16.36V93.8a.22.22,0,0,0,.24.25h5.77a.46.46,0,0,1,.35.16.46.46,0,0,1,.16.36V96l-.16.35a.46.46,0,0,1-.35.16h-8l-.36-.16Z"/><path class="cls-1" d="M623.83,80.43V79l.15-.36a.48.48,0,0,1,.36-.16h9.76l.35.16.16.36v1.42l-.15.36a.5.5,0,0,1-.36.16h-3.38a.23.23,0,0,0-.26.24V96l-.15.36-.36.16h-1.43l-.36-.16L628,96V81.19c0-.16-.08-.24-.26-.24h-3.4a.5.5,0,0,1-.36-.16Z"/><path class="cls-1" d="M636.87,91.35V79l.15-.35a.48.48,0,0,1,.37-.17h1.41a.48.48,0,0,1,.37.17l.15.35V91.34a2.86,2.86,0,0,0,.28,1.32,2.43,2.43,0,0,0,.76.91,3.36,3.36,0,0,0,1.08.51,4.53,4.53,0,0,0,1.21.17A3.88,3.88,0,0,0,644,94a3.48,3.48,0,0,0,1.07-.61,2.72,2.72,0,0,0,.69-.93,2.58,2.58,0,0,0,.25-1.15V79l.15-.35a.46.46,0,0,1,.37-.17h1.41a.44.44,0,0,1,.36.17l.16.35V91.35a4.89,4.89,0,0,1-.47,2.13,5.2,5.2,0,0,1-1.26,1.7,5.78,5.78,0,0,1-1.84,1.13,6.41,6.41,0,0,1-2.23.38,6.69,6.69,0,0,1-2.3-.38,5.47,5.47,0,0,1-1.84-1.13,5.13,5.13,0,0,1-1.21-1.69,5.31,5.31,0,0,1-.43-2.14"/><path class="cls-1" d="M654.4,86.61a.22.22,0,0,0,.25.24h2.45a2.7,2.7,0,0,0,1.14-.23,2.86,2.86,0,0,0,.94-.64,3,3,0,0,0,.64-.93,3,3,0,0,0,.23-1.16,2.87,2.87,0,0,0-.23-1.14,3.15,3.15,0,0,0-.64-.93,2.86,2.86,0,0,0-.94-.64,2.71,2.71,0,0,0-1.14-.24h-2.45a.23.23,0,0,0-.25.25ZM652,96V79l.16-.36a.46.46,0,0,1,.36-.16h4.63a5.28,5.28,0,0,1,2.09.43,5.38,5.38,0,0,1,1.72,1.16,5.49,5.49,0,0,1,1.16,1.72,5.26,5.26,0,0,1-.32,4.79,5.51,5.51,0,0,1-1.93,1.91,1.52,1.52,0,0,0-.49.4.65.65,0,0,0,0,.58l3,6.25a.62.62,0,0,1,0,.53.51.51,0,0,1-.5.24h-1.44a.61.61,0,0,1-.46-.15,1.45,1.45,0,0,1-.28-.36l-3-6.38-.17-.21a.47.47,0,0,0-.32-.1h-1.57a.23.23,0,0,0-.25.26V96l-.16.35-.36.16h-1.41a.46.46,0,0,1-.36-.16Z"/><path class="cls-1" d="M669,89.14v.12c0,.12.08.17.23.17h3.19c.15,0,.22-.05.22-.17l0-.12L671,82l-.1-.15h0l-.11.15ZM664.67,96l4.78-17.11a.45.45,0,0,1,.49-.39h1.79a.45.45,0,0,1,.49.39L677,96v.09l-.09.24a.49.49,0,0,1-.43.18h-1.41a.5.5,0,0,1-.49-.4l-1.13-3.92a.44.44,0,0,0-.49-.36h-4.27a.49.49,0,0,0-.49.36l-1.13,3.92a.5.5,0,0,1-.49.4h-1.42a.49.49,0,0,1-.44-.18l-.08-.24Z"/><path class="cls-1" d="M539,78.23h-1.55a.46.46,0,0,1-.45-.46v-36a.46.46,0,0,1,.45-.46H539a.46.46,0,0,1,.45.46v36a.46.46,0,0,1-.45.46"/><path class="cls-1" d="M524,96.13a43.29,43.29,0,0,1-6.43,3.56L512,86.36A28.82,28.82,0,0,0,516,84.14a29.42,29.42,0,0,0,3.57-2.81l10.19,10.2a43.26,43.26,0,0,1-5.75,4.6m-15.76,6.53a42.71,42.71,0,0,1-7.31.81V89.05a28.36,28.36,0,0,0,4.5-.54h0a29.25,29.25,0,0,0,4.37-1.22l5.51,13.34a45.35,45.35,0,0,1-7.07,2m-7.31-30.5a12.16,12.16,0,0,0,1.21-.18,12.35,12.35,0,0,0,2.34-.71h0a12.32,12.32,0,0,0,2.15-1.15,11.86,11.86,0,0,0,1-.73l10.19,10.19a26.53,26.53,0,0,1-3.16,2.53A27.25,27.25,0,0,1,510,84.59a26.47,26.47,0,0,1-5.05,1.53h0a25.76,25.76,0,0,1-4,.45Zm-2.44,14.41a26.57,26.57,0,0,1-13.71-4.46,27.47,27.47,0,0,1-3.17-2.53l10.19-10.19c.32.26.64.5,1,.73a12.41,12.41,0,0,0,2.16,1.15h0a12.35,12.35,0,0,0,2.34.71c.4.08.81.14,1.21.18Zm0,16.9a42.83,42.83,0,0,1-7.32-.81,45.54,45.54,0,0,1-7.06-2l5.52-13.34A28.79,28.79,0,0,0,494,88.51h0a28.36,28.36,0,0,0,4.5.54Zm-16.64-3.78a43.9,43.9,0,0,1-6.44-3.56,45.28,45.28,0,0,1-5.75-4.6l10.2-10.2a29.32,29.32,0,0,0,3.56,2.81h0a28.93,28.93,0,0,0,4,2.22ZM463.32,84.06a44.85,44.85,0,0,1-3.56-6.44l13.33-5.52a30.07,30.07,0,0,0,5,7.51l-10.2,10.2a45.2,45.2,0,0,1-4.59-5.75M456.8,68.29h0A42.83,42.83,0,0,1,456,61h14.41a31.07,31.07,0,0,0,.55,4.5h0a27.41,27.41,0,0,0,1.23,4.36L462,74.05l-3.17,1.31a42,42,0,0,1-2-7.07m0-17.06a42.14,42.14,0,0,1,2-7.08l13.33,5.53A27.71,27.71,0,0,0,470.93,54h0a31.24,31.24,0,0,0-.55,4.5H456a42.83,42.83,0,0,1,.82-7.31m6.52-15.77a44.34,44.34,0,0,1,4.59-5.75l10.2,10.2a29.16,29.16,0,0,0-2.79,3.56,28.4,28.4,0,0,0-2.23,4L459.76,41.9a44.85,44.85,0,0,1,3.56-6.44m12.07-12.07a42.94,42.94,0,0,1,6.44-3.55l5.52,13.33a27.72,27.72,0,0,0-4,2.21,31.34,31.34,0,0,0-3.56,2.8L469.64,28a45.2,45.2,0,0,1,5.75-4.59m15.76-6.53a46.07,46.07,0,0,1,7.32-.82V30.47A29.55,29.55,0,0,0,494,31a30,30,0,0,0-4.36,1.23l-5.52-13.34a44.47,44.47,0,0,1,7.06-2m7.32,30.5c-.4,0-.81.1-1.21.18a12.64,12.64,0,0,0-2.34.71,12.41,12.41,0,0,0-2.16,1.15c-.34.23-.66.47-1,.72L481.59,39.94a25.53,25.53,0,0,1,7.81-5h0a27,27,0,0,1,5-1.53,28.74,28.74,0,0,1,4-.46Zm-9.14,5.48h0a12.44,12.44,0,0,0-1.86,4.49,12.16,12.16,0,0,0-.18,1.21H472.88a26.46,26.46,0,0,1,4.46-13.71,26.56,26.56,0,0,1,2.52-3.17l10.2,10.2a11.86,11.86,0,0,0-.73,1m.73,14.82-10.2,10.2a27.6,27.6,0,0,1-2.52-3.17,27.2,27.2,0,0,1-2.48-4.64h0a25.55,25.55,0,0,1-2-9.07h14.41c0,.4.1.81.18,1.21a12.64,12.64,0,0,0,.71,2.34,12.32,12.32,0,0,0,1.15,2.15,11.86,11.86,0,0,0,.73,1m10.85-34.72a28.77,28.77,0,0,1,4,.46h0a28.24,28.24,0,0,1,5,1.53,27.2,27.2,0,0,1,4.64,2.48h0a25.76,25.76,0,0,1,3.16,2.53L507.59,50.12c-.31-.25-.64-.49-1-.72a12.32,12.32,0,0,0-2.15-1.15,12.64,12.64,0,0,0-2.34-.71,12.16,12.16,0,0,0-1.21-.18Zm0-16.88h.25c1.08,0,2.16.11,3.24.23l.49.06c1.11.13,2.23.3,3.33.51a44.65,44.65,0,0,1,7.07,2.05l-5.52,13.33A30.77,30.77,0,0,0,505.41,31h0a29.7,29.7,0,0,0-4.5-.53Zm16.64,3.78A42.35,42.35,0,0,1,524,23.39,43.84,43.84,0,0,1,529.73,28l-10.2,10.2a30.37,30.37,0,0,0-3.55-2.8h0A27.61,27.61,0,0,0,512,33.17Zm14.79,70.84L520.42,78.76,508.5,66.84a1.31,1.31,0,0,0-.4-.26,1.25,1.25,0,0,0-.93,0,1.31,1.31,0,0,0-.4.26,10.21,10.21,0,0,1-1.52,1.25,10.63,10.63,0,0,1-1.73.93,9.46,9.46,0,0,1-1.88.56,9.93,9.93,0,0,1-1.95.2,10,10,0,0,1-2-.2,9.87,9.87,0,0,1-1.88-.56,11.06,11.06,0,0,1-1.73-.93,10.67,10.67,0,0,1-1.51-1.25,8.72,8.72,0,0,1-1.25-1.52,9.2,9.2,0,0,1-.92-1.72h0a8.69,8.69,0,0,1-.57-1.88,9.61,9.61,0,0,1,0-3.9,8.69,8.69,0,0,1,.57-1.88h0a9.61,9.61,0,0,1,.92-1.73,9.46,9.46,0,0,1,1.25-1.51,10.67,10.67,0,0,1,1.51-1.25,9.89,9.89,0,0,1,3.61-1.5,10.84,10.84,0,0,1,2-.19,9.92,9.92,0,0,1,5.56,1.69,10.21,10.21,0,0,1,1.52,1.25,1.31,1.31,0,0,0,.4.26,1.25,1.25,0,0,0,.93,0,1.31,1.31,0,0,0,.4-.26l11.92-11.92,11.92-11.92a1.22,1.22,0,0,0,0-1.73,46.2,46.2,0,0,0-7-5.74,45.14,45.14,0,0,0-8-4.28,46.29,46.29,0,0,0-35.34,0,45.14,45.14,0,0,0-8,4.28,46.09,46.09,0,0,0-7,5.74h0a46.76,46.76,0,0,0-5.75,7,45.66,45.66,0,0,0-4.27,8h0a46.31,46.31,0,0,0,0,35.35h0a45.4,45.4,0,0,0,4.27,8,46.87,46.87,0,0,0,5.75,7,45.91,45.91,0,0,0,15,10,46,46,0,0,0,50.32-10,1.23,1.23,0,0,0,0-1.72"/><path class="cls-1" d="M76.1,115.13a4.33,4.33,0,0,1-1.43,3,5.36,5.36,0,0,1-5.84.4,4.52,4.52,0,0,1-1.69-1.94,7,7,0,0,1-.62-2.92v-1.13a7.16,7.16,0,0,1,.6-3,4.67,4.67,0,0,1,1.74-2,4.81,4.81,0,0,1,2.61-.71,4.66,4.66,0,0,1,3.21,1.09A4.51,4.51,0,0,1,76.1,111H74a3,3,0,0,0-.76-1.88,2.5,2.5,0,0,0-1.78-.57,2.46,2.46,0,0,0-2.1,1,4.93,4.93,0,0,0-.74,2.93v1.07a5.29,5.29,0,0,0,.69,3,2.34,2.34,0,0,0,2.05,1,2.69,2.69,0,0,0,1.85-.56,2.87,2.87,0,0,0,.79-1.84Z"/><path class="cls-1" d="M79.54,114.66a3.6,3.6,0,0,0,.57,2.16,2,2,0,0,0,3.18,0,3.93,3.93,0,0,0,.56-2.32,3.57,3.57,0,0,0-.58-2.16,2,2,0,0,0-3.15,0,4,4,0,0,0-.58,2.34m-2-.17a5.3,5.3,0,0,1,.53-2.38,3.77,3.77,0,0,1,1.46-1.62,4.11,4.11,0,0,1,2.17-.57,3.92,3.92,0,0,1,2.94,1.17,4.6,4.6,0,0,1,1.22,3.09v.48a5.35,5.35,0,0,1-.51,2.37,3.78,3.78,0,0,1-1.45,1.61,4.22,4.22,0,0,1-2.2.57,3.89,3.89,0,0,1-3-1.26,4.83,4.83,0,0,1-1.14-3.36Z"/><path class="cls-1" d="M89.56,110.09l.06,1a3.22,3.22,0,0,1,2.61-1.2c1.86,0,2.81,1.08,2.84,3.21v5.92h-2v-5.81a1.81,1.81,0,0,0-.37-1.26,1.54,1.54,0,0,0-1.2-.41,1.94,1.94,0,0,0-1.81,1.1v6.38h-2v-9Z"/><path class="cls-1" d="M102.28,116.61a.92.92,0,0,0-.44-.82,4.91,4.91,0,0,0-1.47-.5,7.44,7.44,0,0,1-1.72-.54,2.29,2.29,0,0,1-1.5-2.11,2.39,2.39,0,0,1,1-1.94,3.91,3.91,0,0,1,2.49-.77,4.05,4.05,0,0,1,2.6.79,2.54,2.54,0,0,1,1,2.06h-2a1.21,1.21,0,0,0-.43-1,1.64,1.64,0,0,0-1.14-.39,1.85,1.85,0,0,0-1.09.31,1,1,0,0,0-.41.82.81.81,0,0,0,.39.71,5,5,0,0,0,1.57.52,7.72,7.72,0,0,1,1.86.62,2.83,2.83,0,0,1,1,.87,2.43,2.43,0,0,1-.69,3.18,4.24,4.24,0,0,1-2.62.75,4.55,4.55,0,0,1-2-.4,3.23,3.23,0,0,1-1.34-1.09,2.57,2.57,0,0,1-.48-1.5h2a1.45,1.45,0,0,0,.54,1.1,2.07,2.07,0,0,0,1.32.39,2,2,0,0,0,1.21-.31.93.93,0,0,0,.41-.79"/><path class="cls-1" d="M109.85,111.53a1.71,1.71,0,0,0-1.34.58,3.07,3.07,0,0,0-.65,1.62h3.83v-.15a2.4,2.4,0,0,0-.53-1.52,1.69,1.69,0,0,0-1.31-.53m.24,7.68A4.16,4.16,0,0,1,107,118a4.33,4.33,0,0,1-1.19-3.21v-.24a5.29,5.29,0,0,1,.52-2.4,3.89,3.89,0,0,1,1.45-1.65,3.84,3.84,0,0,1,2.08-.58,3.49,3.49,0,0,1,2.83,1.16,5,5,0,0,1,1,3.31v.8h-5.85a2.71,2.71,0,0,0,.74,1.76,2.22,2.22,0,0,0,1.63.65,2.73,2.73,0,0,0,2.25-1.12l1.09,1a3.57,3.57,0,0,1-1.44,1.25,4.43,4.43,0,0,1-2,.44"/><rect class="cls-1" x="115.51" y="106.33" width="2.01" height="12.71"/><rect class="cls-1" x="119.97" y="106.33" width="2.01" height="12.71"/><path class="cls-1" d="M128,111.53a1.69,1.69,0,0,0-1.33.58,3.07,3.07,0,0,0-.66,1.62h3.83v-.15a2.4,2.4,0,0,0-.53-1.52,1.68,1.68,0,0,0-1.31-.53m.24,7.68a4.16,4.16,0,0,1-3.1-1.2A4.33,4.33,0,0,1,124,114.8v-.24a5.43,5.43,0,0,1,.52-2.4,3.82,3.82,0,0,1,3.53-2.23,3.49,3.49,0,0,1,2.83,1.16,4.92,4.92,0,0,1,1,3.31v.8H126a2.71,2.71,0,0,0,.74,1.76,2.23,2.23,0,0,0,1.64.65,2.74,2.74,0,0,0,2.25-1.12l1.08,1a3.57,3.57,0,0,1-1.44,1.25,4.4,4.4,0,0,1-2,.44"/><path class="cls-1" d="M138.23,111.93a4.47,4.47,0,0,0-.82-.07,1.85,1.85,0,0,0-1.87,1.06v6.13h-2v-9h1.92l0,1a2.25,2.25,0,0,1,2-1.17,1.78,1.78,0,0,1,.71.12Z"/><path class="cls-1" d="M141.78,119.05h-2v-9h2Zm-2.14-11.29a1.07,1.07,0,0,1,.29-.77,1.29,1.29,0,0,1,1.68,0,1.09,1.09,0,0,1,.31.77,1,1,0,0,1-.31.76,1.29,1.29,0,0,1-1.68,0,1,1,0,0,1-.29-.76"/><path class="cls-1" d="M147.24,117.6a2.31,2.31,0,0,0,1.12-.29,2,2,0,0,0,.79-.78v-1.69h-1.08a3,3,0,0,0-1.68.38,1.29,1.29,0,0,0-.57,1.11,1.16,1.16,0,0,0,.39.92,1.49,1.49,0,0,0,1,.35m2.21,1.45a2.83,2.83,0,0,1-.23-.84,3.13,3.13,0,0,1-2.35,1,3.18,3.18,0,0,1-2.21-.77,2.46,2.46,0,0,1-.84-1.9,2.54,2.54,0,0,1,1.06-2.2,5.15,5.15,0,0,1,3-.77h1.23V113a1.58,1.58,0,0,0-.39-1.11,1.53,1.53,0,0,0-1.18-.42,1.77,1.77,0,0,0-1.13.35,1.07,1.07,0,0,0-.44.87h-2a2.22,2.22,0,0,1,.48-1.37,3.25,3.25,0,0,1,1.33-1,4.69,4.69,0,0,1,1.87-.37,3.74,3.74,0,0,1,2.51.8,2.78,2.78,0,0,1,1,2.21v4a4.7,4.7,0,0,0,.34,1.93v.14Z"/><path class="cls-1" d="M159.4,114.68a3.65,3.65,0,0,0,.53,2.13,1.67,1.67,0,0,0,1.48.76,1.89,1.89,0,0,0,1.81-1.1v-3.83a1.87,1.87,0,0,0-1.79-1.07,1.69,1.69,0,0,0-1.5.77,4.13,4.13,0,0,0-.53,2.34m-2-.18a5.3,5.3,0,0,1,1-3.32,3.06,3.06,0,0,1,2.57-1.26,2.91,2.91,0,0,1,2.3,1v-4.59h2v12.72h-1.82l-.1-.93a3,3,0,0,1-2.4,1.09,3.06,3.06,0,0,1-2.55-1.26,5.54,5.54,0,0,1-1-3.45"/><path class="cls-1" d="M167.89,110.57l-1-.64a4.11,4.11,0,0,0,.77-2.29v-1.31h1.76v1.15a3.73,3.73,0,0,1-.43,1.71,4.21,4.21,0,0,1-1.07,1.38"/><polygon class="cls-1" points="178.51 113.67 173.57 113.67 173.57 117.37 179.35 117.37 179.35 119.05 171.47 119.05 171.47 106.99 179.29 106.99 179.29 108.68 173.57 108.68 173.57 112.01 178.51 112.01 178.51 113.67"/><path class="cls-1" d="M182.63,114.68a3.73,3.73,0,0,0,.53,2.13,1.7,1.7,0,0,0,1.49.76,1.89,1.89,0,0,0,1.81-1.1v-3.83a1.88,1.88,0,0,0-1.79-1.07,1.72,1.72,0,0,0-1.51.77,4.22,4.22,0,0,0-.53,2.34m-2-.18a5.3,5.3,0,0,1,1-3.32,3.08,3.08,0,0,1,2.58-1.26,2.92,2.92,0,0,1,2.3,1v-4.59h2v12.72h-1.82l-.11-.93a2.93,2.93,0,0,1-2.4,1.09,3.09,3.09,0,0,1-2.55-1.26,5.61,5.61,0,0,1-1-3.45"/><path class="cls-1" d="M196.13,118.17a3.14,3.14,0,0,1-2.52,1,2.76,2.76,0,0,1-2.2-.85,3.63,3.63,0,0,1-.75-2.47v-5.8h2v5.77c0,1.14.47,1.72,1.41,1.72a2,2,0,0,0,2-1.06v-6.43h2v9h-1.9Z"/><path class="cls-1" d="M203.94,117.61a1.79,1.79,0,0,0,1.25-.45,1.5,1.5,0,0,0,.53-1.08h1.89a2.88,2.88,0,0,1-.52,1.56,3.44,3.44,0,0,1-1.32,1.15,4,4,0,0,1-1.81.42,3.8,3.8,0,0,1-3-1.22,4.84,4.84,0,0,1-1.1-3.36v-.21a4.74,4.74,0,0,1,1.1-3.27,3.8,3.8,0,0,1,3-1.23,3.68,3.68,0,0,1,2.6.93,3.35,3.35,0,0,1,1.05,2.45h-1.89a1.86,1.86,0,0,0-.53-1.26,1.64,1.64,0,0,0-1.25-.5,1.79,1.79,0,0,0-1.51.71,3.56,3.56,0,0,0-.54,2.14v.32a3.68,3.68,0,0,0,.53,2.18,1.76,1.76,0,0,0,1.52.72"/><path class="cls-1" d="M212.41,117.6a2.31,2.31,0,0,0,1.12-.29,2,2,0,0,0,.79-.78v-1.69h-1.08a3,3,0,0,0-1.68.38,1.29,1.29,0,0,0-.57,1.11,1.16,1.16,0,0,0,.39.92,1.49,1.49,0,0,0,1,.35m2.21,1.45a3.11,3.11,0,0,1-.24-.84,3.08,3.08,0,0,1-2.35,1,3.17,3.17,0,0,1-2.2-.77,2.47,2.47,0,0,1-.85-1.9,2.54,2.54,0,0,1,1.06-2.2,5.19,5.19,0,0,1,3-.77h1.24V113a1.58,1.58,0,0,0-.39-1.11,1.53,1.53,0,0,0-1.18-.42,1.77,1.77,0,0,0-1.13.35,1.07,1.07,0,0,0-.44.87h-2a2.17,2.17,0,0,1,.49-1.37,3.25,3.25,0,0,1,1.33-1,4.69,4.69,0,0,1,1.87-.37,3.74,3.74,0,0,1,2.51.8,2.75,2.75,0,0,1,1,2.21v4a4.7,4.7,0,0,0,.34,1.93v.14Z"/><path class="cls-1" d="M222.25,117.61a1.78,1.78,0,0,0,1.25-.45,1.51,1.51,0,0,0,.54-1.08h1.88a2.87,2.87,0,0,1-.51,1.56,3.47,3.47,0,0,1-1.33,1.15,3.91,3.91,0,0,1-1.8.42,3.79,3.79,0,0,1-3-1.22,4.79,4.79,0,0,1-1.1-3.36v-.21a4.73,4.73,0,0,1,1.09-3.27,3.82,3.82,0,0,1,3-1.23,3.67,3.67,0,0,1,2.6.93,3.27,3.27,0,0,1,1,2.45H224a1.91,1.91,0,0,0-.53-1.26,1.67,1.67,0,0,0-1.26-.5,1.76,1.76,0,0,0-1.5.71,3.49,3.49,0,0,0-.54,2.14v.32a3.69,3.69,0,0,0,.52,2.18,1.78,1.78,0,0,0,1.52.72"/><path class="cls-1" d="M229.72,119.05h-2v-9h2Zm-2.13-11.29a1.07,1.07,0,0,1,.29-.77,1.12,1.12,0,0,1,.84-.31,1.18,1.18,0,0,1,.85.31,1.12,1.12,0,0,1,.29.77,1.07,1.07,0,0,1-.29.76,1.14,1.14,0,0,1-.85.31,1.09,1.09,0,0,1-.84-.31,1,1,0,0,1-.29-.76"/><path class="cls-1" d="M236.38,106.33h2.29l-2.29,2.51h-1.61Zm-2.7,8.33a3.6,3.6,0,0,0,.57,2.16,2,2,0,0,0,3.18,0,3.93,3.93,0,0,0,.57-2.32,3.57,3.57,0,0,0-.59-2.16,2,2,0,0,0-3.15,0,3.88,3.88,0,0,0-.58,2.34m-2-.17a5.3,5.3,0,0,1,.53-2.38,3.77,3.77,0,0,1,1.46-1.62,4.11,4.11,0,0,1,2.17-.57,3.92,3.92,0,0,1,2.94,1.17,4.65,4.65,0,0,1,1.22,3.09v.48a5.22,5.22,0,0,1-.52,2.37,3.72,3.72,0,0,1-1.45,1.61,4.16,4.16,0,0,1-2.19.57,3.89,3.89,0,0,1-3-1.26,4.83,4.83,0,0,1-1.14-3.36Z"/><path class="cls-1" d="M242.12,121.76l-1.09-.65a5.72,5.72,0,0,0,.66-1.31,3.39,3.39,0,0,0,.19-1.13v-1.56h1.81v1.44a4,4,0,0,1-.44,1.76,4.4,4.4,0,0,1-1.12,1.45"/><path class="cls-1" d="M76.1,135.47a4.33,4.33,0,0,1-1.43,3,4.8,4.8,0,0,1-3.3,1.09,4.69,4.69,0,0,1-2.54-.69,4.52,4.52,0,0,1-1.69-1.94,7,7,0,0,1-.62-2.92v-1.13a7.11,7.11,0,0,1,.6-3,4.69,4.69,0,0,1,1.74-2,4.9,4.9,0,0,1,2.61-.7,4.65,4.65,0,0,1,3.21,1.08,4.53,4.53,0,0,1,1.42,3.06H74a3,3,0,0,0-.76-1.88,2.5,2.5,0,0,0-1.78-.57,2.47,2.47,0,0,0-2.1,1,4.91,4.91,0,0,0-.74,2.93v1.07a5.26,5.26,0,0,0,.69,3,2.34,2.34,0,0,0,2.05,1,2.74,2.74,0,0,0,1.85-.55,2.9,2.9,0,0,0,.79-1.85Z"/><path class="cls-1" d="M83.33,138.51a3.13,3.13,0,0,1-2.52,1.05,2.78,2.78,0,0,1-2.2-.85,3.67,3.67,0,0,1-.74-2.48v-5.79h2v5.77c0,1.13.46,1.71,1.41,1.71a2,2,0,0,0,2-1v-6.43h2v9h-1.9Z"/><rect class="cls-1" x="87.59" y="126.67" width="2.01" height="12.71"/><path class="cls-1" d="M94.45,128.25v2.18H96v1.49H94.45v5a1.16,1.16,0,0,0,.2.75,1,1,0,0,0,.73.22,3.42,3.42,0,0,0,.7-.08v1.56a5.27,5.27,0,0,1-1.33.19c-1.54,0-2.31-.86-2.31-2.56v-5.08H91v-1.49h1.47v-2.18Z"/><path class="cls-1" d="M103.13,138.51a3.14,3.14,0,0,1-2.52,1.05,2.75,2.75,0,0,1-2.2-.85,3.68,3.68,0,0,1-.75-2.48v-5.79h2v5.77c0,1.13.47,1.71,1.41,1.71a2,2,0,0,0,2-1v-6.43h2v9h-1.9Z"/><path class="cls-1" d="M112,132.27a4.5,4.5,0,0,0-.83-.07,1.85,1.85,0,0,0-1.86,1.06v6.13h-2v-9h1.92l0,1a2.28,2.28,0,0,1,2-1.18,1.81,1.81,0,0,1,.71.12Z"/><path class="cls-1" d="M116.49,137.94a2.38,2.38,0,0,0,1.13-.29,2,2,0,0,0,.79-.78v-1.68h-1.09a3,3,0,0,0-1.68.38,1.26,1.26,0,0,0-.56,1.11,1.21,1.21,0,0,0,.38.92,1.49,1.49,0,0,0,1,.34m2.21,1.45a3.18,3.18,0,0,1-.23-.84,3.09,3.09,0,0,1-2.35,1,3.17,3.17,0,0,1-2.2-.77,2.47,2.47,0,0,1-.85-1.91,2.55,2.55,0,0,1,1.06-2.2,5.25,5.25,0,0,1,3-.76h1.24v-.59a1.42,1.42,0,0,0-1.58-1.54,1.74,1.74,0,0,0-1.12.35,1.09,1.09,0,0,0-.44.88h-2a2.25,2.25,0,0,1,.48-1.38,3.25,3.25,0,0,1,1.33-1,4.74,4.74,0,0,1,1.88-.36,3.71,3.71,0,0,1,2.5.79,2.77,2.77,0,0,1,1,2.22v4a4.53,4.53,0,0,0,.35,1.93v.14Z"/><path class="cls-1" d="M129.16,139.4h-2v-9h2ZM127,128.11a1.08,1.08,0,0,1,.29-.77,1.31,1.31,0,0,1,1.69,0,1.09,1.09,0,0,1,.3.77,1.1,1.1,0,0,1-.3.76,1.34,1.34,0,0,1-1.69,0,1.09,1.09,0,0,1-.29-.76"/><polygon class="cls-1" points="143.08 134.01 138.13 134.01 138.13 137.72 143.91 137.72 143.91 139.39 136.04 139.39 136.04 127.33 143.85 127.33 143.85 129.02 138.13 129.02 138.13 132.36 143.08 132.36 143.08 134.01"/><path class="cls-1" d="M150.58,137a.91.91,0,0,0-.45-.82,4.47,4.47,0,0,0-1.46-.5,7.41,7.41,0,0,1-1.72-.55,2.3,2.3,0,0,1-1.51-2.11,2.4,2.4,0,0,1,1-1.94,3.91,3.91,0,0,1,2.48-.77,4,4,0,0,1,2.6.79,2.52,2.52,0,0,1,1,2.06h-2a1.22,1.22,0,0,0-.43-1,1.65,1.65,0,0,0-1.15-.39,1.77,1.77,0,0,0-1.08.31,1,1,0,0,0-.42.82.82.82,0,0,0,.4.72,4.91,4.91,0,0,0,1.57.51,7.27,7.27,0,0,1,1.86.63,2.69,2.69,0,0,1,1,.86,2.22,2.22,0,0,1,.33,1.23,2.29,2.29,0,0,1-1,2,4.24,4.24,0,0,1-2.62.76,4.7,4.7,0,0,1-2-.4,3.4,3.4,0,0,1-1.34-1.09,2.62,2.62,0,0,1-.48-1.5h1.95a1.43,1.43,0,0,0,.54,1.09,2.07,2.07,0,0,0,1.32.39,2,2,0,0,0,1.21-.31.92.92,0,0,0,.41-.78"/><path class="cls-1" d="M160.28,134.83a3.73,3.73,0,0,0-.53-2.13,1.75,1.75,0,0,0-1.53-.79,1.85,1.85,0,0,0-1.77,1v4a1.87,1.87,0,0,0,1.79,1,1.74,1.74,0,0,0,1.5-.77,4.14,4.14,0,0,0,.54-2.35m2,.18a5.33,5.33,0,0,1-.95,3.31,3,3,0,0,1-2.53,1.24,3.07,3.07,0,0,1-2.36-1v4.24h-2v-12.4h1.85l.08.91a3,3,0,0,1,2.41-1.07,3.05,3.05,0,0,1,2.57,1.22,5.4,5.4,0,0,1,.94,3.39Z"/><path class="cls-1" d="M165.76,135a3.53,3.53,0,0,0,.57,2.16,2,2,0,0,0,3.18,0,4,4,0,0,0,.55-2.32,3.61,3.61,0,0,0-.57-2.16,1.89,1.89,0,0,0-1.59-.79,1.86,1.86,0,0,0-1.57.78,4,4,0,0,0-.57,2.35m-2-.18a5.22,5.22,0,0,1,.52-2.37,3.87,3.87,0,0,1,1.46-1.63,4.14,4.14,0,0,1,2.17-.57,3.9,3.9,0,0,1,2.94,1.18,4.57,4.57,0,0,1,1.23,3.09V135a5.15,5.15,0,0,1-.51,2.36,3.78,3.78,0,0,1-1.45,1.61,4.1,4.1,0,0,1-2.19.58,3.88,3.88,0,0,1-3-1.27,4.82,4.82,0,0,1-1.14-3.36Z"/><path class="cls-1" d="M178.6,132.27a4.39,4.39,0,0,0-.82-.07,1.85,1.85,0,0,0-1.86,1.06v6.13h-2v-9h1.92l.05,1a2.29,2.29,0,0,1,2-1.18,1.85,1.85,0,0,1,.71.12Z"/><path class="cls-1" d="M182.53,128.25v2.18h1.58v1.49h-1.58v5a1.16,1.16,0,0,0,.2.75,1,1,0,0,0,.72.22,3.51,3.51,0,0,0,.71-.08v1.56a5.27,5.27,0,0,1-1.33.19c-1.54,0-2.32-.86-2.32-2.56v-5.08H179v-1.49h1.47v-2.18Z"/><path class="cls-1" d="M333.73,63.33l-.89,2.25h-3.59l5-13h3.68l4.89,13h-3.6l-.84-2.25Zm2.36-6.72h0l-1.38,4.13h2.8Z"/><path class="cls-1" d="M360.63,52.6v7.3c0,1.67-.07,3.32-1.36,4.58a7.16,7.16,0,0,1-8.61,0c-1.29-1.26-1.36-2.91-1.36-4.58V52.6h3.38v6.83c0,1.69.12,3.53,2.28,3.53s2.3-1.84,2.3-3.53V52.6Z"/><polygon class="cls-1" points="362.76 52.6 366.14 52.6 372.31 60.54 372.36 60.54 372.36 52.6 375.72 52.6 375.72 65.58 372.36 65.58 366.17 57.63 366.14 57.63 366.14 65.58 362.76 65.58 362.76 52.6"/><path class="cls-1" d="M361.88,70.57A11.65,11.65,0,0,0,355.74,74a16.49,16.49,0,0,0-4,5.9,8,8,0,0,0,.14,6.34,4.7,4.7,0,0,0,4.19,2.69c3.38.07,7.1-2,6.77-2.56-.11-.14-.66.17-.6,0,.53-.29,1.57-.74,1.47-1s-.43-.07-.58.06c.19-.17.31-.4.15-.53l.92-.75a2.46,2.46,0,0,0,.4-.39c.18-.21.37-.51.23-.73s-1.81.65-2,.76a24.64,24.64,0,0,1-4.6,2.15c-1.05.28-2.6.29-3.23-.77a2.07,2.07,0,0,1-.1-2.18c.53-.71,1.27-.75,2.15-.88a11.26,11.26,0,0,0,8.51-6.57,4,4,0,0,0,.25-3.29c-.64-1.36-2.41-1.83-3.89-1.61m2.26,13c0,.15-.22.26-.29.15s.29-.22.29-.15m-8.12-4c.94-2,3.71-5.07,5.66-5.23-.44,2-3,4.44-5.66,5.23"/><path class="cls-1" d="M381.75,89.4c0-.12.27-.21.45-.31a1.25,1.25,0,0,0,.55-.56.86.86,0,0,0-.08-.71c-.12-.14-.31,0-.31,0a.61.61,0,0,0,.28-.34.6.6,0,0,0-.06-.51c-.08-.09-.19-.18-.47.13a1.16,1.16,0,0,1-1.39.15c-.74-.47-.77-1.69-.69-2.33a19.8,19.8,0,0,1,1.11-4.41c.38-1.1.71-1.83,1-3,.09-.33.11-.47,0-.69s-.24-.28-.34-.16a3.19,3.19,0,0,0-.19.48c0,.09-.23.31-.28.11s.05-.26.1-.37l.13-.33a1.44,1.44,0,0,0-1.86-1.43c-.5.25-.66.54-1,1.23-.7,1.51-1.19,3.13-1.83,4.65a7.89,7.89,0,0,1-2.22,3.33,1.79,1.79,0,0,1-2.42.05c-1.13-1-.68-3.63-.21-5.29a32.76,32.76,0,0,1,1.12-3.2,6.65,6.65,0,0,0,.79-3,2.81,2.81,0,0,0-2-2.27.43.43,0,0,0-.25,0c-.11,0-.15.15-.19.25-.31.8-.63,1.6-.95,2.4-.27-.17-.17-.61,0-.89s.38-.62.23-.91a1,1,0,0,0-.23.12c.12-.32.23-.64.36-.95a.37.37,0,0,0,0-.29.25.25,0,0,0-.33,0,.65.65,0,0,0-.22.3,26.23,26.23,0,0,0-2.11,5.68c-.73,3.31-1.36,7.82.85,10.67a4.86,4.86,0,0,0,5.1,1.72,7.71,7.71,0,0,0,3.39-2.51,3.87,3.87,0,0,0,1.88,3.41,3.26,3.26,0,0,0,2.78,0c.2-.1.23-.24.21-.3s-.22-.06-.29,0c-.25.15-.42.21-.46.08"/><path class="cls-1" d="M362.57,38.9a9.82,9.82,0,0,1-19.63,0c0-5.37,4.7-9.14,9.82-9.14s9.81,3.77,9.81,9.14m-14.83,0a5,5,0,1,0,10,0,5,5,0,0,0-10,0"/><polygon class="cls-1" points="371.79 48.1 367.17 48.1 367.17 34.25 363.36 34.25 363.36 30.34 375.6 30.34 375.6 34.25 371.79 34.25 371.79 48.1"/><path class="cls-1" d="M387.61,34.92a4.84,4.84,0,0,0-3.06-1.18c-.85,0-2,.5-2,1.48s1.24,1.44,2,1.7l1.18.35c2.47.73,4.38,2,4.38,4.85a6,6,0,0,1-1.84,4.78,7.78,7.78,0,0,1-5,1.68,11,11,0,0,1-6.24-2l2-3.72a6.34,6.34,0,0,0,4.1,1.84c1.08,0,2.23-.54,2.23-1.8s-1.8-1.74-2.79-2c-2.91-.83-4.81-1.58-4.81-5a5.75,5.75,0,0,1,6.11-6,12.1,12.1,0,0,1,5.57,1.46Z"/><path class="cls-1" d="M381.92,52.6l-5,13h3.58l.89-2.25h4.65l.85,2.25h3.59l-4.89-13Zm1.81,4h0l1.38,4.13h-2.81Z"/><path class="cls-1" d="M352.76,73.23c.17-.29.62-.66.41-.83s-3.5,4.5-3.82,4.2.31-.72.75-.91c.14-.12,0-.32,0-.49.05.13.05.26.19.22s.25-.46.21-.71a1,1,0,0,0,.19.16c.1.06.15,0,.21-.08.25-.37.52-.74.78-1.1.07-.09.1-.21.17-.31s.19-.12.25-.22c.51-.71,1.08-1.37,1.57-2.1.16-.25,0-.29-.07-.21s-.2,0-.12-.08c.24-.3.6-.76.47-.83a6.14,6.14,0,0,0-1.65,1.85c.09,0,.13,0,.18-.1a.31.31,0,0,1,.09-.11s.13,0,.15,0,0,.12,0,.15l-.06.14a1.82,1.82,0,0,1-.13.28,1.19,1.19,0,0,1-.4.46.85.85,0,0,1-.19.1.08.08,0,0,1-.08,0c-.07,0,.06-.21.09-.25a2.32,2.32,0,0,1,.21-.25,1.16,1.16,0,0,0,.16-.21c0-.07,0-.21-.09-.16A.43.43,0,0,0,352,72a5.54,5.54,0,0,1-.57.71c-.23.25-.44.5-.67.76-.43.51-.86,1-1.31,1.54-.06.07-.11.14-.17.2-.7.79-1.39,1.6-2.07,2.4-1.38,1.62-2.75,3.25-4.14,4.84-.4.46-.8.91-1.21,1.36-.16.19-1,1.28-1.55,1-1.16-.68,1.57-4.69,1.76-7.57a4.74,4.74,0,0,0-.77-3.37,4.34,4.34,0,0,0-3.36-1.4c.27.12.2.77.19,1a12.71,12.71,0,0,1-.31,2.31,29,29,0,0,1-1,3.68,10.31,10.31,0,0,0-.17,6.87,3.69,3.69,0,0,0,2.85,2.48c1.56.17,2.93-1,4-2.15A45.72,45.72,0,0,0,347.89,81a9.68,9.68,0,0,0,.71-1.46c0-.12,0-.41-.17-.22-.52.6-1.41,1.93-1.64,1.73s.43-.56.7-.9c.95-1.16,1.84-2.42,2.85-3.54a18.89,18.89,0,0,0,2.42-3.33"/><polygon class="cls-1" points="338.34 48.1 333.72 48.1 333.72 34.25 329.92 34.25 329.92 30.34 342.16 30.34 342.16 34.25 338.34 34.25 338.34 48.1"/><path class="cls-1" d="M288.78,33.21V30H270.65v3.21h7.23V54.5h3.44V33.21ZM272.22,54.5,262,29.68h-1.09L250.6,54.5h3.56l2-5h10.45l2,5Zm-6.88-8.2h-7.86l3.94-9.61ZM245,33.21h7.19V30H234.27v3.21h7.23V54.5H245ZM230.18,90h3.56L223.48,65.17h-1.09L212.13,90h3.55l2-5h10.46Zm-3.32-8.2H219l3.93-9.62Zm-.59-27.29h3.48V30h-3.48Zm-18.79,0h14.26V51.29H210.93V30h-3.45Zm.53,11h-3.49V90H208Zm-8.21-11h3.56L193.1,29.68H192L181.74,54.5h3.56l2-5h10.46Zm-3.32-8.2h-7.86l3.93-9.61Zm-7.66,18.92a12.53,12.53,0,1,0,10.66,19.65l-2.76-2A9,9,0,0,1,189,87c-5.2,0-9-3.9-9-9.28s3.78-9.28,8.8-9.28a8.48,8.48,0,0,1,7.34,3.8l2.7-2a11.64,11.64,0,0,0-10-5.08M178.73,54.5l-5.29-7.73a8,8,0,0,0,5.11-7.87c0-5.57-3.82-8.9-10.23-8.9h-6.48V54.5h3.45V47.74h3a15.16,15.16,0,0,0,1.62-.09l4.59,6.85Zm-10.55-10h-2.89V33.21h2.89c4.59,0,6.82,1.86,6.82,5.69s-2.23,5.65-6.82,5.65m-28,10h15.74V51.29H143.63V45.85h10.54V42.67H143.63V33.21h11.81V30H140.17Zm-7.94.32h1.09V30H130V47.39L114.42,29.68h-1.09V54.5h3.31V37.1Zm-17.8,10.67H111V90h14.26V86.78H114.43Zm-22.77-11H107.4V51.29H95.12V45.85h10.54V42.67H95.12V33.21h11.8V30H91.66Zm-15,35.82L87,65.49H83.24L76.16,83.1,69.08,65.49H65.35L75.62,90.32Zm-.86-35.55a13.36,13.36,0,0,0,9.82-3.58V42.67H75.31v3.22h7v3.7a10.06,10.06,0,0,1-6.47,1.94,8.94,8.94,0,0,1-9.21-9.28C66.64,37,70.42,33,75.43,33a8.48,8.48,0,0,1,7.23,3.33L85.13,34a11.75,11.75,0,0,0-9.62-4.28,12.52,12.52,0,1,0,.34,25M47.32,115.86a36.26,36.26,0,0,0,.68-7.1L18.57,79.33l-3.88,3.88Zm-9.64-32.1L25.92,72,22,75.88,47.14,101a35,35,0,0,0-9.46-17.23m-3.61-9.23,13.31-13.3-.88-.83c-5.35-5-7.64-9.75-7.64-15.81V38.11l3.65-8.88a1.73,1.73,0,0,0,1.14-1.63,1.75,1.75,0,1,0-3.49,0,1.73,1.73,0,0,0,.42,1.13,4.9,4.9,0,0,1-3.32,3.11A8.41,8.41,0,0,1,42.17,21a8.36,8.36,0,0,1,.92-11.35,10.36,10.36,0,0,0-7.36,1.25,7.53,7.53,0,0,1-3-6,7.31,7.31,0,0,1,.18-1.62,6.77,6.77,0,0,1-2.67.54A7,7,0,0,1,24,0a6,6,0,0,1-5,2.77A5.94,5.94,0,0,1,14,.05C14.44,5,13,10.79,8.76,13.87l1.15,1.51a17.84,17.84,0,0,0,2-1.72,1.16,1.16,0,0,1,.88-.42,1,1,0,0,1,1,1,1.41,1.41,0,0,1-.19.63,4.32,4.32,0,0,0-.46,1.93,4.39,4.39,0,0,0,.42,1.88l1.72-.81c-.8-1.73.57-3.33,2.75-4.95,1.56-1.15,3.2-2.25,4.4-2.25a2.43,2.43,0,0,1,2.44,2.42c0,1.51-1.49,2.71-2.64,3.43-4.3,2.71-8.63,4.69-10.63,9.45a17.32,17.32,0,0,0-1.19,5.22,5.33,5.33,0,0,1-1.95-2.47,1.73,1.73,0,0,0,.42-1.13,1.75,1.75,0,0,0-3.5,0,1.73,1.73,0,0,0,1.14,1.63l3.67,8.91L5.55,47.43a58,58,0,0,1,4.58,13.12c1.07,6,.2,15.31.2,15.31l17.16-8.64a18.81,18.81,0,0,0,2.72,3.45l3.86,3.86M8.4,48.48H18.79V69.24l-6.1,3.06a60.56,60.56,0,0,0-.48-12.12A55.93,55.93,0,0,0,8.4,48.48m3.92-10H23.81v6.07c0,1.81,0,5.59.28,9.63A31.1,31.1,0,0,0,26.5,65.37l-5.59,2.81V46.37H8.44ZM35.85,24.2A10.35,10.35,0,0,0,35.21,32a4.89,4.89,0,0,1-3.79-3.07A1.73,1.73,0,0,0,32,27.6a1.75,1.75,0,0,0-3.5,0,1.71,1.71,0,0,0,.57,1.28,4.87,4.87,0,0,1-9.11,0,1.75,1.75,0,1,0-2.37,0A4.86,4.86,0,0,1,13,32a4.91,4.91,0,0,1-.68-.06,15.26,15.26,0,0,1,.94-5.07c2-5,8.24-7.43,11.13-9.48a5.67,5.67,0,0,0,2.38-4.31,4.43,4.43,0,0,0-4.41-4.4c-2.27,0-5.58,2.56-7.15,4.1a3,3,0,0,0-1.66-1.32A19.67,19.67,0,0,0,15.9,4.11a7.81,7.81,0,0,0,3.1.63,7.92,7.92,0,0,0,4.85-1.66,8.91,8.91,0,0,0,6.39,2.69,5.43,5.43,0,0,0,.57,0,9.48,9.48,0,0,0,3.25,6.33,14.84,14.84,0,0,0-2.82,3.15A14.31,14.31,0,0,1,26.1,20a7.37,7.37,0,0,1-2.33.81A9.88,9.88,0,0,1,24,23a10.36,10.36,0,0,1-.69,3.71l1.83.71A12.22,12.22,0,0,0,26,23c0-.17,0-.35,0-.54a15.44,15.44,0,0,0,7-6,10.45,10.45,0,0,1,6.24-4.67,10.36,10.36,0,0,0,.16,8.45,10.39,10.39,0,0,0-3.54,4m2.81,9.23-1.22,3H11.55l-1.22-3A6.68,6.68,0,0,0,13,34a6.83,6.83,0,0,0,5.73-3.11,6.85,6.85,0,0,0,11.48,0A6.85,6.85,0,0,0,36,34a6.71,6.71,0,0,0,2.69-.56m5.69,27.84L34.07,71.53l-2.36-2.36c-4-4-5.1-8.93-5.5-15.09-.19-2.85-.27-6-.27-9.49V38.52h10.8v6.07c0,6.4,2.35,11.5,7.61,16.68M32.43,48.48h2.5V46.37h-2.5v-2.5H30.31v2.5H27.82v2.11h2.49V51H31v3.24h.67V51h.72Zm-13.38-41a1.13,1.13,0,1,0-1.13,1.12,1.12,1.12,0,0,0,1.13-1.12m-10.68,11c-2.12,3.14-2.48,3.22-2.48,3.22A3,3,0,0,0,9.16,20.4c2.13-3.15,2.51-3.22,2.51-3.22a3,3,0,0,0-3.3,1.23M29,119.13,3.89,94,0,97.9l11.77,11.77A35.14,35.14,0,0,0,29,119.13M7.35,90.56,36.77,120a36.89,36.89,0,0,0,7.1-.68L11.23,86.67ZM95.5,65.17,85.24,90H88.8l2-5h10.47l2,5h3.56L96.6,65.17ZM92.12,81.79l3.93-9.62L100,81.79ZM145,65.49H129.76V90H145.5V86.78H133.22V81.35h10.54V78.16H133.22V68.7H145Zm7.48-.32h-1.08V90h3.31V72.58l15.6,17.73h1.09V65.49h-3.32v17.4Zm86.44,0h-1.09V90h3.31V72.59l15.59,17.73h1.1V65.49h-3.32v17.4Zm33.28,0L262,90h3.56l2-5H278l2,5h3.55L273.32,65.17Zm-3.38,16.62,3.93-9.62,3.93,9.62Z"/><rect class="cls-1" x="308.22" y="29.44" width="2.1" height="60.15"/></svg>