<svg version="1.1" xmlns="http://www.w3.org/2000/svg" xmlns:xlink="http://www.w3.org/1999/xlink" x="0px" y="0px" width="113.4px"
	 height="46.8px" viewBox="0 0 113.4 46.8" style="overflow:visible;enable-background:new 0 0 113.4 46.8;" xml:space="preserve">
<path fill="currentColor" d="M95,24.3c0,0.1,0,0.1,0.1,0.1h1.6c0.1,0,0.1,0,0.1-0.1L96,20.6c0-0.1,0-0.1-0.1-0.1h0c0,0,0,0-0.1,0.1L95,24.3z
	 M94.3,16.4c0-0.1,0.1-0.1,0.2-0.1h1c0.1,0,0.2,0,0.2,0.1c0,0,0.1,0.1,0.1,0.1l1,1.4c0,0,0,0.1,0,0.2c0,0.1-0.1,0.1-0.2,0.1h-0.5
	c-0.1,0-0.2,0-0.3,0c0,0-0.1-0.1-0.1-0.1l-1.4-1.5C94.3,16.5,94.3,16.5,94.3,16.4 M92.8,27.7l2.4-8.7c0-0.1,0.1-0.2,0.2-0.2h0.9
	c0.1,0,0.2,0.1,0.2,0.2l2.4,8.7c0,0.1,0,0.1,0,0.2c0,0.1-0.1,0.1-0.2,0.1H98c-0.1,0-0.2-0.1-0.2-0.2l-0.6-2c0-0.1-0.1-0.2-0.3-0.2
	h-2.2c-0.1,0-0.2,0.1-0.2,0.2l-0.6,2c0,0.1-0.1,0.2-0.2,0.2H93c-0.1,0-0.2,0-0.2-0.1C92.8,27.8,92.7,27.8,92.8,27.7"/>
<path fill="currentColor" d="M50.6,14.2V5.5c0-0.1,0-0.1,0.1-0.2c0.1-0.1,0.1-0.1,0.2-0.1h0.7c0.1,0,0.1,0,0.2,0.1c0.1,0.1,0.1,0.1,0.1,0.2
	v8.6c0,0.1,0,0.1-0.1,0.2c-0.1,0.1-0.1,0.1-0.2,0.1h-0.7c-0.1,0-0.1,0-0.2-0.1C50.6,14.3,50.6,14.2,50.6,14.2"/>
<path fill="currentColor" d="M53.7,14.2V5.5c0-0.1,0-0.1,0.1-0.2c0.1-0.1,0.1-0.1,0.2-0.1H55c0.1,0,0.1,0,0.2,0c0,0,0.1,0.1,0.1,0.2l2.6,6.4
	c0,0,0,0,0.1,0c0,0,0,0,0-0.1V5.5c0-0.1,0-0.1,0.1-0.2c0.1-0.1,0.1-0.1,0.2-0.1h0.7c0.1,0,0.1,0,0.2,0.1c0.1,0.1,0.1,0.1,0.1,0.2
	v8.6c0,0.1,0,0.1-0.1,0.2c-0.1,0.1-0.1,0.1-0.2,0.1h-1.1c-0.1,0-0.1,0-0.2,0c0,0-0.1-0.1-0.1-0.2L55,7.7c0,0,0,0-0.1,0
	c0,0,0,0,0,0.1v6.4c0,0.1,0,0.1-0.1,0.2c-0.1,0.1-0.1,0.1-0.2,0.1h-0.7c-0.1,0-0.1,0-0.2-0.1C53.7,14.3,53.7,14.2,53.7,14.2"/>
<path fill="currentColor" d="M60.5,11.8v-0.2c0-0.1,0-0.1,0.1-0.2c0.1-0.1,0.1-0.1,0.2-0.1l0.7,0c0.1,0,0.1,0,0.2,0.1
	c0.1,0.1,0.1,0.1,0.1,0.2v0.2c0,0.2,0,0.4,0.1,0.6c0.1,0.2,0.2,0.3,0.4,0.5c0.2,0.1,0.3,0.2,0.5,0.3c0.2,0.1,0.4,0.1,0.7,0.1
	c0.2,0,0.5,0,0.7-0.1c0.2-0.1,0.4-0.2,0.5-0.3c0.2-0.1,0.3-0.3,0.4-0.5c0.1-0.2,0.1-0.4,0.1-0.6c0-0.3-0.1-0.5-0.2-0.7
	c-0.1-0.2-0.2-0.3-0.4-0.4c-0.2-0.1-0.4-0.2-0.7-0.3c-0.3-0.1-0.6-0.1-0.9-0.2c-0.3-0.1-0.6-0.2-0.9-0.3c-0.3-0.1-0.5-0.3-0.7-0.5
	c-0.2-0.2-0.3-0.4-0.5-0.7c-0.1-0.3-0.2-0.6-0.2-1c0-0.4,0.1-0.7,0.2-1c0.2-0.3,0.4-0.6,0.6-0.8c0.3-0.2,0.5-0.4,0.9-0.5
	c0.3-0.1,0.6-0.2,1-0.2c0.4,0,0.7,0.1,1.1,0.2c0.3,0.1,0.6,0.3,0.9,0.5c0.2,0.2,0.4,0.5,0.6,0.8c0.1,0.3,0.2,0.6,0.2,1v0.2
	c0,0.1,0,0.1-0.1,0.2C66,8,66,8.1,65.9,8.1l-0.7,0C65.1,8.1,65,8,65,8c-0.1-0.1-0.1-0.1-0.1-0.2V7.6c0-0.2,0-0.4-0.1-0.6
	c-0.1-0.2-0.2-0.3-0.3-0.4c-0.1-0.1-0.3-0.2-0.5-0.2c-0.2,0-0.3-0.1-0.5-0.1c-0.4,0-0.8,0.1-1,0.3C62.2,7,62,7.3,62,7.6
	c0,0.3,0.1,0.5,0.2,0.7c0.1,0.2,0.3,0.3,0.5,0.4s0.4,0.2,0.6,0.2C63.6,9,63.8,9.1,64,9.1c0.7,0.2,1.3,0.5,1.7,0.9
	c0.4,0.4,0.6,1,0.6,1.8c0,0.4-0.1,0.8-0.2,1.1c-0.2,0.3-0.4,0.6-0.7,0.9c-0.3,0.2-0.6,0.4-0.9,0.5c-0.4,0.1-0.7,0.2-1.1,0.2
	c-0.4,0-0.8-0.1-1.2-0.2c-0.4-0.1-0.7-0.3-0.9-0.6c-0.3-0.2-0.5-0.5-0.6-0.9C60.6,12.5,60.5,12.2,60.5,11.8"/>
<path fill="currentColor" d="M67.2,6.3V5.5c0-0.1,0-0.1,0.1-0.2c0.1-0.1,0.1-0.1,0.2-0.1h4.9c0.1,0,0.1,0,0.2,0.1c0.1,0.1,0.1,0.1,0.1,0.2
	v0.7c0,0.1,0,0.1-0.1,0.2c-0.1,0.1-0.1,0.1-0.2,0.1h-1.7c-0.1,0-0.1,0-0.1,0.1v7.5c0,0.1,0,0.1-0.1,0.2c-0.1,0.1-0.1,0.1-0.2,0.1
	h-0.7c-0.1,0-0.1,0-0.2-0.1c-0.1-0.1-0.1-0.1-0.1-0.2V6.7c0-0.1,0-0.1-0.1-0.1h-1.7c-0.1,0-0.1,0-0.2-0.1
	C67.2,6.4,67.2,6.3,67.2,6.3"/>
<path fill="currentColor" d="M73.9,14.2V5.5c0-0.1,0-0.1,0.1-0.2C74,5.3,74,5.3,74.1,5.3h0.7c0.1,0,0.1,0,0.2,0.1c0.1,0.1,0.1,0.1,0.1,0.2
	v8.6c0,0.1,0,0.1-0.1,0.2c-0.1,0.1-0.1,0.1-0.2,0.1h-0.7c-0.1,0-0.1,0-0.2-0.1C73.9,14.3,73.9,14.2,73.9,14.2"/>
<path fill="currentColor" d="M76.3,6.3V5.5c0-0.1,0-0.1,0.1-0.2c0.1-0.1,0.1-0.1,0.2-0.1h4.9c0.1,0,0.1,0,0.2,0.1c0.1,0.1,0.1,0.1,0.1,0.2
	v0.7c0,0.1,0,0.1-0.1,0.2c-0.1,0.1-0.1,0.1-0.2,0.1h-1.7c-0.1,0-0.1,0-0.1,0.1v7.5c0,0.1,0,0.1-0.1,0.2c-0.1,0.1-0.1,0.1-0.2,0.1
	h-0.7c-0.1,0-0.1,0-0.2-0.1c-0.1-0.1-0.1-0.1-0.1-0.2V6.7c0-0.1,0-0.1-0.1-0.1h-1.7c-0.1,0-0.1,0-0.2-0.1
	C76.3,6.4,76.3,6.3,76.3,6.3"/>
<path fill="currentColor" d="M82.9,11.8V5.5c0-0.1,0-0.1,0.1-0.2c0.1-0.1,0.1-0.1,0.2-0.1h0.7c0.1,0,0.1,0,0.2,0.1c0.1,0.1,0.1,0.1,0.1,0.2
	v6.3c0,0.3,0,0.5,0.1,0.7c0.1,0.2,0.2,0.3,0.4,0.5c0.2,0.1,0.3,0.2,0.5,0.3s0.4,0.1,0.6,0.1c0.2,0,0.5,0,0.7-0.1
	c0.2-0.1,0.4-0.2,0.5-0.3c0.2-0.1,0.3-0.3,0.4-0.5c0.1-0.2,0.1-0.4,0.1-0.6V5.5c0-0.1,0-0.1,0.1-0.2c0.1-0.1,0.1-0.1,0.2-0.1h0.7
	c0.1,0,0.1,0,0.2,0.1c0.1,0.1,0.1,0.1,0.1,0.2v6.3c0,0.4-0.1,0.8-0.2,1.1c-0.2,0.3-0.4,0.6-0.6,0.9c-0.3,0.2-0.6,0.4-0.9,0.6
	c-0.4,0.1-0.7,0.2-1.1,0.2c-0.4,0-0.8-0.1-1.2-0.2c-0.4-0.1-0.7-0.3-0.9-0.6c-0.3-0.2-0.5-0.5-0.6-0.9C83,12.6,82.9,12.2,82.9,11.8"
	/>
<path fill="currentColor" d="M90,6.3V5.5c0-0.1,0-0.1,0.1-0.2c0.1-0.1,0.1-0.1,0.2-0.1h4.9c0.1,0,0.1,0,0.2,0.1c0.1,0.1,0.1,0.1,0.1,0.2v0.7
	c0,0.1,0,0.1-0.1,0.2c-0.1,0.1-0.1,0.1-0.2,0.1h-1.7c-0.1,0-0.1,0-0.1,0.1v7.5c0,0.1,0,0.1-0.1,0.2c-0.1,0.1-0.1,0.1-0.2,0.1h-0.7
	c-0.1,0-0.1,0-0.2-0.1c-0.1-0.1-0.1-0.1-0.1-0.2V6.7c0-0.1,0-0.1-0.1-0.1h-1.7c-0.1,0-0.1,0-0.2-0.1C90,6.4,90,6.3,90,6.3"/>
<path fill="currentColor" d="M49.8,19.2C49.8,19.2,49.8,19.1,49.8,19.2c0-0.1,0-0.2,0-0.2c0-0.1,0.1-0.1,0.2-0.1h0.8c0.1,0,0.2,0.1,0.2,0.2
	l1.8,7c0,0.1,0,0.1,0.1,0.1h0c0,0,0.1,0,0.1-0.1l1.8-7c0-0.1,0.1-0.2,0.2-0.2h0.8c0.1,0,0.2,0,0.2,0.1c0,0,0,0.1,0,0.1
	c0,0,0,0,0,0.1l-2.4,8.6c0,0.1-0.1,0.2-0.2,0.2h-1c-0.1,0-0.2-0.1-0.2-0.2L49.8,19.2z"/>
<path fill="currentColor" d="M58.3,24.3C58.3,24.3,58.3,24.3,58.3,24.3c0,0.1,0,0.1,0.1,0.1h1.6c0.1,0,0.1,0,0.1-0.1c0,0,0,0,0-0.1l-0.8-3.6
	c0-0.1,0-0.1-0.1-0.1h0c0,0,0,0-0.1,0.1L58.3,24.3z M56.1,27.7l2.4-8.7c0-0.1,0.1-0.2,0.2-0.2h0.9c0.1,0,0.2,0.1,0.2,0.2l2.4,8.7
	c0,0,0,0,0,0.1c0,0,0,0.1,0,0.1c0,0.1-0.1,0.1-0.2,0.1h-0.7c-0.1,0-0.2-0.1-0.2-0.2l-0.6-2c0-0.1-0.1-0.2-0.2-0.2h-2.2
	c-0.1,0-0.2,0.1-0.2,0.2l-0.6,2c0,0.1-0.1,0.2-0.2,0.2h-0.7c-0.1,0-0.2,0-0.2-0.1C56.1,27.9,56.1,27.8,56.1,27.7
	C56.1,27.8,56.1,27.7,56.1,27.7"/>
<path fill="currentColor" d="M63.6,27.7v-8.6c0-0.1,0-0.1,0.1-0.2c0.1-0.1,0.1-0.1,0.2-0.1h0.7c0.1,0,0.1,0,0.2,0.1c0.1,0.1,0.1,0.1,0.1,0.2
	v7.5c0,0.1,0,0.1,0.1,0.1h2.9c0.1,0,0.1,0,0.2,0.1c0.1,0.1,0.1,0.1,0.1,0.2v0.7c0,0.1,0,0.1-0.1,0.2C68,28,68,28,67.9,28h-4
	c-0.1,0-0.1,0-0.2-0.1C63.6,27.9,63.6,27.8,63.6,27.7"/>
<path fill="currentColor" d="M69.4,27.7v-8.6c0-0.1,0-0.1,0.1-0.2c0.1-0.1,0.1-0.1,0.2-0.1h4.2c0.1,0,0.1,0,0.2,0.1c0.1,0.1,0.1,0.1,0.1,0.2
	v0.7c0,0.1,0,0.1-0.1,0.2c-0.1,0.1-0.1,0.1-0.2,0.1h-3.1c-0.1,0-0.1,0-0.1,0.1v2.3c0,0.1,0,0.1,0.1,0.1h3c0.1,0,0.1,0,0.2,0.1
	C74,22.8,74,22.9,74,23v0.7c0,0.1,0,0.1-0.1,0.2c-0.1,0.1-0.1,0.1-0.2,0.1h-3c-0.1,0-0.1,0-0.1,0.1v2.5c0,0.1,0,0.1,0.1,0.1H74
	c0.1,0,0.1,0,0.2,0.1c0.1,0.1,0.1,0.1,0.1,0.2v0.7c0,0.1,0,0.1-0.1,0.2C74.1,28,74,28,74,28h-4.2c-0.1,0-0.1,0-0.2-0.1
	C69.5,27.9,69.4,27.8,69.4,27.7"/>
<path fill="currentColor" d="M75.7,27.7v-8.6c0-0.1,0-0.1,0.1-0.2c0.1-0.1,0.1-0.1,0.2-0.1H77c0.1,0,0.1,0,0.2,0c0,0,0.1,0.1,0.1,0.2
	l2.6,6.4c0,0,0,0,0.1,0c0,0,0,0,0-0.1v-6.4c0-0.1,0-0.1,0.1-0.2c0.1-0.1,0.1-0.1,0.2-0.1h0.7c0.1,0,0.1,0,0.2,0.1
	c0.1,0.1,0.1,0.1,0.1,0.2v8.6c0,0.1,0,0.1-0.1,0.2C81,28,81,28,80.9,28h-1.1c-0.1,0-0.1,0-0.2,0c0,0-0.1-0.1-0.1-0.2L77,21.3
	c0,0,0,0-0.1,0c0,0,0,0,0,0.1v6.4c0,0.1,0,0.1-0.1,0.2C76.7,28,76.7,28,76.6,28h-0.7c-0.1,0-0.1,0-0.2-0.1
	C75.7,27.9,75.7,27.8,75.7,27.7"/>
<path fill="currentColor" d="M82.8,24.5c0-0.3,0-0.7,0-1.1s0-0.7,0-1c0-0.3,0-0.6,0.1-0.9c0-0.4,0.1-0.7,0.3-1c0.1-0.3,0.3-0.6,0.6-0.9
	c0.2-0.2,0.5-0.4,0.9-0.6c0.3-0.1,0.7-0.2,1.2-0.2c0.4,0,0.8,0.1,1.1,0.2c0.4,0.1,0.7,0.3,0.9,0.5c0.3,0.2,0.5,0.5,0.6,0.9
	c0.2,0.3,0.2,0.7,0.2,1.1v0.2c0,0.1,0,0.1-0.1,0.2c-0.1,0.1-0.1,0.1-0.2,0.1l-0.7,0c-0.1,0-0.1,0-0.2-0.1c-0.1-0.1-0.1-0.1-0.1-0.2
	v-0.2c0-0.2,0-0.4-0.1-0.6c-0.1-0.2-0.2-0.3-0.3-0.5c-0.1-0.1-0.3-0.2-0.5-0.3C86.3,20,86.1,20,85.8,20c-0.4,0-0.8,0.1-1.1,0.4
	c-0.3,0.3-0.5,0.6-0.6,1.1c0,0.3-0.1,0.6-0.1,0.9c0,0.3,0,0.7,0,1s0,0.7,0,1c0,0.3,0,0.6,0.1,0.9c0,0.2,0.1,0.4,0.2,0.6
	c0.1,0.2,0.2,0.3,0.3,0.5c0.1,0.1,0.3,0.2,0.5,0.3c0.2,0.1,0.4,0.1,0.7,0.1c0.2,0,0.4,0,0.6-0.1c0.2-0.1,0.4-0.2,0.5-0.3
	c0.2-0.1,0.3-0.3,0.4-0.5c0.1-0.2,0.1-0.4,0.1-0.6v-0.2c0-0.1,0-0.1,0.1-0.2c0.1-0.1,0.1-0.1,0.2-0.1h0.7c0.1,0,0.1,0,0.2,0.1
	c0.1,0.1,0.1,0.1,0.1,0.2v0.2c0,0.4-0.1,0.7-0.2,1c-0.1,0.3-0.3,0.6-0.6,0.9c-0.3,0.2-0.6,0.4-0.9,0.6c-0.4,0.1-0.8,0.2-1.2,0.2
	c-0.4,0-0.8-0.1-1.1-0.2c-0.3-0.1-0.6-0.3-0.9-0.5c-0.3-0.2-0.5-0.5-0.6-0.9c-0.2-0.3-0.3-0.7-0.3-1.1
	C82.9,25.1,82.8,24.8,82.8,24.5"/>
<path fill="currentColor" d="M90.3,27.7v-8.6c0-0.1,0-0.1,0.1-0.2c0.1-0.1,0.1-0.1,0.2-0.1h0.7c0.1,0,0.1,0,0.2,0.1c0.1,0.1,0.1,0.1,0.1,0.2
	v8.6c0,0.1,0,0.1-0.1,0.2C91.4,28,91.3,28,91.3,28h-0.7c-0.1,0-0.1,0-0.2-0.1C90.3,27.9,90.3,27.8,90.3,27.7"/>
<path fill="currentColor" d="M51.8,40.2c0,0.1,0,0.1,0.1,0.1h1.4c0.2,0,0.4,0,0.6-0.1c0.2-0.1,0.3-0.2,0.5-0.3c0.1-0.1,0.2-0.3,0.3-0.5
	c0.1-0.2,0.1-0.4,0.2-0.6c0-0.3,0.1-0.5,0.1-0.9s0-0.6,0-1c0-0.3,0-0.6,0-1c0-0.3,0-0.6-0.1-0.9c0-0.2-0.1-0.4-0.2-0.6
	c-0.1-0.2-0.2-0.3-0.3-0.5c-0.1-0.1-0.3-0.2-0.5-0.3c-0.2-0.1-0.4-0.1-0.6-0.1h-1.4c-0.1,0-0.1,0-0.1,0.1V40.2z M50.6,41.3v-8.6
	c0-0.1,0-0.1,0.1-0.2c0.1-0.1,0.1-0.1,0.2-0.1h2.5c0.4,0,0.7,0.1,1,0.2c0.3,0.1,0.6,0.3,0.8,0.6c0.2,0.2,0.4,0.5,0.6,0.9
	c0.2,0.3,0.2,0.7,0.3,1.1c0,0.3,0.1,0.5,0.1,0.9c0,0.3,0,0.6,0,1c0,0.3,0,0.6,0,1c0,0.3,0,0.6-0.1,0.9c0,0.4-0.1,0.7-0.3,1.1
	c-0.1,0.3-0.3,0.6-0.6,0.9c-0.2,0.2-0.5,0.4-0.8,0.6c-0.3,0.1-0.7,0.2-1,0.2h-2.5c-0.1,0-0.1,0-0.2-0.1
	C50.6,41.4,50.6,41.4,50.6,41.3"/>
<path fill="currentColor" d="M57.8,41.3v-8.6c0-0.1,0-0.1,0.1-0.2c0.1-0.1,0.1-0.1,0.2-0.1h4.2c0.1,0,0.1,0,0.2,0.1c0.1,0.1,0.1,0.1,0.1,0.2
	v0.7c0,0.1,0,0.1-0.1,0.2c-0.1,0.1-0.1,0.1-0.2,0.1h-3.1c-0.1,0-0.1,0-0.1,0.1v2.3c0,0.1,0,0.1,0.1,0.1h3c0.1,0,0.1,0,0.2,0.1
	c0.1,0.1,0.1,0.1,0.1,0.2v0.7c0,0.1,0,0.1-0.1,0.2c-0.1,0.1-0.1,0.1-0.2,0.1h-3c-0.1,0-0.1,0-0.1,0.1v2.5c0,0.1,0,0.1,0.1,0.1h3.1
	c0.1,0,0.1,0,0.2,0.1c0.1,0.1,0.1,0.1,0.1,0.2v0.7c0,0.1,0,0.1-0.1,0.2c-0.1,0.1-0.1,0.1-0.2,0.1H58c-0.1,0-0.1,0-0.2-0.1
	C57.8,41.4,57.8,41.4,57.8,41.3"/>
<path fill="currentColor" d="M67,38c0-0.3,0-0.7,0-1.1s0-0.7,0-1s0-0.6,0.1-0.9c0-0.4,0.1-0.7,0.3-1c0.1-0.3,0.3-0.6,0.6-0.9
	c0.2-0.2,0.5-0.5,0.9-0.6c0.3-0.1,0.7-0.2,1.2-0.2c0.4,0,0.8,0.1,1.1,0.2c0.4,0.1,0.7,0.3,0.9,0.5c0.3,0.2,0.5,0.5,0.6,0.9
	c0.2,0.3,0.2,0.7,0.2,1.1v0.2c0,0.1,0,0.1-0.1,0.2c-0.1,0.1-0.1,0.1-0.2,0.1l-0.7,0c-0.1,0-0.1,0-0.2-0.1c-0.1-0.1-0.1-0.1-0.1-0.2
	V35c0-0.2,0-0.4-0.1-0.6c-0.1-0.2-0.2-0.3-0.3-0.5c-0.1-0.1-0.3-0.2-0.5-0.3c-0.2-0.1-0.4-0.1-0.7-0.1c-0.4,0-0.8,0.1-1.1,0.4
	c-0.3,0.2-0.5,0.6-0.6,1.1c0,0.3-0.1,0.6-0.1,0.9c0,0.3,0,0.7,0,1c0,0.4,0,0.7,0,1c0,0.3,0,0.6,0.1,0.9c0,0.2,0.1,0.4,0.2,0.6
	c0.1,0.2,0.2,0.3,0.3,0.5c0.1,0.1,0.3,0.2,0.5,0.3c0.2,0.1,0.4,0.1,0.7,0.1c0.2,0,0.4,0,0.6-0.1c0.2-0.1,0.4-0.2,0.5-0.3
	c0.2-0.1,0.3-0.3,0.4-0.5c0.1-0.2,0.1-0.4,0.1-0.6v-0.2c0-0.1,0-0.1,0.1-0.2c0.1-0.1,0.1-0.1,0.2-0.1h0.7c0.1,0,0.1,0,0.2,0.1
	c0.1,0,0.1,0.1,0.1,0.2V39c0,0.4-0.1,0.7-0.2,1c-0.1,0.3-0.3,0.6-0.6,0.9c-0.3,0.2-0.6,0.4-0.9,0.6c-0.4,0.1-0.8,0.2-1.2,0.2
	c-0.4,0-0.8-0.1-1.1-0.2c-0.3-0.1-0.6-0.3-0.9-0.5c-0.3-0.2-0.5-0.5-0.6-0.9c-0.2-0.3-0.3-0.7-0.3-1.1C67.1,38.7,67.1,38.4,67,38"/>
<path fill="currentColor" d="M74.4,39v-6.3c0-0.1,0-0.1,0.1-0.2c0.1-0.1,0.1-0.1,0.2-0.1h0.7c0.1,0,0.1,0,0.2,0.1c0.1,0.1,0.1,0.1,0.1,0.2
	v6.3c0,0.3,0,0.5,0.1,0.7c0.1,0.2,0.2,0.3,0.4,0.5c0.2,0.1,0.3,0.2,0.5,0.3c0.2,0.1,0.4,0.1,0.6,0.1c0.2,0,0.5,0,0.7-0.1
	c0.2-0.1,0.4-0.2,0.5-0.3c0.2-0.1,0.3-0.3,0.4-0.5c0.1-0.2,0.1-0.4,0.1-0.6v-6.3c0-0.1,0-0.1,0.1-0.2c0.1-0.1,0.1-0.1,0.2-0.1H80
	c0.1,0,0.1,0,0.2,0.1c0.1,0.1,0.1,0.1,0.1,0.2V39c0,0.4-0.1,0.8-0.2,1.1c-0.2,0.3-0.4,0.6-0.6,0.9c-0.3,0.2-0.6,0.4-0.9,0.6
	c-0.4,0.1-0.7,0.2-1.1,0.2c-0.4,0-0.8-0.1-1.2-0.2c-0.4-0.1-0.7-0.3-0.9-0.6c-0.3-0.2-0.5-0.5-0.6-0.9C74.5,39.7,74.4,39.3,74.4,39"
	/>
<path fill="currentColor" d="M82,41.3v-8.6c0-0.1,0-0.1,0.1-0.2c0.1-0.1,0.1-0.1,0.2-0.1H83c0.1,0,0.1,0,0.2,0.1c0.1,0.1,0.1,0.1,0.1,0.2
	v7.5c0,0.1,0,0.1,0.1,0.1h2.9c0.1,0,0.1,0,0.2,0.1c0.1,0.1,0.1,0.1,0.1,0.2v0.7c0,0.1,0,0.1-0.1,0.2c-0.1,0.1-0.1,0.1-0.2,0.1h-4
	c-0.1,0-0.1,0-0.2-0.1C82.1,41.4,82,41.4,82,41.3"/>
<path fill="currentColor" d="M86.4,33.4v-0.7c0-0.1,0-0.1,0.1-0.2c0.1-0.1,0.1-0.1,0.2-0.1h4.9c0.1,0,0.1,0,0.2,0.1c0.1,0.1,0.1,0.1,0.1,0.2
	v0.7c0,0.1,0,0.1-0.1,0.2c-0.1,0.1-0.1,0.1-0.2,0.1h-1.7c-0.1,0-0.1,0-0.1,0.1v7.5c0,0.1,0,0.1-0.1,0.2c-0.1,0.1-0.1,0.1-0.2,0.1
	h-0.7c-0.1,0-0.1,0-0.2-0.1c-0.1-0.1-0.1-0.1-0.1-0.2v-7.5c0-0.1,0-0.1-0.1-0.1h-1.7c-0.1,0-0.1,0-0.2-0.1
	C86.4,33.5,86.4,33.5,86.4,33.4"/>
<path fill="currentColor" d="M93,39v-6.3c0-0.1,0-0.1,0.1-0.2c0.1-0.1,0.1-0.1,0.2-0.1H94c0.1,0,0.1,0,0.2,0.1c0.1,0.1,0.1,0.1,0.1,0.2v6.3
	c0,0.3,0,0.5,0.1,0.7c0.1,0.2,0.2,0.3,0.4,0.5c0.2,0.1,0.3,0.2,0.5,0.3c0.2,0.1,0.4,0.1,0.6,0.1c0.2,0,0.5,0,0.7-0.1
	c0.2-0.1,0.4-0.2,0.5-0.3c0.2-0.1,0.3-0.3,0.4-0.5c0.1-0.2,0.1-0.4,0.1-0.6v-6.3c0-0.1,0-0.1,0.1-0.2c0.1-0.1,0.1-0.1,0.2-0.1h0.7
	c0.1,0,0.1,0,0.2,0.1c0.1,0.1,0.1,0.1,0.1,0.2V39c0,0.4-0.1,0.8-0.2,1.1c-0.2,0.3-0.4,0.6-0.6,0.9c-0.3,0.2-0.6,0.4-0.9,0.6
	c-0.4,0.1-0.7,0.2-1.1,0.2c-0.4,0-0.8-0.1-1.2-0.2c-0.4-0.1-0.7-0.3-0.9-0.6c-0.3-0.2-0.5-0.5-0.6-0.9C93.1,39.7,93,39.3,93,39"/>
<path fill="currentColor" d="M101.9,36.5c0,0.1,0,0.1,0.1,0.1h1.2c0.2,0,0.4,0,0.6-0.1c0.2-0.1,0.3-0.2,0.5-0.3c0.1-0.1,0.2-0.3,0.3-0.5
	c0.1-0.2,0.1-0.4,0.1-0.6c0-0.2,0-0.4-0.1-0.6c-0.1-0.2-0.2-0.3-0.3-0.5c-0.1-0.1-0.3-0.2-0.5-0.3c-0.2-0.1-0.4-0.1-0.6-0.1H102
	c-0.1,0-0.1,0-0.1,0.1V36.5z M100.7,41.3v-8.6c0-0.1,0-0.1,0.1-0.2c0.1-0.1,0.1-0.1,0.2-0.1h2.3c0.4,0,0.7,0.1,1.1,0.2
	c0.3,0.1,0.6,0.3,0.9,0.6c0.2,0.2,0.4,0.5,0.6,0.9c0.1,0.3,0.2,0.7,0.2,1.1c0,0.5-0.1,1-0.4,1.4c-0.3,0.4-0.6,0.7-1,1
	c-0.1,0.1-0.2,0.1-0.2,0.2c0,0.1,0,0.2,0,0.3l1.5,3.2c0,0.1,0,0.2,0,0.3c0,0.1-0.1,0.1-0.3,0.1H105c-0.1,0-0.2,0-0.2-0.1
	s-0.1-0.1-0.1-0.2l-1.5-3.2c0,0,0-0.1-0.1-0.1c0,0-0.1,0-0.2,0H102c-0.1,0-0.1,0-0.1,0.1v3.3c0,0.1,0,0.1-0.1,0.2
	c-0.1,0.1-0.1,0.1-0.2,0.1h-0.7c-0.1,0-0.1,0-0.2-0.1C100.7,41.4,100.7,41.4,100.7,41.3"/>
<path fill="currentColor" d="M109.3,37.8C109.3,37.9,109.3,37.9,109.3,37.8c0,0.1,0,0.1,0.1,0.1h1.6c0.1,0,0.1,0,0.1-0.1c0,0,0,0,0-0.1
	l-0.8-3.6c0-0.1,0-0.1-0.1-0.1h0c0,0,0,0-0.1,0.1L109.3,37.8z M107.1,41.3l2.4-8.7c0-0.1,0.1-0.2,0.2-0.2h0.9c0.1,0,0.2,0.1,0.2,0.2
	l2.4,8.7c0,0,0,0,0,0.1c0,0,0,0.1,0,0.1c0,0.1-0.1,0.1-0.2,0.1h-0.7c-0.1,0-0.2-0.1-0.2-0.2l-0.6-2c0-0.1-0.1-0.2-0.2-0.2h-2.2
	c-0.1,0-0.2,0.1-0.2,0.2l-0.6,2c0,0.1-0.1,0.2-0.2,0.2h-0.7c-0.1,0-0.2,0-0.2-0.1C107.1,41.4,107.1,41.4,107.1,41.3
	C107.1,41.3,107.1,41.3,107.1,41.3"/>
<path fill="currentColor" d="M43.3,32.5h-0.8c-0.1,0-0.2-0.1-0.2-0.2V14.5c0-0.1,0.1-0.2,0.2-0.2h0.8c0.1,0,0.2,0.1,0.2,0.2v17.8
	C43.6,32.4,43.5,32.5,43.3,32.5"/>
<path fill="currentColor" d="M35.7,41.9c-1,0.7-2.1,1.3-3.3,1.8l-2.8-6.8c0.7-0.3,1.4-0.7,2-1.1c0.6-0.4,1.2-0.9,1.8-1.4l5.2,5.2
	C37.8,40.4,36.8,41.2,35.7,41.9 M27.8,45.2c-1.2,0.2-2.5,0.4-3.7,0.4v-7.3c0.8,0,1.5-0.1,2.3-0.3l0,0c0.8-0.1,1.5-0.4,2.2-0.6
	l2.8,6.8C30.2,44.6,29,44.9,27.8,45.2 M24,29.7c0.2,0,0.4,0,0.6-0.1c0.4-0.1,0.8-0.2,1.2-0.4c0.4-0.2,0.8-0.4,1.1-0.6
	c0.2-0.1,0.3-0.2,0.5-0.4l5.2,5.2c-0.5,0.5-1,0.9-1.6,1.3c-0.7,0.5-1.5,0.9-2.4,1.3c-0.8,0.3-1.7,0.6-2.6,0.8l0,0
	c-0.7,0.1-1.4,0.2-2,0.2V29.7z M22.8,37c-0.7,0-1.4-0.1-2-0.2l0,0c-0.9-0.2-1.7-0.4-2.6-0.8c-0.8-0.3-1.6-0.8-2.4-1.3
	c-0.6-0.4-1.1-0.8-1.6-1.3l5.2-5.2c0.2,0.1,0.3,0.3,0.5,0.4v0c0.3,0.2,0.7,0.4,1.1,0.6c0.4,0.2,0.8,0.3,1.2,0.4
	c0.2,0,0.4,0.1,0.6,0.1V37z M22.8,45.6c-1.2,0-2.5-0.2-3.7-0.4c-1.2-0.2-2.4-0.6-3.6-1l2.8-6.8c0.7,0.3,1.5,0.5,2.2,0.6l0,0
	c0.8,0.2,1.5,0.2,2.3,0.3V45.6z M14.4,43.7c-1.1-0.5-2.2-1.1-3.3-1.8c-1-0.7-2-1.5-2.9-2.3l5.2-5.2c0.6,0.5,1.2,1,1.8,1.4
	c0.6,0.4,1.3,0.8,2,1.1L14.4,43.7z M5,35.8c-0.7-1-1.3-2.1-1.8-3.3l6.8-2.8c0.3,0.7,0.7,1.4,1.1,2v0c0.4,0.6,0.9,1.2,1.4,1.8
	l-5.2,5.2C6.4,37.8,5.7,36.8,5,35.8 M1.7,27.8L1.7,27.8c-0.2-1.2-0.4-2.5-0.4-3.7h7.3c0,0.8,0.1,1.5,0.3,2.3l0,0
	c0.1,0.8,0.4,1.5,0.6,2.2l-5.2,2.1l-1.6,0.7C2.3,30.2,1.9,29,1.7,27.8 M1.7,19.1c0.2-1.2,0.6-2.4,1-3.6l6.8,2.8
	C9.2,19,9,19.8,8.8,20.5h0c-0.1,0.8-0.2,1.5-0.3,2.3H1.2C1.3,21.6,1.4,20.3,1.7,19.1L1.7,19.1z M5,11.1c0.7-1,1.5-2,2.3-2.9l5.2,5.2
	c-0.5,0.6-1,1.2-1.4,1.8s-0.8,1.3-1.1,2l-6.8-2.8C3.7,13.2,4.3,12.1,5,11.1 M11.1,5c1-0.7,2.1-1.3,3.3-1.8l2.8,6.8
	c-0.7,0.3-1.4,0.7-2,1.1c-0.6,0.4-1.2,0.9-1.8,1.4L8.2,7.3C9.1,6.4,10.1,5.7,11.1,5 M19.1,1.7c1.2-0.2,2.5-0.4,3.7-0.4v7.3
	c-0.8,0-1.5,0.1-2.3,0.3C19.8,9,19,9.2,18.3,9.5l-2.8-6.8C16.7,2.3,17.9,1.9,19.1,1.7 M22.8,17.1c-0.2,0-0.4,0.1-0.6,0.1
	c-0.4,0.1-0.8,0.2-1.2,0.4v0c-0.4,0.2-0.8,0.4-1.1,0.6c-0.2,0.1-0.3,0.2-0.5,0.4l-5.2-5.2c0.5-0.5,1-0.9,1.6-1.3
	c0.7-0.5,1.5-0.9,2.4-1.3h0c0.8-0.3,1.7-0.6,2.6-0.8v0c0.7-0.1,1.4-0.2,2-0.2V17.1z M18.2,19.9L18.2,19.9c-0.2,0.3-0.4,0.7-0.6,1.1
	c-0.2,0.4-0.3,0.8-0.4,1.2c0,0.2-0.1,0.4-0.1,0.6H9.8c0-0.7,0.1-1.4,0.2-2h0c0.2-0.9,0.4-1.7,0.8-2.6v0c0.3-0.8,0.8-1.6,1.3-2.4
	c0.4-0.6,0.8-1.1,1.3-1.6l5.2,5.2C18.4,19.6,18.3,19.7,18.2,19.9 M18.5,27.4l-5.2,5.2c-0.5-0.5-0.9-1-1.3-1.6v0
	c-0.5-0.7-0.9-1.5-1.3-2.4l0,0c-0.3-0.8-0.6-1.7-0.8-2.6h0c-0.1-0.7-0.2-1.4-0.2-2h7.3c0,0.2,0,0.4,0.1,0.6c0.1,0.4,0.2,0.8,0.4,1.2
	c0.2,0.4,0.4,0.7,0.6,1.1h0C18.3,27.1,18.4,27.3,18.5,27.4 M24,9.8c0.7,0,1.4,0.1,2,0.2l0,0c0.8,0.2,1.7,0.4,2.6,0.8
	c0.8,0.3,1.6,0.8,2.4,1.3c0.6,0.4,1.1,0.8,1.6,1.3l-5.2,5.2c-0.2-0.1-0.3-0.3-0.5-0.4c-0.3-0.2-0.7-0.4-1.1-0.6v0
	c-0.4-0.2-0.8-0.3-1.2-0.4h0c-0.2,0-0.4-0.1-0.6-0.1V9.8z M24,1.3c0,0,0.1,0,0.1,0c0.5,0,1.1,0.1,1.6,0.1c0.1,0,0.2,0,0.2,0
	c0.6,0.1,1.1,0.2,1.7,0.3c1.2,0.2,2.4,0.6,3.6,1l-2.8,6.8C27.8,9.2,27,9,26.3,8.8h0c-0.8-0.1-1.5-0.2-2.3-0.3V1.3z M32.5,3.2
	c1.1,0.5,2.2,1.1,3.3,1.8c1,0.7,2,1.5,2.9,2.3l-5.2,5.2c-0.6-0.5-1.2-1-1.8-1.4c-0.6-0.4-1.3-0.8-2-1.1L32.5,3.2z M40,39.1l-6-6
	l-6-6c-0.1-0.1-0.1-0.1-0.2-0.1c-0.2-0.1-0.3-0.1-0.5,0c-0.1,0-0.1,0.1-0.2,0.1c-0.2,0.2-0.5,0.4-0.8,0.6c-0.3,0.2-0.6,0.3-0.9,0.5
	l0,0c-0.3,0.1-0.6,0.2-1,0.3l0,0c-0.3,0.1-0.7,0.1-1,0.1c-0.3,0-0.7,0-1-0.1l0,0c-0.3-0.1-0.6-0.2-1-0.3l0,0
	c-0.3-0.1-0.6-0.3-0.9-0.5c-0.3-0.2-0.5-0.4-0.8-0.6l0,0c-0.2-0.2-0.4-0.5-0.6-0.8c-0.2-0.3-0.3-0.6-0.5-0.9l0,0
	c-0.1-0.3-0.2-0.6-0.3-1c-0.1-0.3-0.1-0.7-0.1-1s0-0.7,0.1-1c0.1-0.3,0.2-0.6,0.3-1c0.1-0.3,0.3-0.6,0.5-0.9
	c0.2-0.3,0.4-0.5,0.6-0.8c0.2-0.2,0.5-0.4,0.8-0.6c0.3-0.2,0.6-0.3,0.9-0.5l0,0c0.3-0.1,0.6-0.2,1-0.3c0.3-0.1,0.7-0.1,1-0.1
	c0.3,0,0.7,0,1,0.1c0.3,0.1,0.6,0.2,1,0.3l0,0c0.3,0.1,0.6,0.3,0.9,0.5c0.3,0.2,0.5,0.4,0.8,0.6c0.1,0.1,0.1,0.1,0.2,0.1
	c0.1,0,0.2,0,0.2,0c0.1,0,0.2,0,0.2,0c0.1,0,0.1-0.1,0.2-0.1l6-6l6-6c0.1-0.1,0.2-0.3,0.2-0.4c0-0.2-0.1-0.3-0.2-0.4
	c-1.1-1.1-2.3-2.1-3.5-2.9c-1.3-0.9-2.6-1.6-4-2.2c0,0,0,0,0,0c-1.4-0.6-2.9-1-4.4-1.3C26.5,0.2,25,0,23.4,0c-1.5,0-3.1,0.2-4.6,0.4
	c-1.5,0.3-3,0.7-4.4,1.3c-1.4,0.6-2.8,1.3-4.1,2.2C9.1,4.8,7.9,5.8,6.9,6.9l0,0c-1.1,1.1-2.1,2.3-2.9,3.5c-0.9,1.3-1.6,2.6-2.2,4
	c0,0,0,0,0,0c-0.6,1.4-1,2.9-1.3,4.4v0c-0.3,1.5-0.4,3-0.4,4.6s0.1,3.1,0.4,4.6c0.3,1.5,0.7,3,1.3,4.4l0,0c0.6,1.4,1.3,2.8,2.2,4.1
	c0.9,1.3,1.8,2.5,2.9,3.5c1.1,1.1,2.3,2.1,3.5,2.9c1.3,0.9,2.6,1.6,4.1,2.2c1.4,0.6,2.9,1,4.4,1.3c1.5,0.3,3,0.4,4.6,0.4
	c1.5,0,3.1-0.2,4.6-0.4c1.5-0.3,3-0.7,4.4-1.3c0,0,0,0,0,0c1.4-0.6,2.8-1.3,4-2.2c1.3-0.9,2.5-1.8,3.5-2.9
	C40.2,39.7,40.2,39.4,40,39.1"/>
</svg>
